<svg xmlns="http://www.w3.org/2000/svg" width="89.754" height="90" viewBox="0 0 89.754 90">
  <g id="Group_128000" data-name="Group 128000" transform="translate(-230 -11191)">
    <g id="Group_127357" data-name="Group 127357" transform="translate(230 11191)">
      <path id="Path_181147" data-name="Path 181147" d="M-1256.682,1465.628a2.922,2.922,0,0,1-1.2-2.792c.064-2.014.015-4.032.019-6.047,0-1.723.668-2.391,2.37-2.4,1.4,0,1.4,0,1.4-1.423q0-1.709,0-3.419c0-1.841.146-2.06,1.8-2.7,1.565.39,1.932.868,1.933,2.518,0,1.4.047,2.808-.019,4.207-.035.729.23.835.876.834q14.6-.029,29.2-.013c1.867,0,1.867,0,1.723-1.929.014-1.344.034-2.687.04-4.031.007-1.531,0-1.573-1.567-1.534a9.551,9.551,0,0,1-9.436-7.064,4.9,4.9,0,0,1-.088-2.849,1.776,1.776,0,0,1,1.759-1.32,1.858,1.858,0,0,1,1.778,1.424,4.455,4.455,0,0,1,.11.779,5.545,5.545,0,0,0,5.508,5.279q6.667.052,13.335,0a5.515,5.515,0,0,0,5.436-5.344c.043-1.109-.018-2.224.033-3.333.027-.571-.185-.662-.7-.667a35.559,35.559,0,0,1-5.256-.115,7.822,7.822,0,0,1-4.709-2.3,1.765,1.765,0,0,1,.231-2.87,1.856,1.856,0,0,1,2.4.232,4.619,4.619,0,0,0,3.255,1.283c1.374,0,2.748-.014,4.12.027.573.017.66-.221.65-.721-.03-1.52-.021-3.041-.008-4.562s.715-2.2,2.208-2.193,2.982.055,4.474.052a2.6,2.6,0,0,0,2.691-2.458,3.156,3.156,0,0,0-.676-1.949q-4.778-8.007-9.6-15.989a5.656,5.656,0,0,1-1.009-3.186,13.748,13.748,0,0,0-.239-2.351,20.613,20.613,0,0,0-17.794-17.07,46.568,46.568,0,0,0-18.219,1.591,1.924,1.924,0,0,1-2.672-1.106,1.911,1.911,0,0,1,1.442-2.421,47.64,47.64,0,0,1,20.9-1.574,24.081,24.081,0,0,1,20.042,20.04c.145.982.245,1.972.308,2.962a2.245,2.245,0,0,0,.385,1.045c3.258,5.432,6.531,10.856,9.77,16.3a6.413,6.413,0,0,1-3.665,9.6,12.818,12.818,0,0,1-3.839.219c-.632-.013-.757.184-.752.78q.045,5.09.01,10.18a9.343,9.343,0,0,1-7.8,9.5,11.59,11.59,0,0,1-2.009.133q-3.2.024-6.407,0c-.4,0-.65.03-.644.549.025,2.164.021,4.329,0,6.494,0,.412.159.479.515.473,1.024-.019,2.049.014,3.072-.015a1.731,1.731,0,0,1,1.474.617c2.088,2.487,3.957,5.141,5.859,7.768.727,1,.282,2.052-1.037,2.858h-1.229a16.8,16.8,0,0,1-1.175-1.263q-2.15-2.822-4.247-5.685a1.264,1.264,0,0,0-1.158-.579q-20.252.027-40.5.009c-.645,0-.939.1-.9.844.065,1.37-.021,2.747.031,4.119a2.423,2.423,0,0,1-1.375,2.555Z" transform="translate(1278.45 -1375.628)" fill="#ff6b00"/>
      <path id="Path_181149" data-name="Path 181149" d="M-1345.526,1488.921a2.855,2.855,0,0,1,2.87-1.2c.87.058,1.748-.012,2.621.019a1.908,1.908,0,0,1,2,1.879,1.9,1.9,0,0,1-2,1.88c-1.164.035-2.331,0-3.5.011a2.526,2.526,0,0,1-2-1.188Z" transform="translate(1345.526 -1461.414)" fill="#ff6b00"/>
      <path id="Path_181151" data-name="Path 181151" d="M-1285.741,1415.867a18.783,18.783,0,0,1,8.049,2.457c6.655,4.07,9.774,10.027,9.424,17.825a16.472,16.472,0,0,1-3.168,8.855,41.284,41.284,0,0,0-5.327,9.913.876.876,0,0,0,.389,1.255,5.573,5.573,0,0,1-.689,9.651,1.465,1.465,0,0,0-.888,1.046,9.529,9.529,0,0,1-5.311,6.156,10.935,10.935,0,0,1-5.607.542,13.437,13.437,0,0,1-2.825-1.142,9.255,9.255,0,0,1-4.277-5.648,1.183,1.183,0,0,0-.7-.884,5.561,5.561,0,0,1-.833-9.728.839.839,0,0,0,.372-1.2,38.623,38.623,0,0,0-4.467-8.69,20.243,20.243,0,0,1-3.7-7.569,18.806,18.806,0,0,1,16.772-22.757c.349-.027.694-.091,1.042-.138Zm-4.015,50.6h-2.476a5.5,5.5,0,0,0,4.544,3.637,5.169,5.169,0,0,0,5.129-2.132,3.317,3.317,0,0,0,.859-1.505Zm12.1-5.694a1.672,1.672,0,0,0-1.724-1.785c-4.81-.014-9.62.011-14.43.022-1.511-.12-2.393.477-2.464,1.666-.075,1.256.772,2,2.28,2.007,1.6,0,3.21,0,4.814,0,3.18,0,6.361.009,9.541,0A1.774,1.774,0,0,0-1277.654,1460.769Zm-9.3-9.672c.182-.505.282-.77.374-1.038q1.742-5.09,3.485-10.181a1.881,1.881,0,0,1,2.483-1.423,1.9,1.9,0,0,1,1.069,2.59c-.26.8-.531,1.606-.8,2.407-1.249,3.672-2.49,7.345-3.759,11.01-.2.564-.134.763.508.721a22.334,22.334,0,0,1,2.28,0,.591.591,0,0,0,.68-.5,39.242,39.242,0,0,1,5.939-11.538,14.608,14.608,0,0,0,.373-16.573c-3.6-5.415-8.743-7.714-15.162-6.709a14.884,14.884,0,0,0-9.967,22.872c2.553,3.77,4.917,7.59,6.214,11.988.078.266.184.467.532.461,1.02-.018,2.04-.006,3.126-.006-.11-.354-.193-.63-.282-.9q-2.151-6.615-4.3-13.23a1.872,1.872,0,0,1,1.335-2.649,1.869,1.869,0,0,1,2.217,1.5C-1289.412,1443.538-1288.226,1447.194-1286.954,1451.1Z" transform="translate(1315.033 -1406.387)" fill="#ff6b00"/>
      <path id="Path_181153" data-name="Path 181153" d="M-1314.173,1405.562a1.926,1.926,0,0,1-1.075,1.731,1.654,1.654,0,0,1-1.96-.221c-1.391-1.326-2.766-2.674-4.074-4.081a1.743,1.743,0,0,1,.16-2.45,1.747,1.747,0,0,1,2.454-.134c1.4,1.312,2.734,2.7,4.083,4.072A1.88,1.88,0,0,1-1314.173,1405.562Z" transform="translate(1327.301 -1394.255)" fill="#ff6b00"/>
      <path id="Path_181154" data-name="Path 181154" d="M-1233.873,1379.939c0-.583-.02-1.166,0-1.748a1.9,1.9,0,0,1,1.853-2.02,1.867,1.867,0,0,1,1.907,1.96c.04,1.193.041,2.39,0,3.583a1.9,1.9,0,0,1-1.846,1.945,1.915,1.915,0,0,1-1.909-1.973C-1233.9,1381.106-1233.872,1380.522-1233.873,1379.939Z" transform="translate(1260.075 -1376.043)" fill="#ff6b00"/>
      <path id="Path_181155" data-name="Path 181155" d="M-1226.365,1405.526l-1.743-.052a18.5,18.5,0,0,1,4.569-3.17c.195.4-.225.467-.384.647C-1224.706,1403.837-1225.661,1404.562-1226.365,1405.526Z" transform="translate(1255.656 -1396.045)" fill="#ff6b00"/>
      <path id="Path_181156" data-name="Path 181156" d="M-1156.473,1400.093a1.815,1.815,0,0,1,1.664.953,1.628,1.628,0,0,1-.1,1.974,44.616,44.616,0,0,1-4.212,4.216,1.764,1.764,0,0,1-2.394-.217,1.751,1.751,0,0,1-.156-2.4c1.333-1.433,2.749-2.789,4.149-4.159A1.433,1.433,0,0,1-1156.473,1400.093Z" transform="translate(1205.121 -1394.353)" fill="#ff6b00"/>
      <path id="Path_181157" data-name="Path 181157" d="M-1134.349,1491.523c-.583,0-1.167.03-1.748-.005a1.911,1.911,0,0,1-1.927-1.866,1.878,1.878,0,0,1,1.9-1.885c1.222-.048,2.448-.046,3.67,0a1.861,1.861,0,0,1,1.917,1.862,1.878,1.878,0,0,1-1.891,1.889C-1133.065,1491.556-1133.708,1491.523-1134.349,1491.523Z" transform="translate(1186.708 -1461.43)" fill="#ff6b00"/>
    </g>
  </g>
</svg>
