<svg xmlns="http://www.w3.org/2000/svg" width="86" height="86" viewBox="0 0 86 86">
  <g id="Group_127996" data-name="Group 127996" transform="translate(4845.41 9469)">
    <circle id="Ellipse_6347" data-name="Ellipse 6347" cx="43" cy="43" r="43" transform="translate(-4845.41 -9469)" fill="#ff6b00"/>
    <g id="_000000ff" data-name="#000000ff" transform="translate(-4859.051 -9446)">
      <path id="Path_157148" data-name="Path 157148" d="M40.177,0H65.65a.684.684,0,0,1,.43.23.893.893,0,0,1,.13.55q0,2.379,0,4.757c2.2,0,4.391,0,6.586,0a.6.6,0,0,1,.646.638c0,1.744.009,3.488,0,5.232a.583.583,0,0,1-.712.581.614.614,0,0,1-.454-.66c0-1.541,0-3.081,0-4.621q-3.032,0-6.062,0,0,11.018,0,22.037a.684.684,0,0,1-.2.554q-2.46,2.466-4.923,4.927a.679.679,0,0,1-.559.235q-6.238,0-12.477,0,0,2.181,0,4.363,9.6,0,19.2,0c0-1.459,0-2.92,0-4.379a.6.6,0,0,1,.609-.63c1.466-.013,2.934,0,4.4-.005q0-9.8,0-19.6c.008-.28-.045-.608.159-.835a.584.584,0,0,1,.867.013.745.745,0,0,1,.147.511q0,10.2,0,20.393a.691.691,0,0,1-.23.575q-2.288,2.283-4.57,4.57a2.392,2.392,0,0,1-.666.556H47.437a.612.612,0,0,1-.553-.63c-.009-1.636,0-3.272,0-4.907-2.2,0-4.391,0-6.587,0a.6.6,0,0,1-.645-.631c-.009-3.544,0-7.087,0-10.63a.623.623,0,0,1,.491-.7.6.6,0,0,1,.679.629c.006,3.387,0,6.774,0,10.161,6.4,0,12.8.009,19.2-.006,0-1.407,0-2.815,0-4.223a.778.778,0,0,1,.193-.622.869.869,0,0,1,.633-.165q2.1.006,4.191,0,0-13.55,0-27.1-12.109,0-24.219,0,0,9.725,0,19.452a.612.612,0,0,1-.526.678.6.6,0,0,1-.645-.676q0-9.688,0-19.377A3.984,3.984,0,0,1,39.684.4a.617.617,0,0,1,.493-.4M61.2,29.449q0,1.5,0,3.007c1.005-1,2-2.005,3.008-3.008H61.2m7.236,5.538q0,1.5,0,3.009,1.507-1.5,3.009-3.01Q69.936,34.985,68.432,34.987Z" transform="translate(0)" fill="#fff"/>
      <path id="Path_157149" data-name="Path 157149" d="M101.921,56.048A8.61,8.61,0,1,1,94.432,65.9a8.523,8.523,0,0,1,1.751-6.626.583.583,0,0,1,.957.213.694.694,0,0,1-.166.672,7.35,7.35,0,0,0-1.389,3.316,7.436,7.436,0,1,0,8.489-6.223A7.377,7.377,0,0,0,98.84,58.4a1.029,1.029,0,0,1-.551.234.583.583,0,0,1-.573-.616.6.6,0,0,1,.263-.453A8.531,8.531,0,0,1,101.921,56.048Z" transform="translate(-50.416 -51.613)" fill="#fff"/>
      <path id="Path_157150" data-name="Path 157150" d="M147.895,118.172a1.591,1.591,0,0,1,2.314,1.548,1.665,1.665,0,0,1-.544,1.081c-1.513,1.507-3.016,3.024-4.534,4.526a1.6,1.6,0,0,1-2.181.007c-.762-.744-1.509-1.505-2.266-2.255a1.656,1.656,0,0,1-.531-1.18,1.589,1.589,0,0,1,2.663-1.191c.417.392.81.809,1.222,1.208l3.138-3.138a3.043,3.043,0,0,1,.718-.605m.558,1.032a2.653,2.653,0,0,0-.448.405l-3.479,3.479a.657.657,0,0,1-.557.234.85.85,0,0,1-.492-.3c-.44-.445-.885-.885-1.326-1.33a.609.609,0,0,0-.385-.226.422.422,0,0,0-.441.435c0,.181.151.306.266.428.722.71,1.428,1.438,2.155,2.144a.437.437,0,0,0,.637-.045q2.225-2.222,4.448-4.447a.54.54,0,0,0,.212-.42A.422.422,0,0,0,148.453,119.2Z" transform="translate(-92.659 -108.777)" fill="#fff"/>
      <path id="Path_157151" data-name="Path 157151" d="M110.889,301.393a5.711,5.711,0,0,1,.741-.02q6.916,0,13.833,0a.694.694,0,0,1,.642.259.585.585,0,0,1-.207.843,1.628,1.628,0,0,1-.67.075q-7.071-.006-14.142,0a.618.618,0,0,1-.621-.357A.58.58,0,0,1,110.889,301.393Z" transform="translate(-65.245 -277.827)" fill="#fff"/>
      <path id="Path_157152" data-name="Path 157152" d="M110.81,336.775a1.209,1.209,0,0,1,.367-.045c3.283,0,6.566,0,9.849,0a.588.588,0,1,1,0,1.169q-4.969,0-9.937,0a.619.619,0,0,1-.595-.317A.584.584,0,0,1,110.81,336.775Z" transform="translate(-65.262 -310.423)" fill="#fff"/>
    </g>
  </g>
</svg>
