<svg xmlns="http://www.w3.org/2000/svg" xmlns:xlink="http://www.w3.org/1999/xlink" width="86" height="86" viewBox="0 0 86 86">
  <defs>
    <clipPath id="clip-path">
      <rect id="Rectangle_36815" data-name="Rectangle 36815" width="39.991" height="40" fill="#fff"/>
    </clipPath>
  </defs>
  <g id="Group_127990" data-name="Group 127990" transform="translate(5871.41 9469)">
    <circle id="Ellipse_6341" data-name="Ellipse 6341" cx="43" cy="43" r="43" transform="translate(-5871.41 -9469)" fill="#ff6b00"/>
    <g id="Group_126185" data-name="Group 126185" transform="translate(-5848.41 -9446)">
      <g id="Group_120476" data-name="Group 120476" clip-path="url(#clip-path)">
        <path id="Path_181579" data-name="Path 181579" d="M33.542,30.99A17.452,17.452,0,0,1,12.67,35.772l.53-1.141A16.143,16.143,0,0,0,19.319,36.1V28.386c-.478,0-.958-.011-1.437.005a.318.318,0,0,1-.373-.263c-.075-.257-.164-.511-.264-.76a.337.337,0,0,0-.511-.209c-.025.011-.05.02-.074.031-.293.133-.621.415-.869.358-.294-.069-.526-.425-.772-.669-.792-.785-1.572-1.582-2.371-2.36a.442.442,0,0,1-.116-.617c.559-1.08.548-1-.6-1.4-.1-.035-.2-.076-.321-.123V20.672h-7.7a15.076,15.076,0,0,0,.7,4.106A2.655,2.655,0,0,1,8.426,27.1c.411,0,.825-.006,1.239,0a1.923,1.923,0,0,1,1.945,1.945c.011,1.034,0,2.069,0,3.1,0,.023-.019.046-.046.11-.382,0-.782,0-1.181,0a1.29,1.29,0,1,0-.005,2.578c.4.006.8,0,1.224,0,0,1.187.054,2.342-.017,3.489A1.848,1.848,0,0,1,9.71,39.991q-3.909.018-7.819,0A1.865,1.865,0,0,1,.027,38.267c-.053-1.124-.012-2.253-.012-3.431.4,0,.785,0,1.169,0a1.294,1.294,0,1,0,0-2.579c-.374,0-.749,0-1.175,0,0-.4,0-.767,0-1.138,0-.712-.013-1.425,0-2.136A1.924,1.924,0,0,1,1.893,27.1c.428-.013.857,0,1.256,0,.131-.408.26-.783.369-1.163a.626.626,0,0,0-.006-.346A17.29,17.29,0,0,1,4.629,11.81a.772.772,0,0,0,.044-.111c0-.01-.008-.025-.027-.075H.03V5.2H3.863v5.1H5.146V2.613H9.022V10.3h1.3V.026h3.857V3.578a17.718,17.718,0,0,1,6.968-.954,17.388,17.388,0,0,1,6.631,1.794,15.068,15.068,0,0,1,1.205-2.142,5.473,5.473,0,0,1,5.865-2.1,5.466,5.466,0,0,1,4.37,4.493,5.46,5.46,0,0,1-2.2,5.758,1.986,1.986,0,0,0-.91,1.827,6.5,6.5,0,0,0,.341,2.081,16.178,16.178,0,0,1,.951,5.021c.04.038.056.065.078.072A3.249,3.249,0,0,1,39.991,22.9q0,6.168-.007,12.335a1.747,1.747,0,0,1-.167.726c-.469.98-.971,1.945-1.447,2.922a1.718,1.718,0,0,1-3.214-.017c-.479-.991-.986-1.967-1.465-2.958a1.477,1.477,0,0,1-.143-.61c-.012-1.41-.006-2.821-.006-4.311m1.838-15.806a8.926,8.926,0,0,1-1.173.289,9.8,9.8,0,0,1-1.328.01,1.931,1.931,0,0,1-1.915-1.934c-.009-.537-.014-1.074,0-1.611a1.481,1.481,0,0,0-.7-1.356A5.632,5.632,0,0,1,27.753,6.16a.479.479,0,0,0-.3-.454,14.973,14.973,0,0,0-3.92-1.42c-.939-.188-1.893-.3-2.858-.447v7.777c.247,0,.462,0,.676,0,.335,0,.75-.105.982.053s.269.582.391.89c.01.025.013.053.023.077a.347.347,0,0,0,.515.207c.231-.108.468-.206.687-.334a.365.365,0,0,1,.519.094c.788.807,1.592,1.6,2.388,2.4.237.238.614.454.664.727s-.2.634-.346.944-.048.5.275.607.621.224.949.344v1.711h7.7a15.6,15.6,0,0,0-.721-4.15m-14.714,20.9a1.52,1.52,0,0,0,.174.011,15.923,15.923,0,0,0,12.507-7.074,1.166,1.166,0,0,0,.186-.629c.014-1.907.011-3.815.007-5.723a3.293,3.293,0,0,1,.484-1.762,2.392,2.392,0,0,0,.111-.235H28.378v1.714c-.325.119-.622.242-.93.337-.338.1-.42.3-.266.607.1.193.172.4.284.578a.4.4,0,0,1-.093.587c-.811.785-1.6,1.591-2.4,2.387-.237.236-.458.6-.734.653s-.607-.213-.907-.354-.5-.069-.611.266c-.1.315-.225.622-.347.953H20.665Zm-9.051-16.75c0-.2,0-.387,0-.571.005-.375-.108-.822.058-1.1.138-.234.6-.276.927-.4a.359.359,0,0,0,.223-.568,4.82,4.82,0,0,0-.231-.469.552.552,0,0,1,.125-.818c.783-.735,1.526-1.513,2.289-2.27.247-.245.477-.613.767-.675.265-.056.6.22.906.361s.483.066.589-.245.226-.628.352-.978h1.71V3.9a16.255,16.255,0,0,0-4.821.939.4.4,0,0,0-.32.456c.011,1.962.006,3.923.006,5.885v.439h-.5c-2.364,0-4.729.005-7.093-.007a.556.556,0,0,0-.562.33,14.945,14.945,0,0,0-1.674,4.21c-.225,1.041-.361,2.1-.543,3.188ZM1.3,36.146c0,.6,0,1.177,0,1.753s.228.8.806.806q1.833,0,3.667,0c1.263,0,2.526,0,3.789,0,.383,0,.71-.142.739-.529.05-.677.014-1.36.014-2.035a2.638,2.638,0,0,1-2.558-2.383A2.53,2.53,0,0,1,8.2,32.084,2.657,2.657,0,0,1,10.3,30.947a.8.8,0,0,0,.025-.115c0-.524,0-1.048,0-1.572,0-.663-.207-.871-.86-.873-.775,0-1.551,0-2.365,0,0-.438.005-.838,0-1.238a1.29,1.29,0,1,0-2.577,0c-.006.4,0,.8,0,1.238H4.091c-.7,0-1.4-.006-2.1,0a.617.617,0,0,0-.689.588c-.023.654-.007,1.311-.007,1.961a2.6,2.6,0,0,1,0,5.209M23.955,26.095c.6-.608,1.151-1.2,1.741-1.743.293-.27.4-.5.145-.838a.642.642,0,0,1,0-.811.979.979,0,0,0,.141-.331.969.969,0,0,1,.824-.8.462.462,0,0,0,.275-.34c.025-.818.021-1.638,0-2.457a.4.4,0,0,0-.206-.31,1.28,1.28,0,0,1-.958-.939,1.2,1.2,0,0,1,.019-1.262.389.389,0,0,0-.032-.37c-.63-.658-1.279-1.3-1.955-1.977a1.332,1.332,0,0,1-1.62.11,1.165,1.165,0,0,1-.761-.821.467.467,0,0,0-.334-.285c-.832-.025-1.665-.02-2.5,0-.1,0-.265.115-.277.2-.09.6-.519.782-1.007.994a1.093,1.093,0,0,1-1.152-.023.432.432,0,0,0-.406,0c-.661.628-1.3,1.279-1.951,1.927a1.245,1.245,0,0,0,.1.238,1.138,1.138,0,0,1,.039,1.256c-.211.465-.4.845-.946.953-.1.019-.22.217-.223.334-.02.792,0,1.585-.017,2.377a.371.371,0,0,0,.31.426c.211.065.53.13.59.28.252.633.8,1.263.193,1.987-.022.026-.019.075-.034.142.535.531,1.079,1.069,1.62,1.609.448.446.462.475,1.022.167.438-.241.692.147,1.037.213a.87.87,0,0,1,.773.789c.037.259.2.327.453.321.738-.018,1.478-.023,2.215,0,.307.01.477-.075.534-.381a.941.941,0,0,1,.651-.712,1.372,1.372,0,0,1,1.694.084M32.9,11.6c0-1.281.007-2.515-.011-3.75a.514.514,0,0,0-.248-.337,1.93,1.93,0,1,1,2.705-2.395,1.881,1.881,0,0,1-.853,2.354.5.5,0,0,0-.309.522c.015,1.021.006,2.042.006,3.063V11.6h.646a3.04,3.04,0,0,1,1.43-2.215A4.241,4.241,0,0,0,37.95,4.9a4.5,4.5,0,0,0-7.778-2.073,4.467,4.467,0,0,0,.758,6.655,2.8,2.8,0,0,1,1.147,1.357c.085.249.135.509.2.763Zm3.2,12.934H34.853V34.818h1.239ZM37.439,34.8h1.242V24.535H37.439Zm-25.8-24.5h1.239V1.314H11.643Zm27.037,12.9a2.1,2.1,0,0,0-1.022-2.335,1.814,1.814,0,0,0-2.1.21,2.117,2.117,0,0,0-.69,2.125ZM7.722,3.9H6.485v6.4H7.722ZM2.551,6.483H1.325v3.834H2.551Zm32.69,29.662c.4.8.767,1.568,1.169,2.318.183.342.558.3.753-.062.246-.46.471-.931.7-1.4.137-.277.27-.557.416-.858ZM32.252,12.927c0,.164,0,.308,0,.451.005.6.226.814.83.817.361,0,.723.01,1.083,0a.638.638,0,0,0,.662-.658c.011-.2,0-.394,0-.607Zm1.275-6.474A.642.642,0,1,0,32.9,5.8a.65.65,0,0,0,.627.656" transform="translate(0 0)" fill="#fff"/>
        <path id="Path_181580" data-name="Path 181580" d="M38.411,56.631l-.182-1.27a13.709,13.709,0,0,0,8.061-4.187l.946.874a14.936,14.936,0,0,1-8.825,4.583" transform="translate(-16.384 -21.932)" fill="#fff"/>
        <path id="Path_181581" data-name="Path 181581" d="M55.177,48.857,54.139,48.1l.8-1.233,1.112.645-.878,1.349" transform="translate(-23.202 -20.084)" fill="#fff"/>
        <path id="Path_181582" data-name="Path 181582" d="M31.145,25.972A5.16,5.16,0,1,1,25.969,31.1a5.174,5.174,0,0,1,5.176-5.131M27.26,31.115a3.868,3.868,0,1,0,3.883-3.852,3.879,3.879,0,0,0-3.883,3.852" transform="translate(-11.13 -11.131)" fill="#fff"/>
      </g>
    </g>
  </g>
</svg>
