<svg xmlns="http://www.w3.org/2000/svg" width="86" height="86" viewBox="0 0 86 86">
  <g id="Group_127987" data-name="Group 127987" transform="translate(-353 -2231)">
    <circle id="Ellipse_6338" data-name="Ellipse 6338" cx="43" cy="43" r="43" transform="translate(353 2231)" fill="#ff6b00"/>
    <g id="_000000ff" data-name="#000000ff" transform="translate(376 2254)">
      <path id="Path_157153" data-name="Path 157153" d="M10.58,0h.377a8.787,8.787,0,0,1,4.4,1.051,3.828,3.828,0,0,1,1.052.966,3.937,3.937,0,0,1,3,1.939A5.474,5.474,0,0,1,20,6.716c0,2.009.005,4.017,0,6.026a2.7,2.7,0,0,1-2.02,2.518A7.377,7.377,0,0,1,13.334,21.5c0,.278,0,.555,0,.834.753.55,1.48,1.141,2.249,1.667A6.6,6.6,0,0,1,20,26.107c0-1.855-.009-3.709.006-5.564A2.672,2.672,0,0,1,22.588,18c4.735-.008,9.47,0,14.205,0a3.637,3.637,0,0,1,1.566.206A2.718,2.718,0,0,1,40,20.451V37.519A2.691,2.691,0,0,1,37.459,40H22.548a2.69,2.69,0,0,1-2.473-2.045A8.353,8.353,0,0,1,20,36.3a2.856,2.856,0,0,1-1.4.365q-7.813,0-15.627,0A3.029,3.029,0,0,1,1.5,36.394,2.72,2.72,0,0,1,0,34.209v-5a5.119,5.119,0,0,1,.663-2.225A5.981,5.981,0,0,1,2.9,24.857,6.882,6.882,0,0,1,5.751,24c.77-.525,1.5-1.114,2.25-1.668,0-.28,0-.56,0-.84a7.356,7.356,0,0,1-4.644-6.233,2.7,2.7,0,0,1-2.019-2.52c-.008-2.033,0-4.066,0-6.1a5.294,5.294,0,0,1,.641-2.787A3.987,3.987,0,0,1,4.921,2.017,3.805,3.805,0,0,1,6.12.959,9.272,9.272,0,0,1,10.58,0M7.388,1.835a3.256,3.256,0,0,0-1.241.8c-.179.191-.246.48-.488.609a1.079,1.079,0,0,1-.5.1A2.6,2.6,0,0,0,3.094,4.578a3.718,3.718,0,0,0-.418,1.747c-.02.82,0,1.639-.009,2.459a2.047,2.047,0,0,1,1.663.144,5.234,5.234,0,0,1,3.319-2.9.967.967,0,0,1,1.008.393,2.376,2.376,0,0,0,1.973.915,2.414,2.414,0,0,0,1.744-.588c.267-.223.43-.582.784-.691a1.491,1.491,0,0,1,1.088.165A5.271,5.271,0,0,1,17,8.926a2.047,2.047,0,0,1,1.663-.141q0-.955,0-1.911a5,5,0,0,0-.324-2.09A2.564,2.564,0,0,0,16.25,3.347a1.174,1.174,0,0,1-.625-.131,1.117,1.117,0,0,1-.305-.406,1.857,1.857,0,0,0-.648-.612,5.416,5.416,0,0,0-1.885-.684A12.628,12.628,0,0,0,10,1.351a8.42,8.42,0,0,0-2.616.484M5.4,9.995c-.105.363.027.8-.232,1.106a.67.67,0,0,1-1.02-.015c-.209-.23-.091-.586-.286-.821a.666.666,0,0,0-1.2.437c0,.68-.007,1.361,0,2.041A1.341,1.341,0,0,0,3.995,14a.669.669,0,0,1,.67.677,6,6,0,0,0,12,0,.663.663,0,0,1,.469-.646,2.976,2.976,0,0,0,.732-.146,1.331,1.331,0,0,0,.792-1.144c.014-.6,0-1.2.006-1.805a.978.978,0,0,0-.157-.7.671.671,0,0,0-1.016-.009c-.237.248-.088.658-.348.895a.669.669,0,0,1-1.116-.269,7.1,7.1,0,0,0-.155-1.09,3.8,3.8,0,0,0-2.269-2.36,3.8,3.8,0,0,1-2.9,1.261A3.813,3.813,0,0,1,7.731,7.408,3.729,3.729,0,0,0,5.4,9.995m17.063,9.355a1.338,1.338,0,0,0-1.131,1.344q0,8.329,0,16.659a1.335,1.335,0,0,0,1.316,1.313q7.153.007,14.307,0a2.1,2.1,0,0,0,.907-.112,1.346,1.346,0,0,0,.8-1.286q0-8.087,0-16.174a2.428,2.428,0,0,0-.094-.916,1.333,1.333,0,0,0-1.22-.843q-5.2-.007-10.395,0c-1.5.01-3-.022-4.494.016M9.333,21.877c0,.171,0,.343,0,.514.443.445.888.888,1.331,1.333q.668-.664,1.335-1.331,0-.258,0-.516a7.467,7.467,0,0,1-2.668,0M6.907,24.82c.378.557.754,1.117,1.133,1.673q.851-.9,1.7-1.814-.565-.568-1.133-1.133l-1.7,1.273m4.688-.139c.566.6,1.13,1.21,1.7,1.812q.567-.834,1.13-1.673-.846-.639-1.7-1.272-.567.565-1.133,1.133M2.708,26.616a3.693,3.693,0,0,0-1.375,2.916c0,1.512-.006,3.023,0,4.534a1.333,1.333,0,0,0,1.321,1.264q2.878.006,5.756,0a13.274,13.274,0,0,1-1.757-2.54A13,13,0,0,1,5.217,25.4a5.393,5.393,0,0,0-2.509,1.213m13.406-1.21a13.314,13.314,0,0,1-.3,4.322,13.186,13.186,0,0,1-2.9,5.6c1.788,0,3.577,0,5.366,0a2.156,2.156,0,0,0,.912-.112,1.338,1.338,0,0,0,.8-1.237q0-2.269,0-4.536a3.7,3.7,0,0,0-.83-2.292,5.375,5.375,0,0,0-3.056-1.752M9.234,27.17l.481.83q.95,0,1.9,0c.16-.277.322-.552.482-.829-.476-.511-.955-1.017-1.43-1.529-.48.508-.956,1.019-1.434,1.528m-2.728-.56a11.955,11.955,0,0,0,1.769,6.3c.127-1.363.249-2.725.374-4.088-.159-.275-.319-.549-.478-.823a1.063,1.063,0,0,1-.963-.359c-.246-.333-.464-.686-.7-1.025m7.616,1.028a1.068,1.068,0,0,1-.962.356l-.478.824q.189,2.054.377,4.109a11.773,11.773,0,0,0,1.78-6.336c-.244.345-.465.707-.717,1.046m-4.179,1.7c-.155,1.724-.326,3.448-.466,5.173.33.325.618.82,1.145.809.548.009.909-.444,1.243-.81q-.236-2.586-.473-5.172Z" fill="#fff"/>
      <path id="Path_157154" data-name="Path 157154" d="M94.3,204.832a.671.671,0,0,1,.79.239,2.71,2.71,0,0,0,1.3.916,2.672,2.672,0,0,0,2.9-.87.7.7,0,0,1,.825-.288.666.666,0,0,1,.32.984,3.991,3.991,0,0,1-6.448-.007A.665.665,0,0,1,94.3,204.832Z" transform="translate(-86.541 -188.785)" fill="#fff"/>
      <path id="Path_157155" data-name="Path 157155" d="M301.632,273.375a.664.664,0,0,1,.921.022.672.672,0,0,1-.022.958q-.976.98-1.955,1.955a.665.665,0,0,1-.911.055c-.231-.211-.445-.441-.668-.659a.677.677,0,0,1-.217-.649.669.669,0,0,1,.773-.513,1.068,1.068,0,0,1,.538.367C300.607,274.4,301.113,273.88,301.632,273.375Z" transform="translate(-275.422 -251.856)" fill="#fff"/>
      <path id="Path_157156" data-name="Path 157156" d="M367.411,290.135a1.907,1.907,0,0,1,.372-.025c2.163.007,4.327-.005,6.491.006a.664.664,0,0,1,.63.767.677.677,0,0,1-.717.561q-3.284,0-6.568,0a.666.666,0,0,1-.208-1.309Z" transform="translate(-338.247 -267.445)" fill="#fff"/>
      <path id="Path_157157" data-name="Path 157157" d="M301.633,324.572a.665.665,0,0,1,.9.974q-.975.982-1.955,1.956a.672.672,0,0,1-.838.123,6.119,6.119,0,0,1-.562-.531c-.172-.175-.391-.347-.414-.61a.669.669,0,0,1,.712-.749.985.985,0,0,1,.609.376C300.606,325.6,301.112,325.078,301.633,324.572Z" transform="translate(-275.419 -299.057)" fill="#fff"/>
      <path id="Path_157158" data-name="Path 157158" d="M367.418,341.313c2.253-.05,4.512-.008,6.766-.021a.669.669,0,1,1-.01,1.333q-3.277,0-6.553,0a.672.672,0,0,1-.691-.825A.662.662,0,0,1,367.418,341.313Z" transform="translate(-338.243 -314.624)" fill="#fff"/>
      <path id="Path_157159" data-name="Path 157159" d="M301.657,375.76a.664.664,0,0,1,1.044.25.708.708,0,0,1-.227.809c-.641.634-1.272,1.278-1.915,1.909a.66.66,0,0,1-.863.056c-.226-.191-.42-.416-.634-.619a.759.759,0,0,1-.293-.582.67.67,0,0,1,.721-.651.98.98,0,0,1,.605.377C300.62,376.8,301.127,376.266,301.657,375.76Z" transform="translate(-275.428 -346.255)" fill="#fff"/>
      <path id="Path_157160" data-name="Path 157160" d="M367.344,392.562a1.272,1.272,0,0,1,.458-.052c2.159.006,4.317,0,6.475.005a.664.664,0,0,1,.647.741.677.677,0,0,1-.716.587q-3.287,0-6.573,0a.667.667,0,0,1-.291-1.282Z" transform="translate(-338.263 -361.845)" fill="#fff"/>
      <path id="Path_157161" data-name="Path 157161" d="M301.57,427a.683.683,0,0,1,.649-.219.67.67,0,0,1,.523.706.761.761,0,0,1-.267.495c-.642.636-1.276,1.28-1.92,1.913a.66.66,0,0,1-.873.053c-.2-.167-.366-.366-.555-.542a.916.916,0,0,1-.361-.585.669.669,0,0,1,.724-.717.984.984,0,0,1,.6.376Q300.832,427.74,301.57,427Z" transform="translate(-275.421 -393.423)" fill="#fff"/>
      <path id="Path_157162" data-name="Path 157162" d="M367.345,443.762a1.273,1.273,0,0,1,.452-.052c2.161.007,4.322,0,6.482.005a.665.665,0,0,1,.636.8.678.678,0,0,1-.705.531q-3.287,0-6.575,0a.675.675,0,0,1-.688-.53A.666.666,0,0,1,367.345,443.762Z" transform="translate(-338.264 -409.045)" fill="#fff"/>
    </g>
  </g>
</svg>
