<svg xmlns="http://www.w3.org/2000/svg" width="370" height="260.696" viewBox="0 0 370 260.696">
  <g id="Group_127998" data-name="Group 127998" transform="translate(4103.141 1869.834)">
    <g id="Group_126914" data-name="Group 126914" transform="translate(-4283.141 -2380.834)">
      <g id="Group_117226" data-name="Group 117226" transform="translate(180 511)">
        <g id="freepik--Table--inject-2" transform="translate(0 260.274)">
          <path id="Path_178450" data-name="Path 178450" d="M2896.788-3099.377c0,.113-89.991.2-184.624.2s-185.376-.083-185.376-.2,90.712-.2,185.376-.2S2896.788-3099.482,2896.788-3099.377Z" transform="translate(-2526.788 3099.573)" fill="#263238"/>
        </g>
        <g id="freepik--Books--inject-2" transform="translate(263.987 201.318)">
          <rect id="Rectangle_36618" data-name="Rectangle 36618" width="14.387" height="27.251" transform="translate(2.08 30.356)" fill="#f5f5f5"/>
          <rect id="Rectangle_36619" data-name="Rectangle 36619" width="67.518" height="29.55" transform="translate(16.474 29.399)" fill="#ff6b00"/>
          <rect id="Rectangle_36620" data-name="Rectangle 36620" width="42.166" height="13.182" transform="translate(29.15 37.583)" fill="#c45200"/>
          <path id="Path_178451" data-name="Path 178451" d="M2886.117-3100.279h15.458v-1.914h-15.458a.908.908,0,0,0-.86.95v.007h0a.909.909,0,0,0,.854.957Z" transform="translate(-2885.257 3159.22)" fill="#c45200"/>
          <path id="Path_178452" data-name="Path 178452" d="M2901.6-3137.795h-15.592a.788.788,0,0,1-.74-.829h0v-.255a.788.788,0,0,1,.74-.829H2901.6v1.914Z" transform="translate(-2885.26 3169.108)" fill="#c45200"/>
          <path id="Path_178453" data-name="Path 178453" d="M2888.091-3133.5c0,.046,3.218.083,7.189.083s7.19-.037,7.19-.083-3.218-.083-7.19-.083S2888.091-3133.5,2888.091-3133.5Z" transform="translate(-2886.004 3167.492)" fill="#e0e0e0"/>
          <path id="Path_178454" data-name="Path 178454" d="M2888.091-3128.738c0,.045,3.218.083,7.189.083s7.19-.038,7.19-.083-3.218-.083-7.19-.083S2888.091-3128.783,2888.091-3128.738Z" transform="translate(-2886.004 3166.238)" fill="#e0e0e0"/>
          <path id="Path_178455" data-name="Path 178455" d="M2888.091-3123.989c0,.046,3.218.083,7.189.083s7.19,0,7.19-.083-3.218-.083-7.19-.083S2888.091-3124.035,2888.091-3123.989Z" transform="translate(-2886.004 3164.987)" fill="#e0e0e0"/>
          <path id="Path_178456" data-name="Path 178456" d="M2888.091-3119.241c0,.045,3.218.083,7.189.083s7.19-.037,7.19-.083-3.218-.083-7.19-.083S2888.091-3119.287,2888.091-3119.241Z" transform="translate(-2886.004 3163.735)" fill="#e0e0e0"/>
          <path id="Path_178457" data-name="Path 178457" d="M2888.091-3114.492c0,.044,3.218.075,7.189.075s7.19,0,7.19-.075-3.218-.083-7.19-.083S2888.091-3114.545,2888.091-3114.492Z" transform="translate(-2886.004 3162.483)" fill="#e0e0e0"/>
          <path id="Path_178458" data-name="Path 178458" d="M2888.091-3109.754c0,.046,3.218.083,7.189.083s7.19-.038,7.19-.083-3.218-.083-7.19-.083S2888.091-3109.8,2888.091-3109.754Z" transform="translate(-2886.004 3161.235)" fill="#e0e0e0"/>
          <path id="Path_178459" data-name="Path 178459" d="M2888.091-3105.006c0,.045,3.218.083,7.189.083s7.19-.038,7.19-.083-3.218-.083-7.19-.083S2888.091-3105.051,2888.091-3105.006Z" transform="translate(-2886.004 3159.983)" fill="#e0e0e0"/>
          <rect id="Rectangle_36621" data-name="Rectangle 36621" width="13.882" height="16.497" transform="translate(66.025 1.07)" fill="#f5f5f5"/>
          <rect id="Rectangle_36622" data-name="Rectangle 36622" width="62.725" height="18.615" transform="translate(3.783)" fill="#ffb600"/>
          <path id="Path_178460" data-name="Path 178460" d="M2988.788-3178.029h-15.5v-1.56h15.5a.754.754,0,0,1,.754.754h0a.754.754,0,0,1-.7.8Z" transform="translate(-2908.459 3179.62)" fill="#ffb600"/>
          <path id="Path_178461" data-name="Path 178461" d="M2988.788-3154.922h-15.5v-1.56h15.5a.753.753,0,0,1,.754.753h0a.755.755,0,0,1-.7.805Z" transform="translate(-2908.459 3173.529)" fill="#ffb600"/>
          <g id="Group_117216" data-name="Group 117216" transform="translate(54.163)" opacity="0.4">
            <rect id="Rectangle_36623" data-name="Rectangle 36623" width="7.408" height="18.615"/>
          </g>
          <g id="Group_117217" data-name="Group 117217" transform="translate(9.345)" opacity="0.4">
            <rect id="Rectangle_36624" data-name="Rectangle 36624" width="7.408" height="18.615"/>
          </g>
          <path id="Path_178462" data-name="Path 178462" d="M2988.962-3174.492c0,.045-3.014.075-6.707.075s-6.707,0-6.707-.075,3.014-.083,6.707-.083S2988.962-3174.545,2988.962-3174.492Z" transform="translate(-2909.055 3178.298)" fill="#e0e0e0"/>
          <path id="Path_178463" data-name="Path 178463" d="M2988.962-3171.136c0,.046-3.014.083-6.707.083s-6.707-.038-6.707-.083,3.014-.082,6.707-.082S2988.962-3171.18,2988.962-3171.136Z" transform="translate(-2909.055 3177.413)" fill="#e0e0e0"/>
          <path id="Path_178464" data-name="Path 178464" d="M2988.962-3167c0,.045-3.014.082-6.707.082s-6.707-.038-6.707-.082,3.014-.083,6.707-.083S2988.962-3167.046,2988.962-3167Z" transform="translate(-2909.055 3176.324)" fill="#e0e0e0"/>
          <path id="Path_178465" data-name="Path 178465" d="M2988.962-3162.867c0,.045-3.014.083-6.707.083s-6.707-.038-6.707-.083,3.014-.083,6.707-.083S2988.962-3162.912,2988.962-3162.867Z" transform="translate(-2909.055 3175.234)" fill="#e0e0e0"/>
          <path id="Path_178466" data-name="Path 178466" d="M2988.962-3158.721c0,.045-3.014.083-6.707.083s-6.707,0-6.707-.083,3.014-.083,6.707-.083S2988.962-3158.767,2988.962-3158.721Z" transform="translate(-2909.055 3174.141)" fill="#e0e0e0"/>
          <g id="Group_117218" data-name="Group 117218" transform="translate(21.961 7.649)" opacity="0.2">
            <rect id="Rectangle_36625" data-name="Rectangle 36625" width="28.216" height="3.354"/>
          </g>
          <rect id="Rectangle_36626" data-name="Rectangle 36626" width="14.093" height="10.053" transform="translate(65.671 18.976)" fill="#fafafa"/>
          <rect id="Rectangle_36627" data-name="Rectangle 36627" width="59.974" height="10.784" transform="translate(5.863 18.607)" fill="#263238"/>
          <path id="Path_178467" data-name="Path 178467" d="M2974.053-3153.633H2989.2a.361.361,0,0,0,.369-.354v-.007h0a.369.369,0,0,0-.369-.37h-15.148Z" transform="translate(-2908.661 3172.971)" fill="#263238"/>
          <path id="Path_178468" data-name="Path 178468" d="M2974.053-3140.71h15.193a.317.317,0,0,1,.317.317h0v.1a.317.317,0,0,1-.317.317h-15.193v-.731Z" transform="translate(-2908.661 3169.378)" fill="#263238"/>
          <path id="Path_178469" data-name="Path 178469" d="M2988.582-3151.3c0,.045-3.12.083-6.963.083s-6.971,0-6.971-.083,3.121-.083,6.971-.083S2988.582-3151.348,2988.582-3151.3Z" transform="translate(-2908.817 3172.186)" fill="#e0e0e0"/>
          <path id="Path_178470" data-name="Path 178470" d="M2988.582-3148.714c0,.045-3.12.083-6.963.083s-6.971-.038-6.971-.083,3.121-.083,6.971-.083S2988.582-3148.759,2988.582-3148.714Z" transform="translate(-2908.817 3171.504)" fill="#e0e0e0"/>
          <path id="Path_178471" data-name="Path 178471" d="M2988.582-3146.135c0,.045-3.12.083-6.963.083s-6.971-.038-6.971-.083,3.121-.083,6.971-.083S2988.582-3146.18,2988.582-3146.135Z" transform="translate(-2908.817 3170.824)" fill="#e0e0e0"/>
          <path id="Path_178472" data-name="Path 178472" d="M2988.582-3143.553c0,.052-3.12.082-6.963.082s-6.971,0-6.971-.082,3.121-.076,6.971-.076S2988.582-3143.6,2988.582-3143.553Z" transform="translate(-2908.817 3170.141)" fill="#e0e0e0"/>
        </g>
        <path id="Path_178473" data-name="Path 178473" d="M2941.188-3322.9v20.7h0a7.069,7.069,0,0,1-7.069,7.069h-45.572c-1.432,3-4.906,7.333-12.736,8.592a16.129,16.129,0,0,0,3.58-8.592h-8.448a7.069,7.069,0,0,1-7.069-7.069v-20.68h0a7.069,7.069,0,0,1,7.069-7.069h63.177A7.069,7.069,0,0,1,2941.188-3322.9Z" transform="translate(-2615.634 3420.568)" fill="#fafafa"/>
        <path id="Path_178474" data-name="Path 178474" d="M2934.53-3329.6a5.824,5.824,0,0,1,1.274.173,7.1,7.1,0,0,1,5.388,6.029,18.638,18.638,0,0,1,.06,2.073v19.014a7.579,7.579,0,0,1-.595,3.286,7.361,7.361,0,0,1-2.125,2.766,7.12,7.12,0,0,1-3.308,1.462,10.265,10.265,0,0,1-1.854.106h-44.886l.173-.106a14.815,14.815,0,0,1-5.23,5.871,18.091,18.091,0,0,1-3.647,1.817,25.761,25.761,0,0,1-4,1.017l-.513.091.331-.415a15.6,15.6,0,0,0,3.535-8.479l.2.211h-6.172c-.98,0-1.929.06-2.931,0a7.265,7.265,0,0,1-6.354-5.351,9.912,9.912,0,0,1-.249-2.849v-19.059a7.535,7.535,0,0,1,1.447-4.981,7.2,7.2,0,0,1,4.266-2.752,11.382,11.382,0,0,1,2.5-.166H2900.6l24.478.06h0l-24.478.068H2871.9a10.875,10.875,0,0,0-2.427.166,6.883,6.883,0,0,0-4.055,2.615,7.176,7.176,0,0,0-1.364,4.771v19.06a9.794,9.794,0,0,0,.241,2.75,6.858,6.858,0,0,0,6.029,5.057h9.277v.211a14.029,14.029,0,0,1-1.19,4.7,17.288,17.288,0,0,1-2.442,4l-.173-.317a23.764,23.764,0,0,0,3.926-1,17.112,17.112,0,0,0,3.572-1.771,14.419,14.419,0,0,0,5.095-5.712l.052-.105h45.015a10.165,10.165,0,0,0,1.809-.1,6.931,6.931,0,0,0,5.215-4.039,7.4,7.4,0,0,0,.588-3.181v-19.014c0-.716.015-1.409-.046-2.057a7.026,7.026,0,0,0-5.275-6.03,11.554,11.554,0,0,0-1.7-.248Z" transform="translate(-2615.562 3420.568)" fill="#263238"/>
        <path id="Path_178475" data-name="Path 178475" d="M2853.626-3452.754H2809.69a11.244,11.244,0,0,0-11.245,11.244v19.859a11.237,11.237,0,0,0,11.237,11.237h28.336c0,5.742-4.054,10.377-4.054,10.377,9.45-1.507,13.211-7.009,14.657-10.377h5.042a11.236,11.236,0,0,0,11.244-11.229v-19.9a11.244,11.244,0,0,0-11.281-11.206Z" transform="translate(-2598.389 3452.935)" fill="#fafafa"/>
        <path id="Path_178476" data-name="Path 178476" d="M2853.561-3452.819a2.672,2.672,0,0,1,.287,0h.836a11.647,11.647,0,0,1,3.166.753,11.305,11.305,0,0,1,7.009,9.466c0,.332.038.67.052,1.01v18.019c0,.913,0,1.839-.045,2.8a13.385,13.385,0,0,1-.211,1.432,10.2,10.2,0,0,1-.407,1.4,11.35,11.35,0,0,1-9.172,7.476,22.57,22.57,0,0,1-3.27.121h-3.3l.158-.105a16.474,16.474,0,0,1-5.788,7.031,20.032,20.032,0,0,1-4.258,2.224,27.723,27.723,0,0,1-4.74,1.236l-.5.091.324-.4a19.587,19.587,0,0,0,2.8-4.7,14.951,14.951,0,0,0,1.2-5.554l.2.2h-28.276a7.208,7.208,0,0,1-1.394-.091,11.436,11.436,0,0,1-5.125-1.952,11.81,11.81,0,0,1-3.587-4.039,11.667,11.667,0,0,1-1.319-5.147v-19.957a11.3,11.3,0,0,1,.965-4.635,11.481,11.481,0,0,1,6.436-6.1,11.956,11.956,0,0,1,4.235-.754h11.839l23.363.06h8.554l-.565.121h-7.989l-23.363.061h-11.839a11.454,11.454,0,0,0-4.122.753,11.119,11.119,0,0,0-6.2,5.969c-1.342,2.8-.814,6.082-.92,9.315s0,6.594,0,10v5.17a11.226,11.226,0,0,0,1.273,4.966,11.4,11.4,0,0,0,3.467,3.9,11.2,11.2,0,0,0,4.951,1.884c.445.06.9.052,1.349.09h28.488v.2a15.276,15.276,0,0,1-1.229,5.69,20,20,0,0,1-2.871,4.808l-.173-.309a28.325,28.325,0,0,0,4.673-1.213,19.448,19.448,0,0,0,4.175-2.178,16.175,16.175,0,0,0,5.682-6.873l.045-.106h3.437a25.135,25.135,0,0,0,3.225-.113,11.048,11.048,0,0,0,8.931-7.243,11.032,11.032,0,0,0,.4-1.371c.083-.459.165-.927.211-1.386.068-.927.045-1.862.053-2.773v-18.012l-.045-.995a11.215,11.215,0,0,0-6.85-9.376A12.357,12.357,0,0,0,2853.561-3452.819Z" transform="translate(-2598.324 3453)" fill="#263238"/>
        <g id="Group_117219" data-name="Group 117219" transform="translate(61.282 120.793)">
          <path id="Path_178477" data-name="Path 178477" d="M2657.193-3288.892a6.738,6.738,0,0,1,6.737,6.737v16.972a6.729,6.729,0,0,1-6.737,6.722h-3.249a16.639,16.639,0,0,0,3.489,7.536c-6.926-1.153-10.415-4.658-12.148-7.536h-28.352a6.73,6.73,0,0,1-6.73-6.729v-16.965h0a6.737,6.737,0,0,1,6.738-6.737Z" transform="translate(-2610.056 3288.953)" fill="#fafafa"/>
          <path id="Path_178478" data-name="Path 178478" d="M2657.871-3288.816a6.885,6.885,0,0,1,2.132.58,6.783,6.783,0,0,1,2.721,2.261,6.988,6.988,0,0,1,.965,2.065,8.589,8.589,0,0,1,.256,2.563c.037,3.617.037,8.011.037,13.045v1.921a19.956,19.956,0,0,1-.045,2,6.776,6.776,0,0,1-1.688,3.768,6.9,6.9,0,0,1-3.768,2.193,10.987,10.987,0,0,1-2.261.135h-2.306l.166-.2a16.2,16.2,0,0,0,3.436,7.506l.294.369-.459-.075a20.362,20.362,0,0,1-6.836-2.321,14.956,14.956,0,0,1-5.441-5.276l.159.1h-27.681a9.033,9.033,0,0,1-2.193-.18,6.935,6.935,0,0,1-5.336-6.187c-.038-5.607,0-10.958,0-16.082,0-.648-.045-1.267,0-1.922a6.414,6.414,0,0,1,.407-1.884,6.9,6.9,0,0,1,5.516-4.462,11.8,11.8,0,0,1,1.771-.068h14.35l18.343.061,4.989.037h0l-5.012.1-18.343.061h-14.387a13.055,13.055,0,0,0-1.725.076,6.555,6.555,0,0,0-5.231,4.25,9.639,9.639,0,0,0-.4,3.686c.038,5.109-.022,10.512.038,16.052a6.527,6.527,0,0,0,5.042,5.833,8.451,8.451,0,0,0,2.1.173h27.831l.053.091a14.7,14.7,0,0,0,5.275,5.132,19.89,19.89,0,0,0,6.715,2.261l-.166.294a16.491,16.491,0,0,1-3.5-7.589v-.2h2.5a11.883,11.883,0,0,0,2.216-.128,6.6,6.6,0,0,0,5.276-5.705c.052-.648.052-1.311.052-1.96v-1.921c.037-5.034.037-9.428.037-13.045a8.4,8.4,0,0,0-.226-2.517,6.84,6.84,0,0,0-.919-2.027,6.774,6.774,0,0,0-2.645-2.261,7.771,7.771,0,0,0-2.848-.7A3.291,3.291,0,0,1,2657.871-3288.816Z" transform="translate(-2610.003 3288.975)" fill="#263238"/>
        </g>
        <path id="Path_178479" data-name="Path 178479" d="M2657.718-3423.65h-66.757a12.978,12.978,0,0,0-12.978,12.977h0v21.253a12.985,12.985,0,0,0,12.978,12.985H2647c1.2,3.558,5.162,11.305,17.439,13.294,0,0-5.4-6.187-4.6-13.482a12.978,12.978,0,0,0,10.86-12.812v-21.252A12.978,12.978,0,0,0,2657.718-3423.65Z" transform="translate(-2540.281 3445.264)" fill="#fafafa"/>
        <path id="Path_178480" data-name="Path 178480" d="M2657.642-3423.705h1.085a12.364,12.364,0,0,1,3.1.618,12.685,12.685,0,0,1,4.431,2.54l.572.52c.189.188.362.392.55.6a14.539,14.539,0,0,1,1.055,1.318,14.129,14.129,0,0,1,1.643,3.323,14.444,14.444,0,0,1,.648,4.085v20.423a18.1,18.1,0,0,1-.189,2.977,13.193,13.193,0,0,1-4.71,8.011,14.046,14.046,0,0,1-2.826,1.741,14.443,14.443,0,0,1-3.256.995l.135-.143c-.452,4.582,1.44,9.458,4.575,13.354l.286.361-.445-.075a25.515,25.515,0,0,1-10.468-4.032,19.614,19.614,0,0,1-4.266-4.062,18.854,18.854,0,0,1-2.848-5.321l.173.128h-54.435a23.023,23.023,0,0,1-3.594-.174,13.139,13.139,0,0,1-6.474-2.879,14.219,14.219,0,0,1-2.375-2.615,13.24,13.24,0,0,1-1.574-3.127,14.029,14.029,0,0,1-.475-1.673,15.081,15.081,0,0,1-.218-1.726c-.091-1.161,0-2.261-.045-3.414v-16.467c0-1.063,0-2.125.045-3.2a12.761,12.761,0,0,1,1.922-5.976,12.749,12.749,0,0,1,4.318-4.311,13,13,0,0,1,5.629-1.884c.988-.068,1.953-.068,2.909-.06h23.732l30.265.06h8.223l-8.223.038-30.265.06h-23.7c-.956,0-1.921,0-2.871.068a12.675,12.675,0,0,0-5.486,1.847,13.324,13.324,0,0,0-2.344,1.831,13.6,13.6,0,0,0-1.861,2.374,12.431,12.431,0,0,0-1.854,5.811c-.075,1.032,0,2.11-.045,3.181v16.648c0,2.261-.113,4.521.753,6.685a12.9,12.9,0,0,0,1.508,3.014,13.384,13.384,0,0,0,2.306,2.54,12.654,12.654,0,0,0,6.255,2.834,21.151,21.151,0,0,0,3.535.173h54.608l.046.128a18.592,18.592,0,0,0,2.781,5.207,19.4,19.4,0,0,0,4.183,3.994,25.1,25.1,0,0,0,10.317,3.987l-.158.278a22.163,22.163,0,0,1-3.677-6.533,16.093,16.093,0,0,1-.949-7.084v-.113h.121a13.761,13.761,0,0,0,3.18-.965,13.6,13.6,0,0,0,2.766-1.7,12.906,12.906,0,0,0,3.768-4.936,13.116,13.116,0,0,0,.859-2.879,17.4,17.4,0,0,0,.188-2.932v-20.423a14.054,14.054,0,0,0-.625-4.024,13.776,13.776,0,0,0-1.553-3.324,14.116,14.116,0,0,0-1.032-1.312c-.181-.2-.354-.4-.535-.587l-.565-.52a12.681,12.681,0,0,0-4.371-2.555,13.385,13.385,0,0,0-3.075-.663Z" transform="translate(-2540.206 3445.319)" fill="#263238"/>
        <g id="freepik--Character--inject-2" transform="translate(107.021 50.393)">
          <path id="Path_178481" data-name="Path 178481" d="M2817.77-3315.511a5.863,5.863,0,0,1-5.494-2.457,6.925,6.925,0,0,0,4.22-.233c1.274-.656,2-2.533,1-3.558-.753-.8-2.072-.662-3.188-.753a6.887,6.887,0,0,1-5.863-4.522c-.943-2.713-.076-5.675.263-8.531a23.5,23.5,0,0,0-9.842-21.622l-17.876-10.332c-6.489,8.29-8.509,19.489-7.167,29.934s5.78,20.265,11.108,29.392a34.6,34.6,0,0,0,5.4,7.423,13.767,13.767,0,0,0,8.034,4.13,8.293,8.293,0,0,0-1.326-7.484,18.085,18.085,0,0,0,13.287-4.831l-3.836-2.939A13.986,13.986,0,0,0,2817.77-3315.511Z" transform="translate(-2698.817 3380.077)" fill="#565656"/>
          <path id="Path_178482" data-name="Path 178482" d="M2740.1-3344.481a16.764,16.764,0,0,1,12.156-15.788l22.421-6.406c9.729-1.333,16.58,10.49,17.506,20.265,1.025,10.867,1.786,22.338.754,30.5-2.088,16.406-14.538,18.84-14.538,18.84s.415,14.786.542,19.557l-11.41,23.875-22.1-30.5-5.388-60.147C2740.037-3344.564,2740.09-3344.112,2740.1-3344.481Z" transform="translate(-2690.019 3379.882)" fill="#ffbf9d"/>
          <path id="Path_178483" data-name="Path 178483" d="M2800.245-3320.375a2.1,2.1,0,0,1-1.958,2.178,2,2,0,0,1-2.211-1.775l-.005-.05a2.111,2.111,0,0,1,1.953-2.178,2.013,2.013,0,0,1,2.219,1.782Z" transform="translate(-2704.784 3368.135)" fill="#263238"/>
          <path id="Path_178484" data-name="Path 178484" d="M2804.806-3331.078c-.249.286-1.869-.844-4.123-.754s-3.873,1.259-4.121.988c-.128-.121.12-.618.828-1.168a5.749,5.749,0,0,1,3.286-1.123,5.5,5.5,0,0,1,3.293.949C2804.685-3331.688,2804.934-3331.2,2804.806-3331.078Z" transform="translate(-2704.905 3371.015)" fill="#263238"/>
          <path id="Path_178485" data-name="Path 178485" d="M2773.249-3320.375a2.1,2.1,0,0,1-1.959,2.178,2.005,2.005,0,0,1-2.211-1.775l0-.05a2.1,2.1,0,0,1,1.952-2.178,2.013,2.013,0,0,1,2.219,1.782Z" transform="translate(-2697.668 3368.135)" fill="#263238"/>
          <path id="Path_178486" data-name="Path 178486" d="M2775.741-3330.249c-.249.287-1.876-.836-4.123-.754s-3.874,1.259-4.13.987c-.121-.121.128-.618.837-1.168a5.738,5.738,0,0,1,3.286-1.123,5.527,5.527,0,0,1,3.293.949C2775.59-3330.859,2775.869-3330.369,2775.741-3330.249Z" transform="translate(-2697.243 3370.796)" fill="#263238"/>
          <path id="Path_178487" data-name="Path 178487" d="M2788.376-3312.452a15.4,15.4,0,0,1,3.64-.753c.572-.076,1.115-.211,1.2-.6a2.925,2.925,0,0,0-.43-1.7l-1.839-4.325c-2.554-6.172-4.424-11.244-4.175-11.35s2.525,4.816,5.079,10.98c.611,1.507,1.206,3.014,1.764,4.364a3.327,3.327,0,0,1,.369,2.261,1.461,1.461,0,0,1-.919.874,4.315,4.315,0,0,1-.972.166A15.455,15.455,0,0,1,2788.376-3312.452Z" transform="translate(-2702.327 3370.5)" fill="#263238"/>
          <path id="Path_178488" data-name="Path 178488" d="M2762.484-3279.131s5.63,11.063,21.931,9.043l-.105-3.844A41.2,41.2,0,0,1,2762.484-3279.131Z" transform="translate(-2695.932 3356.78)" fill="#ff9a6c"/>
          <path id="Path_178489" data-name="Path 178489" d="M2773.805-3339.947c-.2.618-2.465.4-5.1.8s-4.749,1.183-5.117.648c-.166-.256.188-.844,1.033-1.507a8.99,8.99,0,0,1,7.785-1.1C2773.353-3340.708,2773.858-3340.241,2773.805-3339.947Z" transform="translate(-2696.212 3373.23)" fill="#263238"/>
          <path id="Path_178490" data-name="Path 178490" d="M2803.757-3340.466c-.384.527-1.952.045-3.821.075s-3.437.452-3.813-.075c-.174-.256.061-.754.754-1.281a5.28,5.28,0,0,1,3.074-.934,5.363,5.363,0,0,1,3.075.934C2803.689-3341.235,2803.923-3340.715,2803.757-3340.466Z" transform="translate(-2704.784 3373.531)" fill="#263238"/>
          <path id="Path_178491" data-name="Path 178491" d="M2777.462-3300.6a2.931,2.931,0,0,1,2.969-2.313,3.012,3.012,0,0,1,2.411,1.613,3.767,3.767,0,0,1,.219,2.939l-.037.21a3.353,3.353,0,0,1-3.769.9A3.119,3.119,0,0,1,2777.462-3300.6Z" transform="translate(-2699.868 3363.049)" fill="#ff9a6c"/>
          <path id="Path_178492" data-name="Path 178492" d="M2784.957-3298.683c0-.346-2.261-.173-4.055-1.989s-1.7-4.266-2.027-4.258c-.143,0-.4.573-.346,1.606a5.671,5.671,0,0,0,1.567,3.557,4.905,4.905,0,0,0,3.384,1.507C2784.437-3298.231,2784.979-3298.532,2784.957-3298.683Z" transform="translate(-2700.159 3363.58)" fill="#263238"/>
          <path id="Path_178493" data-name="Path 178493" d="M2750.358-3375.186c2.525-4.009,8.478-8.192,13.143-9.043,5.321-.927,8.523,0,12.021,3.173,0,0,2.72,2.622,5.275,3.12s4.68.075,7.725,1.635c4.152,2.125,5.976,7.679,7.9,11.93,2.4,5.275,5.8,10.144,7.364,15.729s.753,12.449-3.973,15.826c.806-4.281,1.508-8.991-.285-12.865a11.2,11.2,0,0,1-.287,4.635c-.882-2.509-1.808-5.1-3.633-7.046-1.718-1.832-4.1-2.925-5.878-4.7-2.6-2.615-3.769-6.6-6.971-8.493-3.293-1.975-7.454-.995-11.305-.973a21.657,21.657,0,0,1-16.828-8.109l.949-.083A27.072,27.072,0,0,1,2750.358-3375.186Z" transform="translate(-2692.735 3384.571)" fill="#565656"/>
          <path id="Path_178494" data-name="Path 178494" d="M2717.371-3332.334c1.507-4.808,4.039-9.2,5.652-13.957,1.568-4.634,2.216-9.586,4.3-14.01,2.8-5.953,8.041-13.663,16.2-13.241l.557.49a17.543,17.543,0,0,1,8.222.98l.128,6.361,1.56,1.379c-.655,1.259-1.273,2.479-1.877,3.678a39.408,39.408,0,0,1-2.05,7,18.09,18.09,0,0,1-3.911,5.954c-14.055,33.65-1.312,35.775-7.642,55.06l-3.979-11.041a19.688,19.688,0,0,1-7.875-8.486c-.234,1.161-.475,2.329-.708,3.5a20.3,20.3,0,0,1-5.487-12.533l-1.824,3.354C2715.706-3321.949,2715.909-3327.533,2717.371-3332.334Z" transform="translate(-2683.767 3381.668)" fill="#565656"/>
          <path id="Path_178495" data-name="Path 178495" d="M2746.654-3319.578c-.219-.55-10.377-3.889-10.2,6.782.166,10.385,10.551,8.049,10.6,7.747S2746.654-3319.578,2746.654-3319.578Z" transform="translate(-2689.069 3367.685)" fill="#ffbf9d"/>
          <path id="Path_178496" data-name="Path 178496" d="M2744.7-3307.685c-.045,0-.181.128-.482.279a1.814,1.814,0,0,1-1.349.053c-1.108-.384-2.065-2.11-2.148-3.979a6.029,6.029,0,0,1,.452-2.6,2.094,2.094,0,0,1,1.333-1.417.919.919,0,0,1,1.078.475c.144.294.083.5.136.52s.226-.182.128-.611a1.179,1.179,0,0,0-.415-.641,1.408,1.408,0,0,0-1.01-.248,2.553,2.553,0,0,0-1.861,1.65,6.164,6.164,0,0,0-.566,2.909c.106,2.088,1.214,4.025,2.721,4.431a1.929,1.929,0,0,0,1.65-.309C2744.687-3307.4,2744.739-3307.669,2744.7-3307.685Z" transform="translate(-2690.003 3366.462)" fill="#ff9a6c"/>
          <path id="Path_178497" data-name="Path 178497" d="M2744-3302.228a2.057,2.057,0,0,0-2.359,1.7,2.057,2.057,0,0,0,1.7,2.359,2.057,2.057,0,0,0,2.359-1.7,2.058,2.058,0,0,0-1.214-2.216" transform="translate(-2690.431 3362.875)" fill="#fff"/>
          <path id="Path_178498" data-name="Path 178498" d="M2744.431-3302.11a2.783,2.783,0,0,1,.972,1.364,1.764,1.764,0,0,1-.354,1.643,1.815,1.815,0,0,1-2.552.289,1.814,1.814,0,0,1-.674-1.216,1.785,1.785,0,0,1,.565-1.583,2.8,2.8,0,0,1,1.552-.641.9.9,0,0,0-.49-.1,2.115,2.115,0,0,0-1.281.49,2.064,2.064,0,0,0-.753,1.891,2.261,2.261,0,0,0,2.534,1.95,2.261,2.261,0,0,0,1.452-.8,2.065,2.065,0,0,0,.347-2.02,2.088,2.088,0,0,0-.829-1.093C2744.6-3302.118,2744.439-3302.14,2744.431-3302.11Z" transform="translate(-2690.374 3362.901)" fill="#263238"/>
          <path id="Path_178499" data-name="Path 178499" d="M2762.706-3361.662c-.211.083-1.168-3.437-4.062-6.7s-6.2-4.74-6.1-4.929a5.808,5.808,0,0,1,2.193.875,16.868,16.868,0,0,1,7.393,8.47A5.9,5.9,0,0,1,2762.706-3361.662Z" transform="translate(-2693.312 3381.598)" fill="#455a64"/>
          <path id="Path_178500" data-name="Path 178500" d="M2814.7-3255.082c-.988-.256,11.447,57.946,11.447,57.946l20.349,29.392h19.451l5.592-4.326s-10.407-20.71-15.322-28.185S2832.06-3250.621,2814.7-3255.082Z" transform="translate(-2709.679 3350.441)" fill="#5a189a"/>
          <path id="Path_178501" data-name="Path 178501" d="M2782.765-3256.2,2767-3259.34c-3.769,14.455-23.808,13.181-34.667,0l-8.7,2.358c-11.621,3.422-14.319,4.726-14.319,4.726-8.463,3.308-13.731,12.4-15.826,18.7l20.747,57.533-5.276,34.667,89.426-.1-8.132-29.392,1.779-9.458,2.63-8.192c2.623-8.418-.912-23.86-3.489-32.3l-2.8-12.239Z" transform="translate(-2677.747 3351.563)" fill="#5a189a"/>
          <g id="Group_117220" data-name="Group 117220" transform="translate(33.129 119.694)" opacity="0.3">
            <path id="Path_178502" data-name="Path 178502" d="M2726.142-3222.038s1.01,12.057,0,18.087-3.429,35.76-3.429,35.76l30.183,8.983,16.58-5.78-9.654,23.249-17.628,2.525-19.941-21.365-5.154-15.329,2.833-8.289Z" transform="translate(-2717.099 3222.038)" fill="#1a1a1a"/>
          </g>
          <path id="Path_178503" data-name="Path 178503" d="M2794.936-3130.6l-16.067-8.011,2.615-1.507,5,1.6c0,.226,4.665,2.261,6.384,1.817a4.523,4.523,0,0,0,2.66-1.975c.241-.467-5.908-3.61-5.908-3.61l-7.748-3.963-8.29,2.177-14.786,9.225-11.086-3.452c-.279.459-4.243,17.981-4.243,17.981s10.89,3.565,17.145,3.015c4.251-.354,7.9-3.309,10.016-5.411l1.9,1.018s6.948,3.383,9.9,3.52,1.04-2.645,1.04-2.645l-5.163-3.339-2.1-1.854,3.2,1.138s5.419,2.774,6.519,3.083c1.409.392,2.524.083,3.06-1.885s-10.551-8.463-10.551-8.463l10.8,4.522a6.1,6.1,0,0,0,3.188.459,2.577,2.577,0,0,0,2.208-1.378C2795.426-3130.52,2794.936-3130.6,2794.936-3130.6Z" transform="translate(-2690.92 3321.756)" fill="#ffbf9d"/>
          <path id="Path_178504" data-name="Path 178504" d="M2779.155-3134.686a3.609,3.609,0,0,1,1.093-.942,8.453,8.453,0,0,1,6.782-1.018,3.418,3.418,0,0,1,1.319.58,13.422,13.422,0,0,1-1.387-.308,9.738,9.738,0,0,0-6.542.979A12.819,12.819,0,0,1,2779.155-3134.686Z" transform="translate(-2700.326 3319.306)" fill="#ff9a6c"/>
          <path id="Path_178505" data-name="Path 178505" d="M2789.833-3126.835a7.369,7.369,0,0,1-1.424-.874,14.811,14.811,0,0,0-3.528-1.8,6.594,6.594,0,0,0-3.85-.082,12.155,12.155,0,0,0-1.508.693,2.851,2.851,0,0,1,1.4-.949,6.277,6.277,0,0,1,4.069-.038,12.053,12.053,0,0,1,3.573,1.952A6.509,6.509,0,0,1,2789.833-3126.835Z" transform="translate(-2700.423 3317.528)" fill="#ff9a6c"/>
          <path id="Path_178506" data-name="Path 178506" d="M2782.653-3122.774a7.021,7.021,0,0,1-.875-.324,4.955,4.955,0,0,0-2.14-.241,4.836,4.836,0,0,0-2.042.7c-.483.294-.754.55-.754.5a1.91,1.91,0,0,1,.618-.753,4.326,4.326,0,0,1,4.454-.49C2782.427-3123.09,2782.683-3122.8,2782.653-3122.774Z" transform="translate(-2699.716 3315.834)" fill="#ff9a6c"/>
          <path id="Path_178507" data-name="Path 178507" d="M2789.338-3117.178a10.346,10.346,0,0,1-3.6-3.5,11.529,11.529,0,0,1,1.862,1.688A11.073,11.073,0,0,1,2789.338-3117.178Z" transform="translate(-2702.06 3315.016)" fill="#ff9a6c"/>
          <path id="Path_178508" data-name="Path 178508" d="M2715.883-3216.827c4.462-23.732-21.312-30.627-27.484-13.128,0,0-6.173,17.839-8.781,27.771-2.426,9.247-5.275,21.1-7.136,32.587-1.289,7.928.874,17.334,5.373,19.24,11.749,4.99,58.361,12.45,58.361,12.45l2.894-23.762-34.546-8.169s1.439-3.889-1.221-4.25l8.327-28.842Z" transform="translate(-2672.113 3346.401)" fill="#5a189a"/>
          <path id="Path_178509" data-name="Path 178509" d="M2714.52-3150.587l.308.15a1.68,1.68,0,0,1,.355.226,2.03,2.03,0,0,1,.437.392,2.265,2.265,0,0,1,.58,1.507,3.96,3.96,0,0,1-.671,2.11l-.068-.166c2.811.505,6.677,1.349,11.213,2.442l15.359,3.768c2.88.686,5.667,1.311,8.29,1.816h.181v.173l-2.139,17.017c-.279,2.08-.5,3.768-.657,4.944-.082.55-.15.988-.2,1.326a1.953,1.953,0,0,1-.09.452,3.523,3.523,0,0,1,0-.46c.038-.339.075-.753.135-1.333.128-1.191.317-2.871.543-4.959.5-4.258,1.2-10.189,2-17.032l.15.212c-2.622-.5-5.426-1.123-8.29-1.8-5.592-1.334-10.815-2.683-15.344-3.806s-8.381-2-11.177-2.563h-.151l.083-.135a3.807,3.807,0,0,0,.678-1.989,2.194,2.194,0,0,0-.5-1.44,2.516,2.516,0,0,0-.4-.4,1.987,1.987,0,0,0-.34-.249A1.5,1.5,0,0,1,2714.52-3150.587Z" transform="translate(-2683.29 3322.9)" fill="#263238"/>
          <path id="Path_178510" data-name="Path 178510" d="M2725.073-3198.859a1.136,1.136,0,0,1-.068.369l-.3,1.062-1.077,3.829c-.919,3.226-2.216,7.679-3.678,12.586s-2.8,9.345-3.768,12.555c-.49,1.552-.9,2.834-1.191,3.769-.143.406-.256.753-.346,1.025a1.556,1.556,0,0,1-.144.346,1.161,1.161,0,0,1,.068-.369l.271-1.048c.271-.965.633-2.261,1.07-3.828.927-3.226,2.261-7.679,3.678-12.586s2.8-9.345,3.768-12.555c.49-1.553.9-2.834,1.191-3.768.136-.407.248-.754.346-1.025S2725.057-3198.866,2725.073-3198.859Z" transform="translate(-2683.284 3335.623)" fill="#263238"/>
          <path id="Path_178511" data-name="Path 178511" d="M2724.473-3224.85a31.042,31.042,0,0,0-.671-3.768,16.578,16.578,0,0,0-12.812-12.058,29.347,29.347,0,0,0-3.828-.437,4.558,4.558,0,0,1,1.04-.083,14.7,14.7,0,0,1,2.841.248,16.28,16.28,0,0,1,13.015,12.254,14.727,14.727,0,0,1,.415,2.827A5.26,5.26,0,0,1,2724.473-3224.85Z" transform="translate(-2681.351 3346.782)" fill="#263238"/>
          <path id="Path_178512" data-name="Path 178512" d="M2711.623-3150.343c0,.061-.536-.083-1.379-.128a7.181,7.181,0,0,0-5.833,2.4c-.565.633-.829,1.093-.881,1.063a3.011,3.011,0,0,1,.671-1.236,6.526,6.526,0,0,1,2.7-2.065,6.668,6.668,0,0,1,3.376-.445A2.919,2.919,0,0,1,2711.623-3150.343Z" transform="translate(-2680.393 3322.957)" fill="#263238"/>
          <path id="Path_178513" data-name="Path 178513" d="M2713.724-3145.648c0,.121-1.364.242-2.9.9s-2.593,1.552-2.668,1.462A6.908,6.908,0,0,1,2713.724-3145.648Z" transform="translate(-2681.612 3321.601)" fill="#263238"/>
          <path id="Path_178514" data-name="Path 178514" d="M2820.847-3220.81a2.39,2.39,0,0,1,.271.452c.189.339.422.753.716,1.326s.685,1.289,1.07,2.14.874,1.794,1.3,2.879.957,2.261,1.409,3.572c.226.648.49,1.311.754,2.012s.445,1.425.671,2.17a65.206,65.206,0,0,1,2.133,9.865,59.86,59.86,0,0,1,.422,10.083c-.128,1.545-.2,3.015-.437,4.386-.105.686-.181,1.35-.3,1.975s-.263,1.229-.384,1.808c-.211,1.154-.55,2.163-.792,3.061-.135.452-.241.867-.369,1.251s-.263.708-.377,1.025l-.535,1.409a2.705,2.705,0,0,1-.2.482,2.113,2.113,0,0,1,.136-.5c.113-.37.264-.845.459-1.439.105-.31.219-.656.339-1.033s.219-.8.339-1.251c.226-.9.536-1.907.753-3.06.113-.572.234-1.176.354-1.8s.181-1.281.279-1.967c.219-1.357.279-2.819.4-4.356a61.6,61.6,0,0,0-.453-10.023,68.97,68.97,0,0,0-2.087-9.8c-.219-.753-.445-1.454-.656-2.155s-.467-1.364-.693-2.013c-.437-1.3-.927-2.487-1.356-3.572s-.882-2.049-1.251-2.9-.716-1.575-1-2.163-.483-1.01-.648-1.357A3.409,3.409,0,0,1,2820.847-3220.81Z" transform="translate(-2711.314 3341.408)" fill="#263238"/>
          <path id="Path_178515" data-name="Path 178515" d="M2821.709-3227.882c.1.061-.429,1.123-.7,2.547s-.2,2.608-.309,2.615a4.625,4.625,0,0,1-.075-2.69A4.7,4.7,0,0,1,2821.709-3227.882Z" transform="translate(-2711.213 3343.272)" fill="#263238"/>
          <g id="Group_117221" data-name="Group 117221" transform="translate(108.754 116.563)" opacity="0.3">
            <path id="Path_178516" data-name="Path 178516" d="M2831.586-3205.629a51.962,51.962,0,0,0-4.6-10.867q-2.223-4.273-4.438-8.508c-.287-.543-.641-1.146-1.244-1.267a1.43,1.43,0,0,0-1.508,1.319,4.1,4.1,0,0,0,.535,2.14,156.5,156.5,0,0,1,6.738,17.4c1.846,5.787,3.173,13.52,2.14,19.5C2832.679-3191.748,2833.244-3199.012,2831.586-3205.629Z" transform="translate(-2819.79 3226.29)" fill="#1a1a1a"/>
          </g>
          <path id="Path_178517" data-name="Path 178517" d="M2789.926-3176.959a1.01,1.01,0,0,1-.045.346c-.045.219-.09.55-.2.973a23.389,23.389,0,0,1-1.145,3.481,26.214,26.214,0,0,1-17.658,15.4,24.264,24.264,0,0,1-3.6.663c-.43.053-.754.053-.995.069a1.213,1.213,0,0,1-.354,0,12.611,12.611,0,0,1,1.326-.212,28.9,28.9,0,0,0,3.557-.753,26.928,26.928,0,0,0,17.469-15.239,28.459,28.459,0,0,0,1.228-3.452A11.371,11.371,0,0,1,2789.926-3176.959Z" transform="translate(-2696.838 3329.851)" fill="#263238"/>
          <path id="Path_178518" data-name="Path 178518" d="M2913.855-3162l-1.975-2.17s-14.447,6.489-19.361,9.239c-7.091,3.965-8,5.984-8,5.984l-.935,4.522,3.338,2.261Z" transform="translate(-2727.852 3326.479)" fill="#fff"/>
          <path id="Path_178519" data-name="Path 178519" d="M2886.924-3142.2h0l-3.346-2.26h0l.934-4.522a5.506,5.506,0,0,1,1.342-1.508,37.734,37.734,0,0,1,6.655-4.484c4.861-2.72,19.218-9.179,19.368-9.247h0l2,2.223h0Zm-3.316-2.26,3.309,2.26,26.9-19.775-1.952-2.208c-.5.218-14.552,6.549-19.345,9.231a37.659,37.659,0,0,0-6.647,4.476,5.944,5.944,0,0,0-1.335,1.508Z" transform="translate(-2727.848 3326.492)" fill="#263238"/>
          <path id="Path_178520" data-name="Path 178520" d="M2861.454-3139.514s-.987-9.609-7.242-12.33-25.337,7.046-25.744,7.182-39.121,25.194-39.121,25.194l2.147,2.638,35.188-4.273Z" transform="translate(-2703.012 3323.357)" fill="#fff"/>
          <path id="Path_178521" data-name="Path 178521" d="M2791.1-3117.879l38.231-24.869s20.273-10.242,25.918-6.956a10.467,10.467,0,0,1,5.034,9.586l-36.853,21.139-30.53,3.7Z" transform="translate(-2703.473 3322.838)" fill="#e0e0e0"/>
          <path id="Path_178522" data-name="Path 178522" d="M2860.3-3142.167s-3.135-5.155-16.617-2.841a84.47,84.47,0,0,0-14.929,4.1l-36.559,24.938,1.266,1.507,58.029-21.614,9.112-1.809.753-1.6Z" transform="translate(-2703.762 3321.587)" fill="#fff"/>
          <path id="Path_178523" data-name="Path 178523" d="M2788.181-3117.652l33.6-22.631,34.056-5.155,5.147,2.464,28.434-20.159,1.364,1.567-45.18,36.49-9.692-2.329-10.558,7.431-36.317,3.844Z" transform="translate(-2702.705 3326.207)" fill="#ffb600"/>
          <path id="Path_178524" data-name="Path 178524" d="M2789.029-3116.211l-.226-.354c-.143-.263-.362-.64-.664-1.153h0c3.708-2.547,15.94-10.837,33.545-22.729h0l34.049-5.185h.105l5.155,2.464h-.188l28.427-20.175.144-.1.12.135.37.422,1,1.146.143.158-.173.128-28.872,21.244-.1.068-.105-.052-5.66-3.015h.113l-33.424,5.442h.061l-24.749,15.826-6.784,4.3-1.762,1.115-.611.362s.2-.144.581-.4l1.748-1.145,6.715-4.372,24.681-15.954h0l33.552-5.6h.121l5.667,3.015h-.2l28.864-21.26v.286l-1-1.146-.37-.422h.264l-28.464,20.28-.091.068-.075-.068-5.155-2.472h.1l-34.056,5.125h.061c-17.635,11.84-29.919,20.053-33.672,22.526v-.045c.294.527.5.912.64,1.168Z" transform="translate(-2702.694 3326.288)" fill="#263238"/>
          <path id="Path_178525" data-name="Path 178525" d="M2833.283-3131.361c.09-.06.429.3.753.8s.52.957.429,1.018-.429-.3-.753-.8S2833.192-3131.3,2833.283-3131.361Z" transform="translate(-2714.586 3317.834)" fill="#263238"/>
          <path id="Path_178526" data-name="Path 178526" d="M2869.715-3135.892a1.588,1.588,0,0,1-.286.272c-.242.188-.528.43-.874.716l-3.263,2.562c-2.759,2.155-6.595,5.117-10.845,8.358-2.133,1.613-4.123,3.2-6.029,4.521l-5.057,3.512-3.428,2.336-.943.618c-.218.143-.339.211-.346.2a1.777,1.777,0,0,1,.3-.256l.9-.678,3.361-2.442,5-3.58c1.885-1.341,3.866-2.939,6.029-4.522,4.25-3.24,8.108-6.157,10.912-8.289l3.332-2.465.919-.656A1.547,1.547,0,0,1,2869.715-3135.892Z" transform="translate(-2716.005 3319.027)" fill="#263238"/>
          <path id="Path_178527" data-name="Path 178527" d="M2882.147-3135.047c-.92,1.259-3.512,5.381-3.512,5.381a45.288,45.288,0,0,1-2.035,7.363,13.209,13.209,0,0,1-10.227,7.762c-5.177.648-13.814-2.667-13.814-2.667l-11.056-4.13s-2.487-2.132-.422-3.421c0,0-1.831-2.065,1.794-2.977s13.565,3.768,13.565,3.768-4.137-3.489-6.6-4.394-1.417-3.014.648-3.24,3.61.512,7.1,1.672,6.617,3.5,8.041,3.5.535-2.306-.753-3.21c-5.239-3.61-3.5-4.808-3.5-4.808s.52-1.809,3.233-.649a69.727,69.727,0,0,1,7.416,4.176c3.015-.2,3.971-.942,4.65-2.72a6.387,6.387,0,0,1,1.974-2.623l1.319-1.07a1.6,1.6,0,0,1,2.248.227,1.6,1.6,0,0,1,.081,1.913Z" transform="translate(-2716.431 3319.501)" fill="#ffbf9d"/>
          <path id="Path_178528" data-name="Path 178528" d="M2854.664-3113.982a73.422,73.422,0,0,1-6.956-3.014,72.221,72.221,0,0,1-6.783-3.361,74.535,74.535,0,0,1,6.956,3.014A72.231,72.231,0,0,1,2854.664-3113.982Z" transform="translate(-2716.606 3314.932)" fill="#ff9a6c"/>
          <path id="Path_178529" data-name="Path 178529" d="M2865.394-3116.126a8.381,8.381,0,0,1-2.148-1.455,8.609,8.609,0,0,1-1.853-1.763,8.824,8.824,0,0,1,2.14,1.455A8.767,8.767,0,0,1,2865.394-3116.126Z" transform="translate(-2722.001 3314.665)" fill="#ff9a6c"/>
          <path id="Path_178530" data-name="Path 178530" d="M2883.828-3122.547c.046,0,.174.248.135.708a2.148,2.148,0,0,1-2.354,1.919,2.033,2.033,0,0,1-.223-.035c-.444-.1-.655-.3-.633-.34s.271.046.671.061a2.263,2.263,0,0,0,1.439-.406,2.266,2.266,0,0,0,.822-1.251C2883.76-3122.3,2883.737-3122.54,2883.828-3122.547Z" transform="translate(-2727.103 3315.509)" fill="#ff9a6c"/>
          <path id="Path_178531" data-name="Path 178531" d="M2874.174-3113.9c.038,0,0,.241-.2.528a2.021,2.021,0,0,1-1.123.754,2.056,2.056,0,0,1-1.342-.09c-.316-.151-.452-.332-.422-.362a4.089,4.089,0,0,0,1.666.075C2873.669-3113.238,2874.076-3113.954,2874.174-3113.9Z" transform="translate(-2724.556 3313.231)" fill="#ff9a6c"/>
          <path id="Path_178532" data-name="Path 178532" d="M2865.639-3109.52c.061.083-.505.475-1.289.354s-1.213-.648-1.131-.716.535.241,1.183.332S2865.586-3109.618,2865.639-3109.52Z" transform="translate(-2722.48 3312.174)" fill="#ff9a6c"/>
          <path id="Path_178533" data-name="Path 178533" d="M2887.5-3131.42c.038,0,0,.369-.317.844a3.458,3.458,0,0,1-1.779,1.221,3.985,3.985,0,0,1-2.156.106c-.55-.151-.814-.415-.753-.444s.324.105.837.173a4.59,4.59,0,0,0,1.982-.211,3.877,3.877,0,0,0,1.68-1.017C2887.3-3131.111,2887.437-3131.42,2887.5-3131.42Z" transform="translate(-2727.562 3317.848)" fill="#ff9a6c"/>
          <path id="Path_178534" data-name="Path 178534" d="M2859.8-3143.849a.636.636,0,0,1-.091-.158c-.052-.128-.128-.279-.219-.475a15.591,15.591,0,0,0-.927-1.778,8.731,8.731,0,0,0-2.08-2.375,7.422,7.422,0,0,0-1.726-.957,9.856,9.856,0,0,0-2.163-.5,15.516,15.516,0,0,0-2.472-.09,12.965,12.965,0,0,0-1.3.135c-.437.09-.89.151-1.349.256a46.307,46.307,0,0,0-5.712,1.786,134.659,134.659,0,0,0-12.737,5.607h0l-4.205,2.63c-9.428,5.924-17.922,11.357-24.026,15.352l-7.212,4.762-1.937,1.3-.513.331-.181.1a.985.985,0,0,1,.158-.135l.49-.362,1.914-1.365c1.673-1.168,4.108-2.841,7.145-4.861,6.029-4.062,14.537-9.533,23.966-15.457l4.212-2.63h0a129.656,129.656,0,0,1,12.812-5.584,45.968,45.968,0,0,1,5.766-1.764c.467-.1.927-.166,1.371-.256s.905-.075,1.342-.12a15.211,15.211,0,0,1,2.51.12,9.19,9.19,0,0,1,2.216.55,7.467,7.467,0,0,1,1.77,1,8.726,8.726,0,0,1,2.073,2.465A12.55,12.55,0,0,1,2859.8-3143.849Z" transform="translate(-2703.433 3322.868)" fill="#263238"/>
          <path id="Path_178535" data-name="Path 178535" d="M2872.738-3141.655a1.478,1.478,0,0,1-.226-.272,4.61,4.61,0,0,0-.625-.753,9.048,9.048,0,0,0-3.015-2.013,16.73,16.73,0,0,0-5.237-1.243,38.524,38.524,0,0,0-6.647.339,55.13,55.13,0,0,0-11.7,3.1c-1.446.558-2.607,1.055-3.4,1.41l-.919.407a2,2,0,0,1-.324.128,6.238,6.238,0,0,1,1.176-.679c.753-.392,1.922-.927,3.368-1.507a49.889,49.889,0,0,1,11.741-3.226,36.312,36.312,0,0,1,6.715-.316,16.348,16.348,0,0,1,5.336,1.349,8.85,8.85,0,0,1,3.014,2.163,4.421,4.421,0,0,1,.58.829C2872.694-3141.775,2872.754-3141.663,2872.738-3141.655Z" transform="translate(-2716.534 3321.775)" fill="#263238"/>
          <path id="Path_178536" data-name="Path 178536" d="M2842.351-3134.894c-.091.083-.754-.625-1.2-1.651a3.527,3.527,0,0,1-.534-1.967Q2841.526-3136.724,2842.351-3134.894Z" transform="translate(-2716.525 3319.717)" fill="#263238"/>
        </g>
        <g id="freepik--Device--inject-2" transform="translate(31.997 202.355)">
          <path id="Path_178537" data-name="Path 178537" d="M2570.292-3175.6l11.35,55.731h98.537a1.967,1.967,0,0,0,1.967-1.967h0a1.967,1.967,0,0,0-1.967-1.967h-19.836l-10.551-51.827a2.141,2.141,0,0,0-2.08-1.726l-75.31-.821a2.148,2.148,0,0,0-2.154,2.142A2.138,2.138,0,0,0,2570.292-3175.6Z" transform="translate(-2570.24 3178.21)" fill="#e0e0e0"/>
          <path id="Path_178538" data-name="Path 178538" d="M2570.29-3175.611a1.174,1.174,0,0,1,0-.166,2.132,2.132,0,0,1,0-.505,2.195,2.195,0,0,1,1.688-1.892,3.858,3.858,0,0,1,.754-.045h6.209l28.473.271,19.85.2,11.124.114,5.833.06h3.768a2.4,2.4,0,0,1,.754.219,2.26,2.26,0,0,1,1.085,1.137,3.12,3.12,0,0,1,.2.754l.158.753c.1.5.2,1,.3,1.507.2,1.011.415,2.028.618,3.015q.625,3.066,1.266,6.2,1.274,6.27,2.608,12.812c1.779,8.742,3.625,17.831,5.532,27.191l-.136-.106h19.5a3.3,3.3,0,0,1,.753.045,2.11,2.11,0,0,1,1.611,2.512,2.108,2.108,0,0,1-1.046,1.4,2.209,2.209,0,0,1-.927.249h-98.726v-.083c-3.467-17.13-6.293-31.065-8.29-40.7-.965-4.831-1.725-8.584-2.261-11.139-.249-1.274-.445-2.261-.573-2.9s-.188-1-.188-1,.083.339.218.987l.6,2.9c.527,2.547,1.3,6.3,2.3,11.124,1.974,9.646,4.831,23.581,8.336,40.7l-.106-.09h98.6a2.027,2.027,0,0,0,.806-.219,1.839,1.839,0,0,0,.725-2.5,1.842,1.842,0,0,0-1.214-.909,3.734,3.734,0,0,0-.716-.038H2660.2v-.1c-1.906-9.367-3.768-18.457-5.516-27.2-.89-4.364-1.756-8.652-2.608-12.812q-.633-3.127-1.251-6.195c-.211-1.025-.415-2.035-.618-3.015-.105-.5-.2-1.01-.31-1.507l-.15-.754a3.532,3.532,0,0,0-.188-.708,2.084,2.084,0,0,0-.965-1.017,2.027,2.027,0,0,0-.686-.2h-.754l-3.014-.038-5.833-.068-11.115-.128-19.852-.234-28.427-.345-4.438-.061H2572.7a3.519,3.519,0,0,0-.753.045,2.387,2.387,0,0,0-.641.241,2.152,2.152,0,0,0-1.04,1.59A2.829,2.829,0,0,0,2570.29-3175.611Z" transform="translate(-2570.237 3178.222)" fill="#263238"/>
          <path id="Path_178539" data-name="Path 178539" d="M2629.635-3141.2a3.255,3.255,0,0,1-3.255,3.256,3.255,3.255,0,0,1-3.256-3.256,3.256,3.256,0,0,1,3.256-3.256,3.248,3.248,0,0,1,3.255,3.241Z" transform="translate(-2584.176 3169.323)" fill="#fff"/>
          <path id="Path_178540" data-name="Path 178540" d="M2570.431-3174.063h5.17l14.086.068,46.484.324,6.723.052h1.65a4.056,4.056,0,0,1,.844.053,2.194,2.194,0,0,1,.8.324,2.341,2.341,0,0,1,1,1.357c.121.543.21,1.063.324,1.59.829,4.2,1.635,8.245,2.4,12.1,1.508,7.717,2.9,14.658,4.055,20.5s2.065,10.551,2.706,13.83c.316,1.62.557,2.886.753,3.768.083.422.143.754.181.98a2.673,2.673,0,0,1,.053.331,1.132,1.132,0,0,0-.076-.324c-.075-.219-.121-.558-.211-.979-.181-.866-.437-2.125-.754-3.769-.663-3.263-1.62-7.981-2.8-13.806l-4.107-20.491c-.754-3.852-1.583-7.906-2.42-12.058-.1-.52-.2-1.063-.323-1.575a2.051,2.051,0,0,0-.882-1.2,2.267,2.267,0,0,0-.708-.286,4.408,4.408,0,0,0-.754-.045h-1.651l-6.722-.053-46.485-.406-14.085-.151-3.836-.061h-1Z" transform="translate(-2570.288 3177.126)" fill="#263238"/>
        </g>
        <g id="Group_117222" data-name="Group 117222" transform="translate(223.472 10.394)">
          <path id="Path_178541" data-name="Path 178541" d="M2836.377-3428.9a5.513,5.513,0,0,1-.611,1.963,6.336,6.336,0,0,1-1.356,1.594q-.91.8-1.136,1.017a4.977,4.977,0,0,0-1.708,3.054,2.738,2.738,0,0,0,.454,2.052,2.161,2.161,0,0,0,1.773.786,2.859,2.859,0,0,0,2.044-.694,3.705,3.705,0,0,0,1.146-2.106l1.265-.011a4.584,4.584,0,0,1-1.5,2.909,4.3,4.3,0,0,1-3.039,1.027,3.411,3.411,0,0,1-2.681-1.157,3.611,3.611,0,0,1-.757-2.8,6.25,6.25,0,0,1,2.26-3.968l1.492-1.3a4.208,4.208,0,0,0,1.113-2.357Zm.844-3.612a.9.9,0,0,1-.3.627.889.889,0,0,1-.616.26.767.767,0,0,1-.616-.249.839.839,0,0,1-.217-.639.914.914,0,0,1,.3-.6.943.943,0,0,1,.627-.259.785.785,0,0,1,.611.238A.758.758,0,0,1,2837.221-3432.514Z" transform="translate(-2830.241 3437.435)" fill="#ffb600"/>
          <path id="Path_178542" data-name="Path 178542" d="M2848.309-3427.261a5.56,5.56,0,0,1,.659-2.108,6.953,6.953,0,0,1,1.589-1.828,14.147,14.147,0,0,0,1.508-1.421,5.188,5.188,0,0,0,.714-1.071,3.5,3.5,0,0,0,.341-1.227,2.785,2.785,0,0,0-.416-2,2.067,2.067,0,0,0-1.714-.822,3.049,3.049,0,0,0-2.1.708,3.562,3.562,0,0,0-1.141,2.049l-1.243.011a4.484,4.484,0,0,1,1.524-2.876,4.376,4.376,0,0,1,3.061-1.038,3.33,3.33,0,0,1,2.578,1.125,3.66,3.66,0,0,1,.763,2.833,6.033,6.033,0,0,1-2.228,3.849l-1.221,1.027a4.812,4.812,0,0,0-1.482,2.768Zm-.9,3.59a.962.962,0,0,1,.292-.622.915.915,0,0,1,.638-.265.765.765,0,0,1,.616.249.836.836,0,0,1,.217.638.891.891,0,0,1-.3.6.952.952,0,0,1-.627.254.788.788,0,0,1-.616-.233A.784.784,0,0,1,2847.411-3423.671Z" transform="translate(-2834.527 3438.886)" fill="#ffb600"/>
        </g>
        <g id="Group_117223" data-name="Group 117223" transform="translate(78.313 125.392)">
          <path id="Path_178543" data-name="Path 178543" d="M2639.266-3272.745a5.521,5.521,0,0,1-.61,1.963,6.338,6.338,0,0,1-1.357,1.6q-.908.8-1.136,1.016a4.985,4.985,0,0,0-1.708,3.055,2.746,2.746,0,0,0,.454,2.053,2.166,2.166,0,0,0,1.774.786,2.85,2.85,0,0,0,2.043-.7,3.7,3.7,0,0,0,1.146-2.105l1.265-.011a4.583,4.583,0,0,1-1.5,2.909,4.3,4.3,0,0,1-3.039,1.027,3.414,3.414,0,0,1-2.681-1.157,3.612,3.612,0,0,1-.757-2.8,6.249,6.249,0,0,1,2.26-3.969l1.491-1.3a4.2,4.2,0,0,0,1.115-2.357Zm.843-3.612a.9.9,0,0,1-.3.627.889.889,0,0,1-.616.259.768.768,0,0,1-.616-.248.833.833,0,0,1-.216-.639.908.908,0,0,1,.3-.605.942.942,0,0,1,.627-.259.783.783,0,0,1,.611.238A.76.76,0,0,1,2640.109-3276.357Z" transform="translate(-2633.129 3281.278)" fill="#ff6b00"/>
          <path id="Path_178544" data-name="Path 178544" d="M2651.2-3271.1a5.566,5.566,0,0,1,.66-2.108,6.939,6.939,0,0,1,1.589-1.828,14.274,14.274,0,0,0,1.509-1.422,5.231,5.231,0,0,0,.713-1.07,3.5,3.5,0,0,0,.34-1.229,2.78,2.78,0,0,0-.416-2,2.066,2.066,0,0,0-1.714-.822,3.052,3.052,0,0,0-2.1.709,3.558,3.558,0,0,0-1.14,2.049l-1.244.01a4.486,4.486,0,0,1,1.524-2.876,4.382,4.382,0,0,1,3.061-1.038,3.333,3.333,0,0,1,2.579,1.125,3.655,3.655,0,0,1,.762,2.833,6.028,6.028,0,0,1-2.228,3.851l-1.221,1.028a4.8,4.8,0,0,0-1.482,2.767Zm-.9,3.59a.959.959,0,0,1,.292-.622.914.914,0,0,1,.638-.264.766.766,0,0,1,.617.248.838.838,0,0,1,.216.638.892.892,0,0,1-.3.6.958.958,0,0,1-.627.254.793.793,0,0,1-.616-.233A.782.782,0,0,1,2650.3-3267.514Z" transform="translate(-2637.415 3282.73)" fill="#ff6b00"/>
        </g>
        <g id="Group_117224" data-name="Group 117224" transform="translate(273.391 94.997)">
          <path id="Path_178545" data-name="Path 178545" d="M2907.29-3311.152a8.4,8.4,0,0,1-.571,2.857,5.279,5.279,0,0,1-1.451,1.937l-1.156.946a3.837,3.837,0,0,0-1.667,3.178,1.039,1.039,0,0,0,1.09,1.076q1.707.04,2.128-2.18l4.333-.026a5.682,5.682,0,0,1-1.989,4.117,6.756,6.756,0,0,1-4.629,1.45,5.806,5.806,0,0,1-4.026-1.385,4.315,4.315,0,0,1-1.306-3.7,5.94,5.94,0,0,1,2.547-4.163l1.681-1.34a4.4,4.4,0,0,0,1.444-2.745Zm1.563-4.044a2.108,2.108,0,0,1-.67,1.635,2.386,2.386,0,0,1-1.733.676,2.412,2.412,0,0,1-1.668-.61,2.064,2.064,0,0,1-.709-1.543,2.072,2.072,0,0,1,.689-1.648,2.433,2.433,0,0,1,1.714-.664,2.416,2.416,0,0,1,1.668.611A2.068,2.068,0,0,1,2908.853-3315.2Z" transform="translate(-2898.027 3322.25)" fill="#5a189a"/>
          <path id="Path_178546" data-name="Path 178546" d="M2921.482-3310.634a6.453,6.453,0,0,1,2.009-4.753l1.09-.867a5.927,5.927,0,0,0,1.346-1.458,2.971,2.971,0,0,0,.413-1.72,1.112,1.112,0,0,0-1.221-1.194,1.571,1.571,0,0,0-1.281.551,3.387,3.387,0,0,0-.729,1.628l-4.321.026a5.666,5.666,0,0,1,2.009-4.13,6.766,6.766,0,0,1,4.609-1.45,6.946,6.946,0,0,1,2.962.669,4.188,4.188,0,0,1,1.884,1.773,4.81,4.81,0,0,1,.513,2.665,5.942,5.942,0,0,1-2.495,4.124l-1.538,1.221a4.668,4.668,0,0,0-1.641,2.889Zm-1.366,4.058a2.1,2.1,0,0,1,.683-1.668,2.427,2.427,0,0,1,1.707-.656,2.382,2.382,0,0,1,1.681.617,2.09,2.09,0,0,1,.7,1.536,2.082,2.082,0,0,1-.676,1.661,2.429,2.429,0,0,1-1.713.651,2.486,2.486,0,0,1-1.662-.585A2.014,2.014,0,0,1,2920.116-3306.575Z" transform="translate(-2903.499 3324.003)" fill="#5a189a"/>
        </g>
        <g id="Group_117225" data-name="Group 117225" transform="translate(70.349 31.692)">
          <path id="Path_178547" data-name="Path 178547" d="M2631.578-3397.113a8.4,8.4,0,0,1-.572,2.856,5.264,5.264,0,0,1-1.451,1.938l-1.156.945a3.84,3.84,0,0,0-1.668,3.178,1.04,1.04,0,0,0,1.09,1.077q1.707.04,2.127-2.18l4.334-.026a5.679,5.679,0,0,1-1.99,4.117,6.749,6.749,0,0,1-4.629,1.451,5.8,5.8,0,0,1-4.024-1.385,4.312,4.312,0,0,1-1.306-3.7,5.942,5.942,0,0,1,2.547-4.163l1.681-1.339a4.412,4.412,0,0,0,1.444-2.745Zm1.562-4.044a2.114,2.114,0,0,1-.67,1.635,2.391,2.391,0,0,1-1.734.676,2.408,2.408,0,0,1-1.667-.61,2.058,2.058,0,0,1-.709-1.542,2.074,2.074,0,0,1,.689-1.648,2.432,2.432,0,0,1,1.714-.664,2.416,2.416,0,0,1,1.668.611A2.064,2.064,0,0,1,2633.14-3401.158Z" transform="translate(-2622.315 3408.212)" fill="#5a189a"/>
          <path id="Path_178548" data-name="Path 178548" d="M2645.77-3396.595a6.455,6.455,0,0,1,2.01-4.754l1.09-.867a5.95,5.95,0,0,0,1.346-1.458,2.975,2.975,0,0,0,.414-1.721,1.113,1.113,0,0,0-1.221-1.194,1.572,1.572,0,0,0-1.28.552,3.387,3.387,0,0,0-.729,1.628l-4.32.026a5.66,5.66,0,0,1,2.009-4.13,6.763,6.763,0,0,1,4.609-1.451,6.934,6.934,0,0,1,2.961.669,4.2,4.2,0,0,1,1.884,1.772,4.806,4.806,0,0,1,.513,2.666,5.937,5.937,0,0,1-2.5,4.124l-1.536,1.221a4.669,4.669,0,0,0-1.642,2.889Zm-1.365,4.057a2.094,2.094,0,0,1,.683-1.668,2.425,2.425,0,0,1,1.707-.656,2.387,2.387,0,0,1,1.681.617,2.093,2.093,0,0,1,.7,1.536,2.083,2.083,0,0,1-.677,1.662,2.431,2.431,0,0,1-1.714.65,2.486,2.486,0,0,1-1.661-.585A2.012,2.012,0,0,1,2644.4-3392.538Z" transform="translate(-2627.787 3409.965)" fill="#5a189a"/>
        </g>
      </g>
    </g>
  </g>
</svg>
