<svg xmlns="http://www.w3.org/2000/svg" xmlns:xlink="http://www.w3.org/1999/xlink" width="86" height="86" viewBox="0 0 86 86">
  <defs>
    <clipPath id="clip-path">
      <rect id="Rectangle_36959" data-name="Rectangle 36959" width="39.995" height="40" fill="#f6f6f6"/>
    </clipPath>
  </defs>
  <g id="Group_127995" data-name="Group 127995" transform="translate(5016.41 9469.137)">
    <circle id="Ellipse_6346" data-name="Ellipse 6346" cx="43" cy="43" r="43" transform="translate(-5016.41 -9469.137)" fill="#ff6b00"/>
    <g id="Group_126187" data-name="Group 126187" transform="translate(-4993.41 -9446)">
      <g id="Group_120492" data-name="Group 120492" clip-path="url(#clip-path)">
        <path id="Path_181668" data-name="Path 181668" d="M13.328,26.737V28c-.3,0-.588,0-.874,0-1.373.022-2.754-.038-4.117.09a7.978,7.978,0,0,0-.414,15.768,7.931,7.931,0,0,0,9.328-6.9c.16-1.61.069-3.244.091-4.866,0-.234,0-.469,0-.732h1.333c0,.181,0,.358,0,.533-.024,1.734.058,3.476-.093,5.2a9.311,9.311,0,0,1-18.359.846A9.291,9.291,0,0,1,8.214,26.762c1.676-.154,3.378-.025,5.114-.025" transform="translate(0 -5.337)" fill="#f6f6f6"/>
        <path id="Path_181669" data-name="Path 181669" d="M32.022,27.985V26.721c.03-.025.052-.056.073-.056a30.309,30.309,0,0,1,6.016.232,9.323,9.323,0,1,1-11.33,10.2c-.171-1.9-.028-3.819-.028-5.753h1.261v.431q0,2.02,0,4.039a7.994,7.994,0,1,0,9.39-7.688,9.443,9.443,0,0,0-1.655-.131c-1.231-.018-2.463-.006-3.727-.006" transform="translate(-5.339 -5.326)" fill="#f6f6f6"/>
        <path id="Path_181670" data-name="Path 181670" d="M39.674,30.847v1.315c.261,0,.493-.007.724,0a1.97,1.97,0,0,1,1.93,1.916q.035,3.082,0,6.163a1.922,1.922,0,0,1-1.851,1.9c-2.692.029-5.384.01-8.106.01v-1.31h5.924a2.386,2.386,0,0,0,.042-.3c0-1.194,0-2.388,0-3.582,0-.551-.241-.8-.78-.8-.61-.006-1.219,0-1.862,0A2.143,2.143,0,0,1,34.465,38c-.074.037-.115.2-.119.312-.014.372-.006.746-.006,1.147H33.007c0-.376.022-.749-.011-1.116a.592.592,0,0,0-.238-.4,2.059,2.059,0,0,1-1.084-1.885c0-.625-.006-1.25,0-1.874a1.989,1.989,0,0,1,2.039-2.022c1.374-.009,2.749,0,4.123,0h.5V30.847Zm-3.966,2.647v1.332c.625,0,1.233,0,1.842,0a2.037,2.037,0,0,1,1.912,1.1c.052.094.162.213.25.218.423.022.848.01,1.292.01v-.345c0-.542.01-1.083,0-1.625a.652.652,0,0,0-.718-.691c-1.513-.007-3.026,0-4.574,0m4,4.014v3.313c.242,0,.45.013.657,0a.6.6,0,0,0,.621-.562c.031-.91.01-1.821.01-2.747ZM34.338,33.5c-.256,0-.462-.011-.667,0a.644.644,0,0,0-.658.663c-.015.665-.015,1.331,0,2a.66.66,0,1,0,1.32.008c.015-.871,0-1.742,0-2.669" transform="translate(-6.334 -6.169)" fill="#f6f6f6"/>
        <path id="Path_181671" data-name="Path 181671" d="M30.684,18.66V17.327h.438c1.582,0,3.165,0,4.746,0a8,8,0,1,0-7.742-9.315,19.587,19.587,0,0,0-.162,1.962H26.7a8.468,8.468,0,0,1,.19-2.618A9.323,9.323,0,1,1,37.453,18.543a9.06,9.06,0,0,1-1.45.112c-1.638.013-3.276,0-4.914,0h-.406" transform="translate(-5.334 0)" fill="#f6f6f6"/>
        <path id="Path_181672" data-name="Path 181672" d="M14.66,17.331v1.333h-.437q-2.4,0-4.789,0A9.328,9.328,0,1,1,18.561,7.892c.114.676.106,1.372.157,2.086H17.381c-.034-.527-.046-1.063-.107-1.594a7.986,7.986,0,1,0-8.037,8.94c1.651.026,3.3.006,4.955.006h.467" transform="translate(-0.004 -0.003)" fill="#f6f6f6"/>
        <path id="Path_181673" data-name="Path 181673" d="M42.17,11h.7a21.944,21.944,0,0,1-.142,2.562A1.837,1.837,0,0,1,40.9,14.987q-4.057.022-8.114,0a1.955,1.955,0,0,1-1.934-1.818c-.041-.7-.008-1.41-.008-2.15l.66-.042V10.52c0-1.165-.007-2.33,0-3.5A1.983,1.983,0,0,1,33.543,5q3.308-.012,6.617,0a1.977,1.977,0,0,1,2.006,2.008c.013,1.178,0,2.358,0,3.538V11m-1.334-.018c0-1.337.006-2.626,0-3.914,0-.5-.269-.73-.8-.731q-3.182,0-6.365,0c-.593,0-.822.237-.824.838q0,1.747,0,3.494c0,.1.019.21.029.314Zm.666,1.376H32.174c0,.218-.007.411,0,.6a.657.657,0,0,0,.708.7q3.95.011,7.9,0a.66.66,0,0,0,.715-.7c.01-.192,0-.385,0-.609" transform="translate(-6.167 -0.999)" fill="#f6f6f6"/>
        <path id="Path_181674" data-name="Path 181674" d="M29.016,27.3h-10.6c0-1.166-.09-2.322.025-3.456a2.989,2.989,0,0,1,1.917-2.436c.265-.121.54-.217.807-.331.475-.2.7-.61.442-1.031-.833-1.346-.594-2.823-.566-4.261A2.609,2.609,0,0,1,23.7,13.33a2.649,2.649,0,0,1,2.638,2.489,21.325,21.325,0,0,1-.013,2.538,3.925,3.925,0,0,1-.4,1.294c-.419.914-.347,1.2.582,1.541a3.427,3.427,0,0,1,2.37,2.362,6.439,6.439,0,0,1,.135,1.441c.022.76.006,1.521.006,2.309M27.68,25.972c0-.562.022-1.077,0-1.589a1.925,1.925,0,0,0-1.13-1.717c-.21-.1-.434-.182-.653-.269a2.119,2.119,0,0,1-1.231-3.186,2.507,2.507,0,0,0,.333-.886c.047-.816.043-1.638.01-2.455a1.308,1.308,0,0,0-1.269-1.206,1.261,1.261,0,0,0-1.354,1.146c0,1.241-.234,2.492.438,3.7a1.993,1.993,0,0,1-1.094,2.787c-.292.127-.594.232-.883.366a1.7,1.7,0,0,0-1.058,1.258,20.042,20.042,0,0,0-.129,2.054Z" transform="translate(-3.677 -2.666)" fill="#f6f6f6"/>
        <path id="Path_181675" data-name="Path 181675" d="M14.122,31.883c-.681.679-1.274,1.346-1.948,1.919a1.477,1.477,0,0,0-.476,1.562,1.494,1.494,0,0,0,1.546-.469c.576-.685,1.258-1.279,1.946-1.963.49,1.017,1.01,1.965,1.407,2.962a1.806,1.806,0,0,1-.46,1.962c-.312.334-.64.655-.971.972a2,2,0,0,1-1.433.566c-.93,0-1.861-.014-2.79.01a.935.935,0,0,0-.568.24c-.634.6-1.238,1.234-1.861,1.85a2.085,2.085,0,1,1-2.957-2.938c.62-.636,1.264-1.249,1.876-1.893a.876.876,0,0,0,.219-.535c.022-.915.017-1.832.008-2.748A2.086,2.086,0,0,1,8.3,31.81c.3-.294.581-.6.886-.881a1.981,1.981,0,0,1,2.122-.438,4.625,4.625,0,0,1,.564.264c.729.365,1.457.732,2.246,1.129m.673,3.268a6.127,6.127,0,0,0-.426.483,2.527,2.527,0,0,1-2.639,1.1,9.851,9.851,0,0,0-1.4-.011c0-.956-.009-1.843.01-2.73a.706.706,0,0,1,.2-.418c.422-.439.862-.86,1.339-1.33a5.881,5.881,0,0,0-1.053-.493.981.981,0,0,0-.713.158,3.565,3.565,0,0,0-.794.787,1.468,1.468,0,0,0-.312.766C8.976,34.547,9,35.629,8.986,36.71a.8.8,0,0,1-.206.5c-.723.748-1.468,1.474-2.2,2.211a.765.765,0,0,0-.1,1.167c.328.339.751.3,1.158-.1.716-.715,1.435-1.429,2.14-2.155a.811.811,0,0,1,.649-.278c1.067.016,2.136.019,3.2,0a1.121,1.121,0,0,0,.636-.225,4.819,4.819,0,0,0,.877-.882.968.968,0,0,0,.162-.713,6.09,6.09,0,0,0-.506-1.078" transform="translate(-0.983 -6.071)" fill="#f6f6f6"/>
        <path id="Path_181676" data-name="Path 181676" d="M13.585,15.479h-6.5c-.08-.7-.161-1.4-.239-2.094-.133-1.17-.249-2.343-.41-3.51a.989.989,0,0,0-.37-.6,2.039,2.039,0,0,1-.846-2.66,2,2,0,0,1,2.582-.954.481.481,0,0,0,.12.009,2.669,2.669,0,0,1,2.431-1.5,2.6,2.6,0,0,1,2.348,1.394,7.687,7.687,0,0,1,1.459.016,1.825,1.825,0,0,1,1.476,1.564,1.8,1.8,0,0,1-.8,1.956,1.415,1.415,0,0,0-.659,1.2c-.16,1.614-.346,3.225-.525,4.838-.012.108-.042.215-.067.338m-.878-4c.073-.617.145-1.22.215-1.823a1.926,1.926,0,0,1,.909-1.467c.313-.2.582-.406.494-.819a.625.625,0,0,0-.613-.53c-.437-.021-.626.279-.736.658h-1.3c0-.271.007-.479,0-.686a1.331,1.331,0,0,0-2.662.016c-.007.216,0,.432,0,.658h-1.3C7.6,7.1,7.4,6.773,6.97,6.859a.93.93,0,0,0-.58.493c-.154.385.13.626.45.824a1.94,1.94,0,0,1,.934,1.5c.07.6.142,1.2.214,1.808ZM8.276,14.134h4.143c.046-.438.089-.849.134-1.282H8.141c.046.434.088.844.134,1.282" transform="translate(-1.002 -0.835)" fill="#f6f6f6"/>
      </g>
    </g>
  </g>
</svg>
