<svg xmlns="http://www.w3.org/2000/svg" width="86" height="86" viewBox="0 0 86 86">
  <g id="Group_127989" data-name="Group 127989" transform="translate(6042.41 9469)">
    <circle id="Ellipse_6340" data-name="Ellipse 6340" cx="43" cy="43" r="43" transform="translate(-6042.41 -9469)" fill="#ff6b00"/>
    <g id="Group_126184" data-name="Group 126184" transform="translate(-5488.865 -10955.876)">
      <path id="Path_181180" data-name="Path 181180" d="M-510.585,1549.875h-19.031c-.744,0-.928-.184-.928-.924q0-1.694,0-3.387c0-.636.211-.868.839-.842.352.014.462-.065.461-.445-.015-4.691-.01-9.381-.01-14.072,0-.8.168-.975.957-.975,2.97,0,5.941-.01,8.911.011.405,0,.477-.113.464-.485-.03-.859-.011-1.72-.009-2.58,0-.6.221-.814.832-.817.484,0,.969-.018,1.451.007.263.013.306-.08.3-.317-.013-.914-.007-1.828,0-2.742,0-.6.222-.848.829-.808.4.027.558-.1.688-.487a2.97,2.97,0,0,1,2.009-1.933c.284-.09.341-.217.356-.493a1.471,1.471,0,0,0-.445-1.22,5.241,5.241,0,0,1-.95-1.391.5.5,0,0,0-.531-.3,6.143,6.143,0,0,1-1.525-.06,2.26,2.26,0,0,1-1.714-2.442,2.244,2.244,0,0,1,2.211-2c.3,0,.379-.072.371-.373-.021-.745.176-.927.916-.927h7.177c.746,0,.942.18.923.921-.007.29.052.377.364.379a2.229,2.229,0,0,1,2.223,2.273,2.253,2.253,0,0,1-2.234,2.232c-.363.006-.727.018-1.088-.005a.4.4,0,0,0-.429.263,7.035,7.035,0,0,1-1.184,1.67c-.391.394-.168.862-.215,1.3-.013.122.143.1.221.123a3.178,3.178,0,0,1,2.217,2.246c.051.175.127.243.306.218a2.215,2.215,0,0,1,.322,0c.572.006.792.229.793.816,0,.874.025,1.748-.01,2.62-.016.39.12.464.466.441.428-.028.86-.008,1.29-.006.626,0,.835.215.836.855,0,.874.021,1.748-.009,2.62-.012.353.1.4.422.4,3.01-.013,6.021-.008,9.032-.008.681,0,.878.2.878.893q0,7.1-.009,14.193c0,.345.091.419.418.406.683-.026.88.191.881.882q0,1.714,0,3.427c0,.63-.215.843-.848.843Zm18.1-3.858c-.161,0-.322-.013-.483-.013q-17.537,0-35.074,0c-.4,0-.959-.178-1.149.076s-.05.8-.053,1.209a6.582,6.582,0,0,1-.019.8c-.058.411.094.5.5.5q18.217-.018,36.434-.01a.752.752,0,0,1,.121,0c.287.047.4-.042.383-.36-.03-.536-.008-1.074-.008-1.612C-491.835,1545.984-491.835,1545.984-492.482,1546.018Zm-10.972-10.3c0-2.9,0-5.806.006-8.709,0-.27-.051-.365-.346-.365q-6.753.012-13.506-.006c-.295,0-.346.094-.346.364q.014,8.668,0,17.337c0,.311.089.372.382.371q6.713-.014,13.426,0c.334,0,.388-.107.387-.406C-503.458,1541.448-503.454,1538.585-503.454,1535.722Zm-15.481,1.894h0c0-2.23,0-4.46.006-6.69,0-.3-.049-.416-.388-.414q-4.131.023-8.262,0c-.329,0-.395.1-.394.408q.015,6.69,0,13.381c0,.343.1.418.427.417q4.091-.02,8.182,0c.374,0,.434-.116.432-.454C-518.942,1542.05-518.935,1539.833-518.935,1537.617Zm25.806.044c0-2.257,0-4.513.005-6.77,0-.264-.045-.375-.346-.373q-4.171.015-8.341,0c-.292,0-.353.095-.352.367q.013,6.729,0,13.459c0,.307.088.378.384.377q4.13-.016,8.261,0c.331,0,.395-.1.393-.409C-493.135,1542.094-493.129,1539.877-493.129,1537.661Zm-17.416-26.495c-.967,0-1.934.01-2.9-.007-.268,0-.335.076-.328.336a8.042,8.042,0,0,0,2.215,5.465,1.189,1.189,0,0,1,.376.929c-.025.5,0,.994-.007,1.491,0,.568-.193.772-.753.823a1.936,1.936,0,0,0-1.588,1.021c-.119.208-.074.269.166.268q2.821-.01,5.642,0c.242,0,.284-.061.165-.268a1.934,1.934,0,0,0-1.589-1.021c-.561-.051-.749-.254-.752-.823,0-.5.018-.995-.007-1.491a1.19,1.19,0,0,1,.377-.929,8.062,8.062,0,0,0,2.214-5.466c.007-.262-.062-.34-.329-.335C-508.611,1511.176-509.578,1511.166-510.545,1511.166Zm-.044,14.176c1.4,0,2.791-.007,4.187.006.278,0,.373-.068.363-.356-.021-.63-.013-1.261,0-1.892,0-.213-.04-.31-.284-.309q-4.227,0-8.454-.013c-.25,0-.284.107-.279.315.013.617.028,1.235.009,1.851-.01.309.068.411.4.407C-513.3,1525.331-511.945,1525.342-510.589,1525.342Zm-3.978-10.952a10.24,10.24,0,0,1-.4-1.728c-.016-.109-.011-.189-.167-.212a1.047,1.047,0,0,0-1.2.859.981.981,0,0,0,.976,1.079C-515.114,1514.4-514.86,1514.391-514.568,1514.391Zm8.045,0c.272,0,.5,0,.725,0a.989.989,0,0,0,1.056-1.007,1.018,1.018,0,0,0-1.136-.932c-.163.006-.224.042-.246.217A9.4,9.4,0,0,1-506.523,1514.392Z" fill="#fff"/>
      <path id="Path_181181" data-name="Path 181181" d="M-464.284,1622.588c-.706,0-.706,0-.58-.71a5.17,5.17,0,0,1,4.392-4.408c.73-.133.73-.133.73.594,0,.622,0,.622-.507.7a3.76,3.76,0,0,0-3.3,3.333c-.063.436-.219.561-.613.487A.675.675,0,0,0-464.284,1622.588Z" transform="translate(-58.545 -95.939)" fill="#fff"/>
      <path id="Path_181182" data-name="Path 181182" d="M-208.308,1618.1a.685.685,0,0,0,0,.121c.069.375-.067.493-.464.551a3.784,3.784,0,0,0-3.384,3.522c-.028.25-.1.324-.331.295a3.622,3.622,0,0,0-.443,0c-.611,0-.611,0-.518-.628a5.2,5.2,0,0,1,4.445-4.5C-208.308,1617.342-208.308,1617.342-208.308,1618.1Z" transform="translate(-282.882 -95.939)" fill="#fff"/>
      <path id="Path_181183" data-name="Path 181183" d="M-520.222,1622.7c-.32.063-.549.033-.62-.494a3.756,3.756,0,0,0-3.5-3.353c-.236-.027-.337-.073-.3-.323a3.592,3.592,0,0,0,0-.483c0-.551,0-.551.54-.5a5.227,5.227,0,0,1,4.607,4.607C-519.436,1622.7-519.436,1622.7-520.222,1622.7Z" transform="translate(-5.257 -96.047)" fill="#fff"/>
      <path id="Path_181184" data-name="Path 181184" d="M-268.732,1622.6a.432.432,0,0,0-.081,0c-.382.074-.527-.048-.588-.47a3.775,3.775,0,0,0-3.526-3.377c-.262-.029-.311-.115-.287-.338a3.8,3.8,0,0,0,0-.4c0-.647,0-.647.635-.551a5.209,5.209,0,0,1,4.505,4.53C-267.985,1622.6-267.985,1622.6-268.732,1622.6Z" transform="translate(-229.591 -95.952)" fill="#fff"/>
      <path id="Path_181185" data-name="Path 181185" d="M-475.419,1589.568c0,.537-.01,1.075,0,1.612.006.227-.025.323-.3.323-1,0-1,.013-1-.985,0-.86.007-1.72,0-2.58,0-.227.026-.323.3-.323,1,0,1-.013,1,.985Z" transform="translate(-48.029 -69.361)" fill="#fff"/>
      <path id="Path_181186" data-name="Path 181186" d="M-224.009,1589.554c0,.551-.009,1.1,0,1.652.005.21-.054.265-.266.27-1.029.021-1.029.029-1.029-.993,0-.873.006-1.747,0-2.62,0-.209.054-.265.266-.27,1.029-.022,1.029-.029,1.029.994Z" transform="translate(-272.343 -69.336)" fill="#fff"/>
      <path id="Path_181187" data-name="Path 181187" d="M-508.092,1585.149c-.123.1-.266.2-.389.325-.53.523-.528.525-1.051,0-.038-.038-.078-.074-.113-.114-.2-.228-.648-.469-.584-.655.11-.319.48-.549.738-.819a.121.121,0,0,1,.2,0q.552.552,1.1,1.1A1.043,1.043,0,0,1-508.092,1585.149Z" transform="translate(-18.121 -65.986)" fill="#fff"/>
      <path id="Path_181188" data-name="Path 181188" d="M-448.511,1583.634c.061.057.111.1.158.149.191.19.373.388.573.567.142.127.151.215.006.351-.332.314-.652.64-.969.969-.12.125-.193.114-.323,0-.8-.719-.8-.714-.06-1.459.152-.152.3-.306.456-.456A1.593,1.593,0,0,1-448.511,1583.634Z" transform="translate(-72.155 -65.809)" fill="#fff"/>
      <path id="Path_181189" data-name="Path 181189" d="M-256,1585.459c-.023.131-.124.184-.2.258-.676.693-.677.692-1.361.008-.617-.617-.605-.606.007-1.253.224-.237.359-.27.58-.007.248.3.542.553.815.827C-256.105,1585.347-256.053,1585.406-256,1585.459Z" transform="translate(-243.153 -66.385)" fill="#fff"/>
      <path id="Path_181190" data-name="Path 181190" d="M-198.044,1586.955a2.79,2.79,0,0,1-.236-.217c-.207-.238-.618-.418-.6-.692.016-.235.379-.449.595-.666.616-.62.606-.607,1.255.008.241.228.262.362,0,.581-.3.248-.553.542-.827.815C-197.913,1586.84-197.973,1586.891-198.044,1586.955Z" transform="translate(-295.919 -66.958)" fill="#fff"/>
      <path id="Path_181198" data-name="Path 181198" d="M-396.812,1699.585c.413-.037,1.019.192,1.4-.084.358-.262.486-.841.71-1.283.327-.646.655-1.292.97-1.944a.752.752,0,0,1,.691-.527c.354,0,.536.246.682.542.49,1,1,1.991,1.483,2.993a.457.457,0,0,0,.485.309c.792-.018,1.585,0,2.377-.011a.669.669,0,0,1,.731.441.675.675,0,0,1-.3.8c-.832.658-1.655,1.327-2.5,1.975a.377.377,0,0,0-.145.534c.327.764.625,1.54.941,2.309a.694.694,0,0,1-.128.882.688.688,0,0,1-.89-.014c-.8-.49-1.615-.96-2.409-1.461a.555.555,0,0,0-.687.008c-.76.479-1.541.926-2.307,1.4-.325.2-.647.369-.992.067-.324-.284-.229-.612-.085-.956.306-.729.581-1.471.89-2.2a.4.4,0,0,0-.139-.569c-.821-.628-1.618-1.288-2.43-1.928-.27-.213-.485-.446-.367-.816a.7.7,0,0,1,.8-.465C-397.657,1699.6-397.281,1699.585-396.812,1699.585Zm5.5,4.788.091.04v-.1c-.146-.374-.294-.746-.439-1.12a.688.688,0,0,1,.265-.977c.528-.426,1.058-.851,1.669-1.341-.493,0-.889-.008-1.284,0a.731.731,0,0,1-.737-.45c-.294-.6-.6-1.2-.894-1.8l-.416-.829c-.459.919-.884,1.752-1.293,2.593a.77.77,0,0,1-.8.486c-.379-.016-.76,0-1.235,0l1.617,1.294c.466.373.507.535.282,1.1-.149.378-.3.757-.479,1.228.554-.332,1.018-.6,1.47-.884a.744.744,0,0,1,.864-.01C-392.195,1703.871-391.75,1704.118-391.31,1704.373Z" transform="translate(-117.489 -165.839)" fill="#fff"/>
      <path id="Path_181200" data-name="Path 181200" d="M-328.692,1775.2v.1l-.091-.04Z" transform="translate(-180.016 -236.725)" fill="#fff"/>
    </g>
  </g>
</svg>
