<svg xmlns="http://www.w3.org/2000/svg" xmlns:xlink="http://www.w3.org/1999/xlink" width="86" height="86" viewBox="0 0 86 86">
  <defs>
    <clipPath id="clip-path">
      <rect id="Rectangle_37045" data-name="Rectangle 37045" width="40" height="40" fill="#fff"/>
    </clipPath>
  </defs>
  <g id="Group_127994" data-name="Group 127994" transform="translate(5187.41 9469)">
    <circle id="Ellipse_6345" data-name="Ellipse 6345" cx="43" cy="43" r="43" transform="translate(-5187.41 -9469)" fill="#ff6b00"/>
    <g id="Group_126188" data-name="Group 126188" transform="translate(-5164.41 -9446)">
      <g id="Group_120524" data-name="Group 120524" clip-path="url(#clip-path)">
        <path id="Path_181729" data-name="Path 181729" d="M0,24.3V18.2a6.756,6.756,0,0,1,1.128-2.782.212.212,0,0,0-.018-.2A5.128,5.128,0,0,1,0,12.812V6.328a.9.9,0,0,0,.067-.176A6.967,6.967,0,0,1,4.58.476,14.565,14.565,0,0,1,6.328,0H7.812c.112.026.224.062.338.077a7.022,7.022,0,0,1,5.98,6.3c.118,2.011.049,4.033.054,6.05a4.188,4.188,0,0,1-.1.772,4.694,4.694,0,0,1-1.1,2.15c1.384,1.651,1.233,3.641,1.258,5.6a2.544,2.544,0,0,0,.3-.494,1.715,1.715,0,0,1,3.19,0c.481.98.984,1.95,1.455,2.936a1.784,1.784,0,0,1,.174.74q.016,5.761.008,11.521V36.1h1.277v-.531q0-7.674.007-15.349a1.6,1.6,0,0,1,.155-.667c.48-1,.991-1.976,1.473-2.97a1.714,1.714,0,0,1,3.191-.009c.477.982.984,1.95,1.456,2.935a1.786,1.786,0,0,1,.176.74q.015,7.694.007,15.388V36.1H28.35V15.451l-.868.566-3.456-3.461c.127-.266.272-.572.418-.876a.354.354,0,0,0-.225-.55,5.234,5.234,0,0,0-.663-.228c-.287-.064-.348-.227-.344-.5.014-1.145.006-2.291.006-3.437,0-.958,0-.957.888-1.277.024-.009.048-.021.072-.029a.371.371,0,0,0,.253-.6c-.148-.3-.289-.6-.437-.915l2.694-2.7c.679-.679.679-.678,1.558-.271.024.011.045.025.069.036a.357.357,0,0,0,.554-.224c.118-.331.232-.662.348-.993h4.766c.108.291.218.581.324.873.154.424.291.486.691.3.2-.093.4-.179.594-.29a.327.327,0,0,1,.467.08c.79.808,1.595,1.6,2.393,2.4.247.248.633.47.695.76s-.212.632-.355.945-.048.487.262.594.631.235.945.352v4.766l-.957.333c-.312.108-.391.3-.244.6s.412.64.359.912-.428.494-.665.736c-.182.186-.368.368-.552.552l-2.131,2.142-.944-.617V36.128c1.144,0,2.262,0,3.38,0,.584,0,1.168-.021,1.752-.032V40H0V36.094c.583.011,1.166.033,1.748.021.091,0,.212-.145.26-.25.141-.3.26-.619.372-.934a2.214,2.214,0,0,0,.19-.684c.015-2.13.009-4.26.009-6.391V26.538a9.623,9.623,0,0,1-1.24-.42A2.683,2.683,0,0,1,0,24.3m12.078-9.9a3.044,3.044,0,0,0,.814-2.05c.008-1.822,0-3.644,0-5.467a4.787,4.787,0,0,0-.068-.7A5.8,5.8,0,0,0,1.5,5.6,6.721,6.721,0,0,0,1.3,7.144c-.024,1.666-.009,3.332-.009,5a3.134,3.134,0,0,0,.831,2.247,6.608,6.608,0,0,1,3.007-1.336c.033-.392.035-.395-.292-.557A3.786,3.786,0,0,1,2.608,9.371a16.777,16.777,0,0,1-.026-1.99A3.225,3.225,0,0,1,4.663,4.4c.113-.044.225-.09.362-.144L4.016,2.983l1-.8c.338.42.652.818.973,1.208a4.66,4.66,0,0,0,3.63,1.769,1.946,1.946,0,0,1,1.994,2.007c.012.508,0,1.016,0,1.523a3.928,3.928,0,0,1-2.313,3.84c-.12.06-.18.239-.268.363.114.08.217.2.343.232a6.305,6.305,0,0,1,2.7,1.271m23.609-.037c.572-.574,1.16-1.18,1.768-1.766.184-.177.223-.327.076-.53a.871.871,0,0,1-.016-1.1.577.577,0,0,0,.09-.215.881.881,0,0,1,.8-.765c.258-.04.313-.207.308-.449-.014-.612,0-1.224,0-1.836,0-.747-.023-.7-.681-1.053-.233-.123-.316-.516-.487-.772a.925.925,0,0,1,0-1.173c.144-.191.088-.335-.081-.5-.535-.514-1.066-1.033-1.572-1.576-.221-.236-.413-.313-.686-.117a.712.712,0,0,1-.923.019.609.609,0,0,0-.25-.1,1.006,1.006,0,0,1-.859-.868.421.421,0,0,0-.314-.244c-.833-.021-1.666-.017-2.5,0-.1,0-.266.1-.279.183-.1.575-.492.791-.992,1a1.069,1.069,0,0,1-1.18-.036c-.2-.155-.341-.062-.495.1-.536.55-1.072,1.1-1.632,1.626-.2.191-.231.352-.08.561a.843.843,0,0,1,.011,1.07.466.466,0,0,0-.077.178.921.921,0,0,1-.837.828c-.247.035-.284.2-.281.42.012.742.02,1.484,0,2.226-.009.306.056.5.382.548.389.058.547.317.71.663.279.592.425,1.132-.015,1.6l2.062,2.058a1.039,1.039,0,0,0,.729-1.332.524.524,0,0,1,0-.156.765.765,0,0,0-.294-.706A5,5,0,0,1,26.5,7.673a5.157,5.157,0,0,1,9.712-1.618,5.1,5.1,0,0,1-1,6,1.294,1.294,0,0,0-.388.943,1.119,1.119,0,0,0,.861,1.361M6.447,21.929V17.15l-.1-.057L4.927,18.617c-.257-.678-.476-1.256-.7-1.835S3.787,15.6,3.564,15a4.24,4.24,0,0,0-2.226,3.322c-.064,1.142-.032,2.29-.04,3.435a.715.715,0,0,0,.04.162H2.579V18.086h1.3v5.1h6.451v-5.1h1.3v3.829H12.9c0-1.068.015-2.109-.008-3.149a4.529,4.529,0,0,0-.171-1.152,4.427,4.427,0,0,0-2.074-2.64L9.3,18.537l-.146.088L7.718,17.15v4.779ZM38.69,37.454H1.292v1.222h37.4ZM3.9,24.541V33.7a3.046,3.046,0,0,1,2.52.3,1.539,1.539,0,0,0,.032-.2c0-1.888.005-3.776-.006-5.664a.943.943,0,0,0-.172-.459c-.319-.5-.654-.995-1-1.518l1.068-.71.885,1.313.651-.8.979.981c-.288.269-.564.545-.86.8a.753.753,0,0,0-.265.646c.011,1.732.006,3.463.006,5.195v.447a3.069,3.069,0,0,1,2.559-.34V24.541ZM7.1,14.293a2.172,2.172,0,0,0,.652-1.6,1.1,1.1,0,0,1,.494-1.048,5.527,5.527,0,0,1,.644-.362,2.531,2.531,0,0,0,1.427-2.336c.007-.508,0-1.015,0-1.523,0-.788-.133-.944-.909-.984a5.246,5.246,0,0,1-2.63-.764,1.62,1.62,0,0,0-1.364-.169,1.7,1.7,0,0,0-1.453,1.4A10.941,10.941,0,0,0,4.005,9.7a2.3,2.3,0,0,0,1.532,1.7,1.258,1.258,0,0,1,.9,1.243A2.341,2.341,0,0,0,7.1,14.293m23.832-3.3H29.708V36.113h1.223Zm1.362,25.1h1.229V10.988H32.294Zm-9.1-15.432H21.966V36.108h1.228Zm2.582,0H24.545V36.1h1.231Zm2.553-10.295c.069-.169.12-.316.188-.454.5-1.013,1.015-2.021,1.512-3.036a1.71,1.71,0,0,1,3.172.01c.483.993.987,1.976,1.477,2.965.084.169.144.35.211.516a3.776,3.776,0,0,0-.608-4.78,3.863,3.863,0,0,0-5.19-.132,3.793,3.793,0,0,0-.763,4.911M15.452,24.546H14.228V36.111h1.224Zm2.583,0H16.806V36.108h1.228Zm-6.415,1.969v.444c0,2.3.005,4.6,0,6.9a1.886,1.886,0,0,0,.309,1.286,1.508,1.508,0,0,1,.2.5c.164.544.16.545.75.425V26.17l-1.253.342m10.72-7.167h3.067c-.416-.821-.8-1.612-1.217-2.382a.369.369,0,0,0-.65.016c-.409.763-.785,1.542-1.2,2.365m7.749-9.689H33.14c-.4-.8-.776-1.573-1.178-2.326a.382.382,0,0,0-.7-.009c-.4.754-.772,1.525-1.179,2.335M17.658,23.2c-.417-.822-.8-1.61-1.216-2.38a.379.379,0,0,0-.632,0c-.413.771-.8,1.558-1.208,2.376ZM6.38,36.1a1.576,1.576,0,0,0-1.805-1.244c-.683.115-1.3.742-1.222,1.244Zm4.516.007A1.564,1.564,0,0,0,9.2,34.846a1.474,1.474,0,0,0-1.358,1.263ZM1.352,23.238c-.256,1.075.329,1.969,1.225,1.868,0-.568,0-1.137,0-1.707a1.071,1.071,0,0,0-.028-.161Zm10.288,1.89c.929,0,1.438-.809,1.2-1.884h-1.2Zm-6.232-8.9.84-.853c-.12-.181-.24-.364-.361-.546-.391-.586-.391-.586-1.066-.358-.012,0-.02.016-.055.043l.642,1.715m2.573-.905.805.916L9.432,14.5c-.739-.247-.739-.247-1.14.356l-.312.471" fill="#fff"/>
      </g>
    </g>
  </g>
</svg>
