<svg xmlns="http://www.w3.org/2000/svg" xmlns:xlink="http://www.w3.org/1999/xlink" width="86" height="86" viewBox="0 0 86 86">
  <defs>
    <clipPath id="clip-path">
      <rect id="Rectangle_38197" data-name="Rectangle 38197" width="40" height="40" fill="#fff"/>
    </clipPath>
  </defs>
  <g id="Group_127991" data-name="Group 127991" transform="translate(5700.41 9469)">
    <circle id="Ellipse_6342" data-name="Ellipse 6342" cx="43" cy="43" r="43" transform="translate(-5700.41 -9469)" fill="#ff6b00"/>
    <g id="Group_126186" data-name="Group 126186" transform="translate(-5677.41 -9446)">
      <g id="Group_123909" data-name="Group 123909" clip-path="url(#clip-path)">
        <path id="Path_186400" data-name="Path 186400" d="M40,23.516a2.016,2.016,0,0,1-1.493,1.438,2.749,2.749,0,0,1-.542.045Q20,25,2.035,25A2.015,2.015,0,0,1,0,23.516V1.484A2.24,2.24,0,0,1,1.484,0H33.359c.274.238.543.5.308.886a1.111,1.111,0,0,1-.516.351,1.161,1.161,0,0,1-.426.013H2.223c-.821,0-.973.153-.973.979V22.813c0,.769.168.937.938.937H37.807c.774,0,.942-.167.942-.933q0-10.33,0-20.661c0-.723-.18-.905-.891-.906-.664,0-1.328-.008-1.992,0-.361,0-.685-.039-.828-.431s.1-.6.352-.822h3.125A2.246,2.246,0,0,1,40,1.484Z" fill="#fff"/>
        <path id="Path_186401" data-name="Path 186401" d="M3.065,55a.923.923,0,0,1-.4-.906c.04-.518-.007-1.047.078-1.555A3.082,3.082,0,0,1,5.506,50.01,2.178,2.178,0,0,1,5.74,50a.625.625,0,1,1,.038,1.247,1.86,1.86,0,0,0-1.814,1.533,5.584,5.584,0,0,0-.008.946h8.658A1.929,1.929,0,0,0,10.9,51.251c-.473-.039-.732-.272-.721-.647.012-.392.314-.62.8-.6a3.133,3.133,0,0,1,2.942,2.956c.017.377-.013.756.013,1.132a.929.929,0,0,1-.4.907Z" transform="translate(-0.799 -14.998)" fill="#fff"/>
        <path id="Path_186402" data-name="Path 186402" d="M20.922,55a.922.922,0,0,1-.4-.906c.04-.518-.008-1.047.078-1.555a3.082,3.082,0,0,1,2.759-2.527A2.178,2.178,0,0,1,23.6,50a.625.625,0,1,1,.038,1.247,1.86,1.86,0,0,0-1.814,1.533,5.582,5.582,0,0,0-.008.946h8.659a1.929,1.929,0,0,0-1.716-2.476c-.473-.039-.732-.272-.721-.647.012-.392.314-.62.8-.6a3.133,3.133,0,0,1,2.943,2.956c.017.377-.014.756.013,1.132a.929.929,0,0,1-.4.907Z" transform="translate(-6.156 -14.998)" fill="#fff"/>
        <path id="Path_186403" data-name="Path 186403" d="M38.778,55a.922.922,0,0,1-.4-.906c.04-.518-.008-1.047.078-1.555a3.082,3.082,0,0,1,2.759-2.527A2.178,2.178,0,0,1,41.453,50a.625.625,0,1,1,.038,1.247,1.86,1.86,0,0,0-1.814,1.533,5.582,5.582,0,0,0-.008.946h8.659a1.929,1.929,0,0,0-1.716-2.476c-.473-.039-.732-.272-.721-.647.012-.392.314-.62.8-.6a3.133,3.133,0,0,1,2.943,2.956c.017.377-.014.756.013,1.132a.929.929,0,0,1-.4.907Z" transform="translate(-11.512 -14.998)" fill="#fff"/>
        <path id="Path_186404" data-name="Path 186404" d="M37.3,22.322V4.843H4.851V22.322c.584,0,1.177-.006,1.77,0a.627.627,0,0,1,.7.628.61.61,0,0,1-.627.615q-1.25.019-2.5,0a.606.606,0,0,1-.617-.624c-.008-.1,0-.209,0-.312V4.505c0-.768.167-.933.942-.933H37.633c.77,0,.937.167.937.938V22.633c0,.771-.169.939-.937.939H9.512c-.64,0-.935-.2-.938-.622s.3-.628.931-.628H37.3Z" transform="translate(-1.071 -1.071)" fill="#fff"/>
        <path id="Path_186405" data-name="Path 186405" d="M31.249,23.39c-1.5,0-2.94.013-4.383,0a1.867,1.867,0,0,1-1.788-2.4,1.846,1.846,0,0,1,1.733-1.338c1.665-.015,3.331-.009,5,0a.624.624,0,0,1,.687.635.633.633,0,0,1-.713.61c-.872.006-1.744,0-2.616,0h-.4v1.25h.88c.716,0,1.432-.006,2.148,0a.628.628,0,0,1,.7.7c.008.583,0,1.166,0,1.773h7.483c0-.71.053-1.414-.013-2.106A1.838,1.838,0,0,0,38.224,20.9c-.494-.048-.756-.3-.719-.682s.356-.6.833-.563a3.131,3.131,0,0,1,2.908,3.07c.014.807.007,1.614,0,2.421,0,.51-.232.741-.741.741q-4.256,0-8.512,0c-.512,0-.739-.229-.744-.737-.006-.571,0-1.141,0-1.762M27.48,20.9c-.41.01-.86-.151-1.1.279a.8.8,0,0,0,0,.673c.246.428.7.268,1.1.277Z" transform="translate(-7.499 -5.89)" fill="#fff"/>
        <path id="Path_186406" data-name="Path 186406" d="M42.31,11.621a3.785,3.785,0,0,1-1.28,3.333,3.742,3.742,0,0,1-6.2-2.648,9.977,9.977,0,0,1,.063-2.06A3.708,3.708,0,0,1,38.83,7.152a3.763,3.763,0,0,1,3.478,3.577c.011.273,0,.547,0,.892m-1.247-.116c0-.234.007-.468,0-.7a2.51,2.51,0,0,0-2.284-2.4,2.436,2.436,0,0,0-2.629,1.949,8.75,8.75,0,0,0-.064,2.018,2.48,2.48,0,0,0,2.561,2.274,2.508,2.508,0,0,0,2.415-2.395c.01-.246,0-.494,0-.741" transform="translate(-10.441 -2.143)" fill="#fff"/>
        <path id="Path_186407" data-name="Path 186407" d="M15.675,10.178c-1.406,0-2.812,0-4.218,0-.428,0-.69-.2-.736-.546a.632.632,0,0,1,.7-.7c.911-.007,1.823,0,2.734,0q2.89,0,5.78,0c.463,0,.728.192.775.545.054.4-.251.7-.735.7-1.432,0-2.865,0-4.3,0" transform="translate(-3.214 -2.678)" fill="#fff"/>
        <path id="Path_186408" data-name="Path 186408" d="M18.067,16.071c.977,0,1.953,0,2.93,0,.5,0,.781.228.786.616s-.282.631-.771.632q-2.968,0-5.936,0c-.5,0-.781-.228-.786-.616s.281-.631.77-.632c1,0,2,0,3.007,0" transform="translate(-4.286 -4.82)" fill="#fff"/>
        <path id="Path_186409" data-name="Path 186409" d="M12.082,19.642c.768,0,1.537,0,2.3,0,.5,0,.783.225.79.613s-.281.635-.767.636q-2.364,0-4.726,0c-.467,0-.743-.234-.75-.613s.28-.633.767-.635c.794,0,1.588,0,2.382,0" transform="translate(-2.68 -5.892)" fill="#fff"/>
        <path id="Path_186410" data-name="Path 186410" d="M11.4,13.749c-.586,0-1.172,0-1.758,0a.632.632,0,0,1-.708-.615.624.624,0,0,1,.692-.63q1.8-.009,3.593,0a.63.63,0,0,1,.708.614c0,.381-.274.628-.732.632-.6.006-1.2,0-1.8,0" transform="translate(-2.68 -3.749)" fill="#fff"/>
        <path id="Path_186411" data-name="Path 186411" d="M20.331,13.749c-.586,0-1.172,0-1.758,0a.634.634,0,0,1-.713-.61c-.008-.38.272-.634.726-.636q1.777-.006,3.554,0a.631.631,0,0,1,.713.61c.008.38-.273.633-.727.637-.6.006-1.2,0-1.8,0" transform="translate(-5.358 -3.749)" fill="#fff"/>
        <path id="Path_186412" data-name="Path 186412" d="M10.187,16.071c.209,0,.417-.011.624,0a.617.617,0,0,1,.614.628.607.607,0,0,1-.592.61c-.442.02-.886.021-1.327,0a.6.6,0,0,1-.575-.624.615.615,0,0,1,.592-.61c.22-.016.442,0,.664,0v0" transform="translate(-2.679 -4.82)" fill="#fff"/>
        <path id="Path_186413" data-name="Path 186413" d="M12.857,41.978a4.108,4.108,0,0,1-.564,2.494,3.745,3.745,0,0,1-6.922-1.877,9.943,9.943,0,0,1,.148-2.322,3.679,3.679,0,0,1,3.959-2.762,3.765,3.765,0,0,1,3.378,3.635c.006.247,0,.494,0,.832m-6.27-.129H6.61c0,.221,0,.442,0,.663a2.514,2.514,0,0,0,2.256,2.473,2.46,2.46,0,0,0,2.68-2.031,9.7,9.7,0,0,0,.057-1.749,2.49,2.49,0,0,0-4.935-.442,8.844,8.844,0,0,0-.082,1.084" transform="translate(-1.61 -11.245)" fill="#fff"/>
        <path id="Path_186414" data-name="Path 186414" d="M23.211,41.761A3.881,3.881,0,0,1,24.221,38.7a3.74,3.74,0,0,1,6.48,2.483,11.915,11.915,0,0,1-.067,1.944,3.708,3.708,0,0,1-3.956,3.117,3.767,3.767,0,0,1-3.466-3.631c-.007-.247,0-.494,0-.847m1.224.084h.025c0,.234,0,.468,0,.7a2.512,2.512,0,0,0,2.286,2.442A2.448,2.448,0,0,0,29.384,43a9.6,9.6,0,0,0,.068-1.786,2.49,2.49,0,0,0-4.933-.457,8.985,8.985,0,0,0-.084,1.084" transform="translate(-6.958 -11.249)" fill="#fff"/>
        <path id="Path_186415" data-name="Path 186415" d="M41.069,41.75a3.764,3.764,0,0,1,1.257-3.3,3.739,3.739,0,0,1,6.218,2.554,9.751,9.751,0,0,1-.061,2.139,3.7,3.7,0,0,1-3.94,3.087,3.769,3.769,0,0,1-3.474-3.584c-.009-.273,0-.547,0-.9m1.223.1h.023c0,.221,0,.442,0,.663a2.514,2.514,0,0,0,2.256,2.473,2.46,2.46,0,0,0,2.68-2.031,9.7,9.7,0,0,0,.057-1.749,2.49,2.49,0,0,0-4.935-.442,8.844,8.844,0,0,0-.082,1.084" transform="translate(-12.315 -11.241)" fill="#fff"/>
      </g>
    </g>
  </g>
</svg>
