<svg id="Group_124437" data-name="Group 124437" xmlns="http://www.w3.org/2000/svg" xmlns:xlink="http://www.w3.org/1999/xlink" width="79.209" height="121.537" viewBox="0 0 79.209 121.537">
  <defs>
    <clipPath id="clip-path">
      <rect id="Rectangle_38784" data-name="Rectangle 38784" width="79.209" height="121.537" fill="none"/>
    </clipPath>
    <clipPath id="clip-path-2">
      <rect id="Rectangle_38783" data-name="Rectangle 38783" width="79.209" height="121.538" fill="none"/>
    </clipPath>
  </defs>
  <g id="Group_124436" data-name="Group 124436" clip-path="url(#clip-path)">
    <g id="Group_124435" data-name="Group 124435" transform="translate(0 -0.001)">
      <g id="Group_124434" data-name="Group 124434" clip-path="url(#clip-path-2)">
        <g id="Group_124433" data-name="Group 124433" transform="translate(0 0.001)" opacity="0.25">
          <g id="Group_124432" data-name="Group 124432" transform="translate(0 0)">
            <g id="Group_124431" data-name="Group 124431" clip-path="url(#clip-path)">
              <path id="Path_188097" data-name="Path 188097" d="M6.127,3.445,6.116,6.686.151,3.241.159,0Z" transform="translate(0.056 0)" fill="#5a189a"/>
              <path id="Path_188098" data-name="Path 188098" d="M14.752,19.043l-.01,3.238L.12,13.839.129,10.6Z" transform="translate(0.044 3.939)" fill="#5a189a"/>
              <path id="Path_188099" data-name="Path 188099" d="M11.719,11.983l-.008,3.238L.136,8.539.144,5.3Z" transform="translate(0.05 1.97)" fill="#5a189a"/>
              <path id="Path_188100" data-name="Path 188100" d="M21.844,12.521l-.008,3.241L5.712,6.453,5.72,3.212Z" transform="translate(2.122 1.193)" fill="#5a189a"/>
              <path id="Path_188101" data-name="Path 188101" d="M6.066,24.646l-.01,3.238L.09,24.44.1,21.2Z" transform="translate(0.034 7.878)" fill="#5a189a"/>
              <path id="Path_188102" data-name="Path 188102" d="M18.683,26.62l-.011,3.238L.1,19.14l.01-3.24Z" transform="translate(0.039 5.908)" fill="#5a189a"/>
              <path id="Path_188103" data-name="Path 188103" d="M6.007,45.844,6,49.083.03,45.637.039,42.4Z" transform="translate(0.011 15.755)" fill="#5a189a"/>
              <path id="Path_188104" data-name="Path 188104" d="M14.631,61.44l-.008,3.238L0,56.236.01,53Z" transform="translate(0 19.694)" fill="#5a189a"/>
              <path id="Path_188105" data-name="Path 188105" d="M11.6,54.38l-.01,3.238L.015,50.936.024,47.7Z" transform="translate(0.005 17.725)" fill="#5a189a"/>
              <path id="Path_188106" data-name="Path 188106" d="M31.163,65.675l-.01,3.238L9.665,56.508l.008-3.238Z" transform="translate(3.592 19.795)" fill="#5a189a"/>
              <path id="Path_188107" data-name="Path 188107" d="M35.049,57.3l-.01,3.238L23.566,53.916l.01-3.237Z" transform="translate(8.757 18.832)" fill="#5a189a"/>
              <path id="Path_188108" data-name="Path 188108" d="M43.652,67.579l-.01,3.238L18.558,56.336l.011-3.24Z" transform="translate(6.896 19.731)" fill="#5a189a"/>
              <path id="Path_188109" data-name="Path 188109" d="M21.724,54.919l-.008,3.238L5.592,48.849,5.6,45.61Z" transform="translate(2.078 16.949)" fill="#5a189a"/>
              <path id="Path_188110" data-name="Path 188110" d="M18.622,47.819l-.011,3.238L.045,40.337.053,37.1Z" transform="translate(0.017 13.786)" fill="#5a189a"/>
              <path id="Path_188111" data-name="Path 188111" d="M14.692,40.241l-.008,3.238L.059,35.037.069,31.8Z" transform="translate(0.022 11.816)" fill="#5a189a"/>
              <path id="Path_188112" data-name="Path 188112" d="M11.66,33.182l-.01,3.238L.075,29.738.083,26.5Z" transform="translate(0.028 9.847)" fill="#5a189a"/>
              <path id="Path_188113" data-name="Path 188113" d="M25.173,51.6l-.01,3.238L14.794,48.853l.01-3.238Z" transform="translate(5.497 16.95)" fill="#5a189a"/>
              <path id="Path_188114" data-name="Path 188114" d="M40.573,55.184l-.01,3.238L11.932,41.892l.01-3.238Z" transform="translate(4.434 14.364)" fill="#5a189a"/>
              <path id="Path_188115" data-name="Path 188115" d="M39.893,49.483l-.008,3.238L26.6,45.053l.01-3.238Z" transform="translate(9.885 15.538)" fill="#5a189a"/>
              <path id="Path_188116" data-name="Path 188116" d="M43.711,46.38,43.7,49.618,18.619,35.137l.01-3.238Z" transform="translate(6.919 11.853)" fill="#5a189a"/>
              <path id="Path_188117" data-name="Path 188117" d="M44.255,36.076l-.011,3.238-10.166-5.87.01-3.238Z" transform="translate(12.663 11.224)" fill="#5a189a"/>
              <path id="Path_188118" data-name="Path 188118" d="M55.16,47.681l-.011,3.238L33.2,38.248l.01-3.238Z" transform="translate(12.338 13.01)" fill="#5a189a"/>
              <path id="Path_188119" data-name="Path 188119" d="M31.222,44.477l-.01,3.238L9.725,35.309l.01-3.238Z" transform="translate(3.614 11.917)" fill="#5a189a"/>
              <path id="Path_188120" data-name="Path 188120" d="M21.785,33.721l-.008,3.238L5.651,27.65l.01-3.238Z" transform="translate(2.1 9.071)" fill="#5a189a"/>
              <path id="Path_188121" data-name="Path 188121" d="M25.234,30.4l-.01,3.238L14.855,27.654l.01-3.238Z" transform="translate(5.52 9.073)" fill="#5a189a"/>
              <path id="Path_188122" data-name="Path 188122" d="M40.634,33.985l-.01,3.238L11.992,20.693,12,17.455Z" transform="translate(4.456 6.486)" fill="#5a189a"/>
              <path id="Path_188123" data-name="Path 188123" d="M31.282,23.278l-.008,3.238L9.785,14.11,9.8,10.872Z" transform="translate(3.636 4.04)" fill="#5a189a"/>
              <path id="Path_188124" data-name="Path 188124" d="M39.953,28.284l-.01,3.238L26.663,23.853l.01-3.237Z" transform="translate(9.908 7.661)" fill="#5a189a"/>
              <path id="Path_188125" data-name="Path 188125" d="M43.771,25.179l-.008,3.241L18.679,13.939l.008-3.241Z" transform="translate(6.941 3.975)" fill="#5a189a"/>
              <path id="Path_188126" data-name="Path 188126" d="M61.895,35.643l-.011,3.241L46.594,30.056l.01-3.241Z" transform="translate(17.315 9.964)" fill="#5a189a"/>
              <path id="Path_188127" data-name="Path 188127" d="M59.583,39.617l-.01,3.238-6.814-3.934.01-3.238Z" transform="translate(19.605 13.26)" fill="#5a189a"/>
              <path id="Path_188128" data-name="Path 188128" d="M48.011,48.862,48,52.1l-9.882-5.706.008-3.238Z" transform="translate(14.165 16.037)" fill="#5a189a"/>
              <path id="Path_188129" data-name="Path 188129" d="M47.951,70.061l-.01,3.238-9.884-5.706.01-3.238Z" transform="translate(14.142 23.914)" fill="#5a189a"/>
              <path id="Path_188130" data-name="Path 188130" d="M63.238,68.27l-.008,3.238L42.642,59.622l.008-3.238Z" transform="translate(15.846 20.952)" fill="#5a189a"/>
              <path id="Path_188131" data-name="Path 188131" d="M39.834,70.682l-.01,3.238L26.542,66.251l.011-3.238Z" transform="translate(9.863 23.416)" fill="#5a189a"/>
              <path id="Path_188132" data-name="Path 188132" d="M55.1,68.879l-.01,3.238L33.144,59.447l.008-3.238Z" transform="translate(12.316 20.887)" fill="#5a189a"/>
              <path id="Path_188133" data-name="Path 188133" d="M44.195,57.275l-.01,3.238-10.168-5.87.011-3.238Z" transform="translate(12.641 19.102)" fill="#5a189a"/>
              <path id="Path_188134" data-name="Path 188134" d="M56.7,59.183l-.008,3.238L37.5,51.343l.008-3.238Z" transform="translate(13.934 17.876)" fill="#5a189a"/>
              <path id="Path_188135" data-name="Path 188135" d="M60.411,50.713l-.01,3.238-9.984-5.765.008-3.238Z" transform="translate(18.735 16.703)" fill="#5a189a"/>
              <path id="Path_188136" data-name="Path 188136" d="M63.3,47.071l-.01,3.238L42.7,38.423l.008-3.238Z" transform="translate(15.868 13.075)" fill="#5a189a"/>
              <path id="Path_188137" data-name="Path 188137" d="M56.756,37.985l-.01,3.238L37.557,30.145l.008-3.238Z" transform="translate(13.956 9.998)" fill="#5a189a"/>
              <path id="Path_188138" data-name="Path 188138" d="M48.07,27.662l-.01,3.241L38.178,25.2l.008-3.241Z" transform="translate(14.187 8.158)" fill="#5a189a"/>
              <path id="Path_188139" data-name="Path 188139" d="M35.108,36.1,35.1,39.343,23.625,32.719l.011-3.24Z" transform="translate(8.779 10.955)" fill="#5a189a"/>
              <path id="Path_188140" data-name="Path 188140" d="M61.834,56.843l-.01,3.238L46.535,51.254l.008-3.238Z" transform="translate(17.292 17.843)" fill="#5a189a"/>
              <path id="Path_188141" data-name="Path 188141" d="M59.522,60.816l-.01,3.238L52.7,60.12l.008-3.238Z" transform="translate(19.583 21.137)" fill="#5a189a"/>
              <path id="Path_188142" data-name="Path 188142" d="M56.636,80.382l-.01,3.238L37.438,72.542l.007-3.238Z" transform="translate(13.912 25.753)" fill="#5a189a"/>
              <path id="Path_188143" data-name="Path 188143" d="M60.35,71.912l-.008,3.238-9.985-5.765.01-3.238Z" transform="translate(18.713 24.58)" fill="#5a189a"/>
              <path id="Path_188144" data-name="Path 188144" d="M63.179,89.469l-.01,3.238L42.583,80.821l.008-3.238Z" transform="translate(15.824 28.83)" fill="#5a189a"/>
              <path id="Path_188145" data-name="Path 188145" d="M61.773,78.042l-.01,3.238L46.474,72.452l.01-3.238Z" transform="translate(17.27 25.72)" fill="#5a189a"/>
              <path id="Path_188146" data-name="Path 188146" d="M59.463,82.014l-.011,3.238-6.813-3.934.008-3.238Z" transform="translate(19.561 29.015)" fill="#5a189a"/>
              <path id="Path_188147" data-name="Path 188147" d="M40.514,76.383l-.01,3.238L11.872,63.091l.008-3.24Z" transform="translate(4.412 22.241)" fill="#5a189a"/>
              <path id="Path_188148" data-name="Path 188148" d="M44.135,78.474l-.01,3.238-10.168-5.87.01-3.238Z" transform="translate(12.619 26.979)" fill="#5a189a"/>
            </g>
          </g>
        </g>
      </g>
    </g>
  </g>
</svg>
