<svg id="Group_126191" data-name="Group 126191" xmlns="http://www.w3.org/2000/svg" xmlns:xlink="http://www.w3.org/1999/xlink" width="89.923" height="90" viewBox="0 0 89.923 90">
  <defs>
    <clipPath id="clip-path">
      <rect id="Rectangle_36962" data-name="Rectangle 36962" width="89.924" height="90" fill="#ff6b00"/>
    </clipPath>
  </defs>
  <g id="Group_120497" data-name="Group 120497" clip-path="url(#clip-path)">
    <path id="Path_181685" data-name="Path 181685" d="M32.919,31h-.961q-11.152,0-22.3-.011a1.217,1.217,0,0,0-1.3.724,4.351,4.351,0,0,1-5.03,2.115,4.484,4.484,0,0,1-.027-8.653,4.361,4.361,0,0,1,5.046,2.084,1.235,1.235,0,0,0,1.288.752q11.2-.028,22.4-.013h.888c.134-.968.29-1.784-.875-2.314A3.729,3.729,0,0,1,30.6,24.14a1.132,1.132,0,0,0-1.163-.653c-4.154.021-8.309,0-12.463.022a2.446,2.446,0,0,1-1.906-.8c-1.547-1.588-3.127-3.145-4.7-4.71-.814-.81-1.436-.728-2.012.249a4.483,4.483,0,1,1-5.033-6.586,4.338,4.338,0,0,1,5.026,2.122,1.11,1.11,0,0,0,1.308.706A2.78,2.78,0,0,1,12.2,15.557c1.414,1.5,2.883,2.949,4.378,4.37a2.079,2.079,0,0,0,1.275.548c3.873.041,7.746.009,11.62.04a1.1,1.1,0,0,0,1.13-.7,4.349,4.349,0,0,1,6.282-1.571,1.006,1.006,0,0,0,1.241.026c1.595-.918,3.227-1.775,4.81-2.714a1.285,1.285,0,0,0,.53-.919,4.517,4.517,0,1,1,9.03.019,1.969,1.969,0,0,0,.467.878c.079.116.263.16.4.236l5.123,2.841a4.6,4.6,0,0,1,4.009-.988,4.538,4.538,0,0,1,3.451,3.769,4.384,4.384,0,0,1-2.274,4.473,1.14,1.14,0,0,0-.7,1.224c.035,1.687-.011,3.374.035,5.06a1.173,1.173,0,0,0,.492.837,4.493,4.493,0,1,1-4.549,7.727,1.161,1.161,0,0,0-.961-.032c-1.657.871-3.3,1.774-4.906,2.732a1.379,1.379,0,0,0-.575.984,4.519,4.519,0,1,1-9.037-.012,1.286,1.286,0,0,0-.5-.934c-1.637-.97-3.3-1.891-4.99-2.775a1.145,1.145,0,0,0-.961.041A4.474,4.474,0,0,1,30.5,39.059a1.248,1.248,0,0,0-.9-.537q-5.951-.053-11.9,0a1.678,1.678,0,0,0-1.034.461c-1.484,1.431-2.968,2.865-4.37,4.376A3.008,3.008,0,0,1,9.5,44.5a.937.937,0,0,0-1.087.6,4.35,4.35,0,0,1-5.062,2.235,4.483,4.483,0,0,1,0-8.675,4.433,4.433,0,0,1,5.082,2.222,1.053,1.053,0,0,0,1.85.2c1.6-1.583,3.2-3.164,4.765-4.779a2.543,2.543,0,0,1,1.993-.814c4.091.026,8.184,0,12.276.021.6,0,1.009-.061,1.319-.712a3.016,3.016,0,0,1,1.3-1.418c1.1-.493,1.187-1.27.985-2.378m13.567-8.942c0-.9.01-1.808,0-2.713a1.543,1.543,0,0,0-1.969-1.2q-2.539,1.395-5.062,2.818a1.275,1.275,0,0,0-.021,2.057q2.557,1.457,5.144,2.861a.847.847,0,0,0,.661.062c.792-.378,1.488-.81,1.272-1.924a10.475,10.475,0,0,1-.022-1.961m3-.109c0,.9-.01,1.808,0,2.714a1.544,1.544,0,0,0,1.977,1.184q2.5-1.37,4.982-2.768a1.25,1.25,0,0,0,0-2.158q-2.483-1.4-4.986-2.761a.976.976,0,0,0-.74-.1c-.812.36-1.474.82-1.263,1.927a10.631,10.631,0,0,1,.022,1.961m-13.5,7.514c0,.936-.016,1.87.005,2.806A1.651,1.651,0,0,0,37.9,33.387q2.581-1.415,5.141-2.866a1.276,1.276,0,0,0-.018-2.058q-2.561-1.453-5.149-2.854a1.044,1.044,0,0,0-.736.01,1.587,1.587,0,0,0-1.168,1.976,11.972,11.972,0,0,1,.019,1.868m22.492,4.148a5.479,5.479,0,0,1,.938-.566c.522-.18.579-.535.572-1.01-.021-1.716,0-3.431-.011-5.146a1.515,1.515,0,0,0-2.012-1.218q-2.5,1.37-4.982,2.767a1.266,1.266,0,0,0-.017,2.111c1.817,1.024,3.646,2.027,5.512,3.062m-12,3.446c0-.9.01-1.808,0-2.713a1.544,1.544,0,0,0-1.97-1.2q-2.539,1.395-5.062,2.818a1.278,1.278,0,0,0-.02,2.06q2.558,1.457,5.145,2.859a.843.843,0,0,0,.661.061c.795-.376,1.486-.811,1.271-1.924a10.484,10.484,0,0,1-.022-1.962m3-.139c0,.9-.009,1.808,0,2.713a1.515,1.515,0,0,0,2.03,1.183q2.457-1.35,4.9-2.72a1.253,1.253,0,0,0-.021-2.2c-1.6-.9-3.218-1.774-4.813-2.687a1.073,1.073,0,0,0-1.162,0,1.49,1.49,0,0,0-.952,1.748,18.078,18.078,0,0,1,.014,1.964M47.96,15.99a1.493,1.493,0,1,0-1.465-1.519A1.513,1.513,0,0,0,47.96,15.99m-41.972.046a1.492,1.492,0,1,0-1.531,1.454,1.51,1.51,0,0,0,1.531-1.454m29.993,5.93a1.492,1.492,0,1,0-1.461,1.525,1.51,1.51,0,0,0,1.461-1.525m26.995.063a1.492,1.492,0,1,0-1.524,1.462,1.509,1.509,0,0,0,1.524-1.462M4.51,28.005a1.493,1.493,0,1,0,1.478,1.507A1.506,1.506,0,0,0,4.51,28.005m43.461,2.985a1.493,1.493,0,1,0-1.476-1.508,1.511,1.511,0,0,0,1.476,1.508m-13.477,7.5A1.493,1.493,0,1,0,33,37a1.511,1.511,0,0,0,1.5,1.49m25.5-1.566a1.493,1.493,0,1,0,1.563-1.419,1.517,1.517,0,0,0-1.563,1.419M4.469,41.505a1.493,1.493,0,1,0,1.518,1.466,1.508,1.508,0,0,0-1.518-1.466m45.009,3a1.492,1.492,0,1,0-1.5,1.483,1.509,1.509,0,0,0,1.5-1.483" transform="translate(0 -1)" fill="#ff6b00"/>
    <path id="Path_181686" data-name="Path 181686" d="M17.927,42.4l2.844-.769a20.629,20.629,0,0,0,.778,2.348c1.03,2.2,2,4.442,3.215,6.538a69.926,69.926,0,0,1,8.917,23.694c.631,3.805.752,7.694,1.1,11.545.033.369,0,.743,0,1.18h21v-1q0-4.452,0-8.9c0-1.54.48-2.024,2-2.025q8.9,0,17.807,0H76.7V66c-1.488,0-3.005.022-4.522,0a7.438,7.438,0,0,1-6.936-4.964,21.836,21.836,0,0,1-.553-2.487H67.7c.082.376.148.766.251,1.146a4.447,4.447,0,0,0,4.09,3.3c1.247.049,2.5.014,3.748.016h.986v-2.33c0-1.062,0-2.125,0-3.187.005-1.48.494-1.979,1.953-1.982q4.17-.007,8.34,0H88.22c-.118-.388-.21-.7-.308-1.014C85.73,47.519,83.5,40.568,81.4,33.58a26.53,26.53,0,0,1-.493-4.265C79.249,16.3,68.394,5.17,55.394,3.4,42.71,1.681,32.664,6.275,25.152,16.569c-.162.222-.331.441-.534.71-.713-.455-1.392-.886-2.067-1.325a4.481,4.481,0,0,1-.385-.319,33.685,33.685,0,0,1,61.5,11.825,12.882,12.882,0,0,1,.288,2.038c.113,4.173,1.862,7.931,3.009,11.835,1.424,4.847,3,9.651,4.5,14.473.621,1.985.114,2.691-1.934,2.691H79.773V59.55q0,8.154,0,16.31c0,1.7-.442,2.137-2.176,2.137H58.778v1.084c0,3.03.006,6.061,0,9.092,0,1.283-.544,1.821-1.831,1.822Q45.276,90,33.608,90c-1.309,0-1.848-.551-1.818-1.923a64.7,64.7,0,0,0-2.438-19.44,70.005,70.005,0,0,0-7.214-16.605,35.869,35.869,0,0,1-4.21-9.632" transform="translate(-1.793 0)" fill="#ff6b00"/>
  </g>
</svg>
