<svg id="Group_127916" data-name="Group 127916" xmlns="http://www.w3.org/2000/svg" xmlns:xlink="http://www.w3.org/1999/xlink" width="423.682" height="438.358" viewBox="0 0 423.682 438.358">
  <defs>
    <clipPath id="clip-path">
      <rect id="Rectangle_39762" data-name="Rectangle 39762" width="423.682" height="438.358" fill="none"/>
    </clipPath>
    <clipPath id="clip-path-2">
      <rect id="Rectangle_39651" data-name="Rectangle 39651" width="423.682" height="438.359" fill="none"/>
    </clipPath>
    <clipPath id="clip-path-3">
      <path id="Path_194572" data-name="Path 194572" d="M1350.018,2061.821l98.887,23.89,110.682-24.193-112.194-3.931Z" transform="translate(-1350.018 -2057.587)" fill="none"/>
    </clipPath>
    <linearGradient id="linear-gradient" x1="-1.009" y1="4.126" x2="-1.008" y2="4.126" gradientUnits="objectBoundingBox">
      <stop offset="0" stop-color="#aa80f9"/>
      <stop offset="0.996" stop-color="#6165d7"/>
      <stop offset="1" stop-color="#6165d7"/>
    </linearGradient>
    <clipPath id="clip-path-4">
      <path id="Path_194573" data-name="Path 194573" d="M1257.236,2372.592v.084c0,7.633,6.172,15.5,14.115,17.641l78.876,21.228,5.722-36.462-84.6-13.844a14.85,14.85,0,0,0-2.579-.231,11.154,11.154,0,0,0-11.536,11.583" transform="translate(-1257.236 -2361.009)" fill="#ff6b00"/>
    </clipPath>
    <clipPath id="clip-path-5">
      <path id="Path_194574" data-name="Path 194574" d="M1796.814,2407.778c-7.982.636-14.545,7.458-14.545,15.228v5.271c0,7.771,6.563,13.337,14.545,12.446l127.447-14.233c-6.941-8.537-5.64-18.359,0-28.857Z" transform="translate(-1782.269 -2397.634)" fill="#fff4eb"/>
    </clipPath>
    <clipPath id="clip-path-6">
      <path id="Path_194575" data-name="Path 194575" d="M1906.924,2387.85l-127.488,9.943c-10.412.812-19.039,9.756-19.039,19.922v.112c0,10.167,8.628,17.459,19.039,16.278l127.488-14.455a1.686,1.686,0,0,0,1.388-1.692,1.288,1.288,0,0,0-1.388-1.382l-127.488,14.019c-8.376.921-15.292-4.961-15.292-13.126v-.111c0-8.165,6.916-15.371,15.292-16.053l127.488-10.379a1.619,1.619,0,0,0,1.388-1.647,1.347,1.347,0,0,0-1.289-1.431c-.033,0-.066,0-.1,0" transform="translate(-1760.396 -2387.846)" fill="#ff6b00"/>
    </clipPath>
    <clipPath id="clip-path-7">
      <path id="Path_194576" data-name="Path 194576" d="M1257.236,2104v.126c0,11.46,6.172,21.873,14.115,23.274l82.19,13.929,5-54.351-87.187-3.239q-.188-.007-.375-.007c-7.762,0-13.74,8.988-13.74,20.267" transform="translate(-1257.236 -2083.73)" fill="none"/>
    </clipPath>
    <linearGradient id="linear-gradient-2" x1="-2.446" y1="1.233" x2="-2.444" y2="1.233" xlink:href="#linear-gradient"/>
    <clipPath id="clip-path-8">
      <path id="Path_194577" data-name="Path 194577" d="M1803.957,2100.35c-11.865.323-21.688,10.05-21.688,21.718v7.916c0,11.668,9.823,20.385,21.688,19.491l120.3-9.074c-6.922-12.867-5.658-27.6,0-43.33Z" transform="translate(-1782.269 -2097.07)" fill="#f0e2ff"/>
    </clipPath>
    <clipPath id="clip-path-9">
      <path id="Path_194578" data-name="Path 194578" d="M1906.924,2083.062l-127.488,3.169c-10.412.259-19.039,12.892-19.039,28.156v.168c0,15.264,8.628,27.01,19.039,26.2l127.488-9.943c.767-.06,1.388-1.14,1.388-2.413s-.621-2.259-1.388-2.2l-127.488,9.288c-8.376.61-15.292-8.86-15.292-21.121v-.167c0-12.26,6.916-22.442,15.292-22.693l127.488-3.823c.767-.023,1.388-1.073,1.388-2.346s-.609-2.27-1.366-2.27h-.021" transform="translate(-1760.396 -2083.062)" fill="none"/>
    </clipPath>
    <linearGradient id="linear-gradient-3" x1="-1.864" y1="1.915" x2="-1.863" y2="1.915" xlink:href="#linear-gradient"/>
    <clipPath id="clip-path-11">
      <rect id="Rectangle_39659" data-name="Rectangle 39659" width="20.531" height="36.847" fill="none"/>
    </clipPath>
    <clipPath id="clip-path-12">
      <rect id="Rectangle_39660" data-name="Rectangle 39660" width="229.956" height="277.117" fill="none"/>
    </clipPath>
    <clipPath id="clip-path-13">
      <path id="Path_194581" data-name="Path 194581" d="M1172.464,2452.058c0,7.458,11.419,13.5,25.505,13.5s25.5-6.045,25.5-13.5-11.419-13.5-25.5-13.5-25.505,6.046-25.505,13.5" transform="translate(-1172.464 -2438.555)" fill="none"/>
    </clipPath>
    <linearGradient id="linear-gradient-4" x1="-5.815" y1="1.294" x2="-5.81" y2="1.294" gradientUnits="objectBoundingBox">
      <stop offset="0" stop-color="#26264f"/>
      <stop offset="0.004" stop-color="#26264f"/>
      <stop offset="1" stop-color="#444b8c"/>
    </linearGradient>
    <clipPath id="clip-path-14">
      <path id="Path_194582" data-name="Path 194582" d="M1118.956,2384.558a12.114,12.114,0,0,0,6.866,10.948c5.846,2.788,15.566,5.848,29.693,5.485,11.46-.293,18.933-2.165,23.684-4.131a12.315,12.315,0,0,0,7.532-11.405v-7.63l-67.774-7.057Z" transform="translate(-1118.956 -2370.768)" fill="none"/>
    </clipPath>
    <linearGradient id="linear-gradient-5" x1="-3.007" y1="1.197" x2="-3.004" y2="1.197" xlink:href="#linear-gradient-4"/>
    <clipPath id="clip-path-16">
      <rect id="Rectangle_39665" data-name="Rectangle 39665" width="67.773" height="21.948" fill="none"/>
    </clipPath>
    <clipPath id="clip-path-17">
      <path id="Path_194583" data-name="Path 194583" d="M1118.957,2382.847a13.409,13.409,0,0,0,3.573,2.5c6.559,3.127,49.519,10.116,59.882,6.222a13.939,13.939,0,0,0,3.617-2,12.491,12.491,0,0,0,.7-4.113v-7.629l-67.774-7.057Z" transform="translate(-1118.957 -2370.768)" fill="none"/>
    </clipPath>
    <linearGradient id="linear-gradient-6" x1="-2.586" y1="2.712" x2="-2.584" y2="2.712" xlink:href="#linear-gradient-4"/>
    <clipPath id="clip-path-18">
      <path id="Path_194584" data-name="Path 194584" d="M1092.592,2317.119v.391a13.59,13.59,0,0,0,7.7,12.283c6.559,3.128,49.519,10.116,59.881,6.223a12.519,12.519,0,0,0,8.45-12.011v-.315a6.468,6.468,0,0,0-5.8-6.434l-63.1-6.57a6.461,6.461,0,0,0-7.139,6.434" transform="translate(-1092.592 -2310.649)" fill="none"/>
    </clipPath>
    <linearGradient id="linear-gradient-7" x1="-2.928" y1="1.263" x2="-2.925" y2="1.263" xlink:href="#linear-gradient-4"/>
    <clipPath id="clip-path-20">
      <rect id="Rectangle_39669" data-name="Rectangle 39669" width="73.813" height="17.938" fill="none"/>
    </clipPath>
    <clipPath id="clip-path-21">
      <path id="Path_194585" data-name="Path 194585" d="M1168.715,2317.256l-63.1-6.57a6.456,6.456,0,0,0-6.045,2.847,13.5,13.5,0,0,0,6.609,6.932c6.559,3.128,51.349,11.027,59.882,7.007a14.805,14.805,0,0,0,7.322-7.42,6.456,6.456,0,0,0-4.672-2.8" transform="translate(-1099.573 -2310.65)" fill="none"/>
    </clipPath>
    <linearGradient id="linear-gradient-8" x1="-2.334" y1="3.637" x2="-2.331" y2="3.637" xlink:href="#linear-gradient-4"/>
    <clipPath id="clip-path-22">
      <path id="Path_194586" data-name="Path 194586" d="M1097.262,2168.257a4.67,4.67,0,0,0-4.67,4.67v10.8a13.59,13.59,0,0,0,7.7,12.282c6.559,3.128,51.349,11.028,59.881,7.007a14.25,14.25,0,0,0,8.45-12.8v-17.294a4.67,4.67,0,0,0-4.67-4.67Z" transform="translate(-1092.592 -2168.257)" fill="none"/>
    </clipPath>
    <linearGradient id="linear-gradient-9" x1="-2.251" y1="2.545" x2="-2.249" y2="2.545" xlink:href="#linear-gradient-4"/>
    <clipPath id="clip-path-23">
      <path id="Path_194587" data-name="Path 194587" d="M1098.595,2142.527c0,4.841,16.6,8.766,37.077,8.766s37.076-3.925,37.076-8.766-16.6-8.766-37.076-8.766-37.077,3.925-37.077,8.766" transform="translate(-1098.595 -2133.761)" fill="none"/>
    </clipPath>
    <linearGradient id="linear-gradient-10" x1="-5.91" y1="1.752" x2="-5.905" y2="1.752" xlink:href="#linear-gradient-4"/>
    <clipPath id="clip-path-24">
      <path id="Path_194588" data-name="Path 194588" d="M601.3,553.611c0,36.694,18.96,69.17,48.06,89.034A45.162,45.162,0,0,1,669.2,679.91v8.378a32.96,32.96,0,0,0,32.961,32.96H730.4a32.96,32.96,0,0,0,32.96-32.96V679.91A45.163,45.163,0,0,1,783.2,642.646c29.1-19.864,48.061-52.34,48.061-89.034,0-60.464-51.477-109.479-114.978-109.479S601.3,493.148,601.3,553.611" transform="translate(-601.302 -444.132)" fill="none"/>
    </clipPath>
    <linearGradient id="linear-gradient-11" x1="-0.111" y1="1.145" x2="-0.111" y2="1.145" gradientUnits="objectBoundingBox">
      <stop offset="0" stop-color="#fcb148"/>
      <stop offset="0.052" stop-color="#fdb946"/>
      <stop offset="0.143" stop-color="#fec144"/>
      <stop offset="0.318" stop-color="#ffc444"/>
      <stop offset="0.484" stop-color="#fdb946"/>
      <stop offset="0.773" stop-color="#f99c4c"/>
      <stop offset="0.866" stop-color="#f8924f"/>
      <stop offset="1" stop-color="#f8924f"/>
    </linearGradient>
    <clipPath id="clip-path-26">
      <rect id="Rectangle_39674" data-name="Rectangle 39674" width="54.26" height="12.828" fill="none"/>
    </clipPath>
    <clipPath id="clip-path-27">
      <path id="Path_194590" data-name="Path 194590" d="M1154.111,1159.786a1.567,1.567,0,0,0-1.355,1.755l19.958,155.213a1.568,1.568,0,0,0,1.553,1.368,1.522,1.522,0,0,0,.2-.013,1.568,1.568,0,0,0,1.356-1.755l-19.959-155.213a1.559,1.559,0,0,0-1.755-1.355" transform="translate(-1152.742 -1159.772)" fill="none"/>
    </clipPath>
    <linearGradient id="linear-gradient-12" x1="-0.721" y1="2.921" x2="-0.72" y2="2.921" gradientUnits="objectBoundingBox">
      <stop offset="0" stop-color="#ebeff2"/>
      <stop offset="0.494" stop-color="#ebeff2"/>
      <stop offset="1" stop-color="#fff"/>
    </linearGradient>
    <clipPath id="clip-path-28">
      <path id="Path_194591" data-name="Path 194591" d="M1379.233,1161.139l-19.959,155.213a1.567,1.567,0,0,0,1.355,1.755,1.507,1.507,0,0,0,.2.013,1.568,1.568,0,0,0,1.553-1.368l19.959-155.213a1.568,1.568,0,1,0-3.11-.4" transform="translate(-1359.261 -1159.77)" fill="none"/>
    </clipPath>
    <linearGradient id="linear-gradient-13" x1="-0.927" y1="2.921" x2="-0.926" y2="2.921" xlink:href="#linear-gradient-12"/>
    <clipPath id="clip-path-29">
      <path id="Path_194592" data-name="Path 194592" d="M1178.852,1066.283a3.381,3.381,0,0,0-2.792,1.7l-5.772,9.965a1.568,1.568,0,0,0,2.713,1.572l5.772-9.965a.248.248,0,0,1,.211-.135.287.287,0,0,1,.223.119l6.324,9.06a3.4,3.4,0,0,0,2.785,1.46h.007a3.39,3.39,0,0,0,2.779-1.467l4.387-6.341a.264.264,0,0,1,.209-.114.255.255,0,0,1,.216.124l4.993,7.487a3.385,3.385,0,0,0,5.736-.14l3.637-6.091a.245.245,0,0,1,.213-.132.249.249,0,0,1,.224.126l5.509,8.357a1.568,1.568,0,0,0,2.618-1.725l-5.509-8.357a3.385,3.385,0,0,0-5.747.124l-3.636,6.091a.245.245,0,0,1-.212.131c-.083.031-.167-.039-.223-.123l-4.993-7.486a3.383,3.383,0,0,0-5.612-.054l-4.387,6.341a.246.246,0,0,1-.207.115h0a.254.254,0,0,1-.214-.118l-6.324-9.06a3.377,3.377,0,0,0-2.76-1.461c-.056,0-.111,0-.167,0" transform="translate(-1170.076 -1066.279)" fill="none"/>
    </clipPath>
    <linearGradient id="linear-gradient-14" x1="-6.111" y1="5.554" x2="-6.106" y2="5.554" xlink:href="#linear-gradient-12"/>
    <clipPath id="clip-path-31">
      <rect id="Rectangle_39680" data-name="Rectangle 39680" width="190.359" height="259.312" fill="none"/>
    </clipPath>
    <clipPath id="clip-path-32">
      <path id="Path_194593" data-name="Path 194593" d="M718.366,735.817c2.463-42.2,73.6-52.073,73.295-89.757-.188-23.21-28.456-40.446-34.492-43.9-44.478-25.439-99.224,3.937-110.53-16.854-2.815-5.177-1.5-10.812-.744-14.021a30.069,30.069,0,0,1,7.524-13.5c-31.381,19.548-52.118,53.3-52.118,91.675,0,36.694,18.96,69.171,48.06,89.034A45.163,45.163,0,0,1,669.2,775.762v8.378a32.96,32.96,0,0,0,32.96,32.96H730.4a32.96,32.96,0,0,0,32.96-32.96v-6.7c-3.888,2.979-8.353,5.057-13.25,5.017-16.99-.14-32.974-25.644-31.748-46.642" transform="translate(-601.302 -557.788)" fill="none"/>
    </clipPath>
    <linearGradient id="linear-gradient-15" x1="-0.176" y1="1.504" x2="-0.175" y2="1.504" xlink:href="#linear-gradient-11"/>
    <clipPath id="clip-path-33">
      <rect id="Rectangle_39681" data-name="Rectangle 39681" width="198.245" height="188.13" fill="none"/>
    </clipPath>
    <clipPath id="clip-path-34">
      <path id="Path_194595" data-name="Path 194595" d="M1678.735,519.841a1.74,1.74,0,0,0,1.449,1.779l106.38,1.737c1.63.027,2.04,1.226,2.013,2.856l-1.176,72.029a1.781,1.781,0,0,0,3.509.057l1.176-72.029c.053-3.259-2.206-6.368-5.465-6.422l-106.381-1.737h-.017a1.747,1.747,0,0,0-1.489,1.73" transform="translate(-1678.735 -518.111)" fill="none"/>
    </clipPath>
    <linearGradient id="linear-gradient-16" x1="-1.993" y1="2.772" x2="-1.992" y2="2.772" gradientUnits="objectBoundingBox">
      <stop offset="0" stop-color="#ffc444"/>
      <stop offset="0.996" stop-color="#f36f56"/>
      <stop offset="1" stop-color="#f36f56"/>
    </linearGradient>
    <clipPath id="clip-path-35">
      <path id="Path_194596" data-name="Path 194596" d="M2362.343,934.24l-1.31,2.307a3.986,3.986,0,0,0-.529,1.816l-.32,19.595c-.007.421,2.13.8,4.374.833s4.392-.269,4.4-.69l.321-19.65a4.324,4.324,0,0,0-.769-1.948l-1.376-2.26a2.781,2.781,0,0,0-2.412-1.39,2.722,2.722,0,0,0-2.376,1.388" transform="translate(-2360.184 -932.852)" fill="none"/>
    </clipPath>
    <linearGradient id="linear-gradient-17" x1="-13.415" y1="23.339" x2="-13.409" y2="23.339" xlink:href="#linear-gradient-16"/>
    <clipPath id="clip-path-36">
      <path id="Path_194597" data-name="Path 194597" d="M1140.076,0,1017.507,19.771l-.112.366-.407,1.33,3.72,1.138,65.064,61.3a249.933,249.933,0,0,1,39,17.719L1225.331,85.2l4.754,1.454.407-1.33.14-.458Z" transform="translate(-1016.988 0.004)" fill="none"/>
    </clipPath>
    <linearGradient id="linear-gradient-18" x1="-1.47" y1="2.205" x2="-1.469" y2="2.205" xlink:href="#linear-gradient"/>
    <clipPath id="clip-path-37">
      <path id="Path_194598" data-name="Path 194598" d="M1016.917,29.626l64.761,61.012a249.869,249.869,0,0,1,45.953,20.767l102.112-16.672L1139.407,9.627Z" transform="translate(-1016.917 -9.627)" fill="#7926cb"/>
    </clipPath>
    <clipPath id="clip-path-38">
      <path id="Path_194599" data-name="Path 194599" d="M1191.576,208.565a8.273,8.273,0,0,0-3.561,2.764,4.656,4.656,0,0,0-.7,1.383l-10.437,34.119a243.232,243.232,0,0,1,27.408,5.852,238.974,238.974,0,0,1,58.66,24.746c11.847,7.075,31.493,19.992,43.645,31.244l16.637-54.384c.529-1.728.081-3.682-1.21-5.82-6.012-9.858-30.45-23.187-61.341-32.637-20.764-6.352-40.093-9.62-53.722-9.62-6.647,0-11.938.777-15.38,2.353" transform="translate(-1176.879 -206.212)" fill="#5a189a"/>
    </clipPath>
    <clipPath id="clip-path-40">
      <rect id="Rectangle_39689" data-name="Rectangle 39689" width="32.243" height="42.922" fill="none"/>
    </clipPath>
    <clipPath id="clip-path-41">
      <path id="Path_194600" data-name="Path 194600" d="M1209.122,280.664a24,24,0,0,1-.369-7.242c1.505-15.118-11.859-28.473-20.738-35.5l-.221-.177-10.915,35.68a241.083,241.083,0,0,1,32.243,7.241" transform="translate(-1176.879 -237.743)" fill="none"/>
    </clipPath>
    <linearGradient id="linear-gradient-19" x1="-3.406" y1="8.832" x2="-3.403" y2="8.832" xlink:href="#linear-gradient"/>
    <clipPath id="clip-path-42">
      <path id="Path_194601" data-name="Path 194601" d="M1846.825,981.714c-1.1,2.529-.716,4.414-1.359,4.559-.359.081-.76-.445-1.128-.97s-.708-1.053-.941-.97c-.361.128.051,1.595.1,3.007.032,1,2.7,5.934,2.7,5.934l1.471-1.05a5.858,5.858,0,0,1-.145-4.511c.922-2.538.793-6.548,1.246-8.067.109-.367.077-.583-.04-.664a.075.075,0,0,0-.044-.013c-.3,0-1.266,1.4-1.856,2.746" transform="translate(-1843.25 -978.968)" fill="#ffe5ce"/>
    </clipPath>
    <clipPath id="clip-path-43">
      <path id="Path_194602" data-name="Path 194602" d="M1853.268,1048.5c2.042,6.4,7.161,18.949,19.646,27.821,2.915,2.072,20.622,14.656,31.276,7.4,5.223-3.556,7.17-10.8,7.254-15.752.042-2.458.133-7.831-2.9-9.607-4-2.345-9.574,3.851-15.983,5.686-6.739,1.93-17.775.007-36.171-18.885l-3.126,3.333" transform="translate(-1853.268 -1045.164)" fill="none"/>
    </clipPath>
    <linearGradient id="linear-gradient-20" x1="-4.847" y1="5.782" x2="-4.844" y2="5.782" xlink:href="#linear-gradient"/>
    <clipPath id="clip-path-44">
      <path id="Path_194603" data-name="Path 194603" d="M2224.928,2066.758c-.352.106-1.513.456-3.227,1.082a3.37,3.37,0,0,0-1.784,1.044c-.07.095-.7.955-.41,1.458.305.537,1.389.213,5.05-.28,2.317-.312,3.8-.44,4.014-1.212a1.64,1.64,0,0,0-.025-.55c-.082-.662-.206-1.675-.72-2.066a.589.589,0,0,0-.391-.126,12.829,12.829,0,0,0-2.507.649" transform="translate(-2219.433 -2066.109)" fill="none"/>
    </clipPath>
    <linearGradient id="linear-gradient-21" x1="-36.988" y1="23.903" x2="-36.971" y2="23.903" gradientUnits="objectBoundingBox">
      <stop offset="0" stop-color="#444b8c"/>
      <stop offset="0.996" stop-color="#26264f"/>
      <stop offset="1" stop-color="#26264f"/>
    </linearGradient>
    <clipPath id="clip-path-45">
      <path id="Path_194604" data-name="Path 194604" d="M2256.893,2050.136a2.273,2.273,0,0,0,2.346.213l.813-4.144-2.925-.266Z" transform="translate(-2256.893 -2045.939)" fill="#ffe5ce"/>
    </clipPath>
    <clipPath id="clip-path-46">
      <path id="Path_194605" data-name="Path 194605" d="M2012.8,2058.383a25.1,25.1,0,0,0-3.277,1.171c-1.91.709-2.483.894-2.488,1.218-.007.46,1.142.854,1.791,1.011,1.606.389,2.2-.184,4.539-.33a16.511,16.511,0,0,1,1.829-.006c.87.038,1.313.076,1.634-.318a2.068,2.068,0,0,0-.295-2.476,2.131,2.131,0,0,0-1.612-.562,11.494,11.494,0,0,0-2.123.292" transform="translate(-2007.035 -2058.091)" fill="none"/>
    </clipPath>
    <linearGradient id="linear-gradient-22" x1="-49.602" y1="10.883" x2="-49.578" y2="10.883" xlink:href="#linear-gradient-21"/>
    <clipPath id="clip-path-47">
      <path id="Path_194606" data-name="Path 194606" d="M2050.613,2041.545a2.274,2.274,0,0,0,2.323.392l1.623-3.849-2.9-.488Z" transform="translate(-2050.613 -2037.6)" fill="#ffe5ce"/>
    </clipPath>
    <clipPath id="clip-path-48">
      <path id="Path_194607" data-name="Path 194607" d="M2057.315,1533.2a366.183,366.183,0,0,1-6.978,43.045l4.535,1.065a38.148,38.148,0,0,0,10.367-17.364c1.279-4.941.72-7.441,1.438-13.492,1.143-9.633,3.921-14.75,6.71-22.579a127.258,127.258,0,0,0,6.7-31.016l-20.965-3.7a366.158,366.158,0,0,1-1.8,44.042" transform="translate(-2050.337 -1489.156)" fill="none"/>
    </clipPath>
    <linearGradient id="linear-gradient-23" x1="-3.119" y1="3.152" x2="-3.117" y2="3.152" gradientUnits="objectBoundingBox">
      <stop offset="0" stop-color="#311944"/>
      <stop offset="0.741" stop-color="#5c3169"/>
      <stop offset="1" stop-color="#6b3976"/>
    </linearGradient>
    <clipPath id="clip-path-50">
      <rect id="Rectangle_39699" data-name="Rectangle 39699" width="29.748" height="88.152" fill="none"/>
    </clipPath>
    <clipPath id="clip-path-51">
      <path id="Path_194608" data-name="Path 194608" d="M2059.12,1489.156c4.194,2.989,9.439,7.747,9.469,13.681.022,4.4-2.849,5.306-4.794,11.793-2.385,7.954.9,10.038-.649,20.066-1.152,7.464-2.911,5.918-4.691,15.023-1.585,8.107-.65,11.688-3.3,18.211a34.761,34.761,0,0,1-4.822,8.312l4.535,1.065a38.148,38.148,0,0,0,10.367-17.364c1.279-4.941.72-7.441,1.438-13.492,1.143-9.633,3.921-14.75,6.71-22.578a127.264,127.264,0,0,0,6.7-31.017l-20.965-3.7" transform="translate(-2050.337 -1489.156)" fill="none"/>
    </clipPath>
    <clipPath id="clip-path-52">
      <path id="Path_194609" data-name="Path 194609" d="M2211.818,1485.272q2.179,25.008,3.878,50.956,1.269,19.467,2.187,38.448l4.611.42a53.518,53.518,0,0,0,4.394-12.516c1.425-6.607.921-10.487,1.42-17.3.561-7.646,1.676-9.343,3.437-19.021,3.576-19.642,5.364-29.462.484-35.379-1.424-1.726-5.548-5.767-16.454-5.768-1.231,0-2.547.052-3.958.164" transform="translate(-2211.818 -1485.109)" fill="none"/>
    </clipPath>
    <linearGradient id="linear-gradient-25" x1="-3.45" y1="2.939" x2="-3.448" y2="2.939" xlink:href="#linear-gradient-23"/>
    <clipPath id="clip-path-53">
      <path id="Path_194610" data-name="Path 194610" d="M2162.048,996.564c-3.709.2-9.256,2.072-11.35,6.236-1.713,3.405.6,4.922.764,13.457.131,6.964-1.331,10.255.424,11.314,1.723,1.04,6.18-.293,8.708-2.167a4.159,4.159,0,0,1,2.755-1.073,3.847,3.847,0,0,1,2.421,1.317,51.963,51.963,0,0,0,10.993,10.23,50.124,50.124,0,0,0,19.788,8.224c8.247,1.293,20.551,3.258,27.082-4.807,5.76-7.114,5.222-19.795-.625-24.591-2.974-2.44-6.515-2.065-10.349-1.69-4.133.4-8.607.809-13.077-2.316-5.315-3.715-3.091-7.416-8.542-10.554-2.917-1.679-5.124-1.547-8.3-1.415a44.121,44.121,0,0,1-12.787-1.107,36.09,36.09,0,0,0-6.826-1.153,10.337,10.337,0,0,0-1.083.095" transform="translate(-2150.071 -996.469)" fill="none"/>
    </clipPath>
    <linearGradient id="linear-gradient-26" x1="-3.87" y1="3.199" x2="-3.869" y2="3.199" gradientUnits="objectBoundingBox">
      <stop offset="0" stop-color="#311944"/>
      <stop offset="1" stop-color="#6b3976"/>
    </linearGradient>
    <clipPath id="clip-path-54">
      <path id="Path_194611" data-name="Path 194611" d="M2094.973,1126.7c-6.868.5-7.6,1.246-8.207,1.964a25.442,25.442,0,0,0-5.283,10.7,19.2,19.2,0,0,0-.336,3.47,41.364,41.364,0,0,0,.7,7.839c1.806,8.636-2.6,28.728-2.859,29.884-2.552,11.434-4.536,13.238-2.792,15.95,4.1,6.374,19.794,3.786,23.233,3.219,10.332-1.7,11.749-5.139,18.379-3.894,6.345,1.191,9.261,5.127,13.991,3.516,2.472-.842,5.1-3.083,5.112-5.451.018-3.289-5.021-4.721-9.518-8.286-9.456-7.495-11.108-20.13-11.262-21.447-1.345-11.5,5.649-16.25,2.559-28.868-.881-3.6-1.93-5.2-2.95-6.287-2.8-2.975-7.01-3.826-10.907-3.826a35.754,35.754,0,0,0-9.86,1.52" transform="translate(-2075.535 -1125.18)" fill="none"/>
    </clipPath>
    <linearGradient id="linear-gradient-27" x1="-4.971" y1="3.302" x2="-4.969" y2="3.302" xlink:href="#linear-gradient"/>
    <clipPath id="clip-path-56">
      <rect id="Rectangle_39705" data-name="Rectangle 39705" width="61.274" height="71.717" fill="none"/>
    </clipPath>
    <clipPath id="clip-path-57">
      <path id="Path_194612" data-name="Path 194612" d="M2116.29,1149.6c1.446-.062,2.753,5.486,2.95,6.287,3.09,12.618-3.9,17.372-2.559,28.868.154,1.317,1.807,13.952,11.262,21.447,4.5,3.564,9.536,5,9.518,8.286-.012,2.367-2.64,4.609-5.112,5.451-4.73,1.611-7.647-2.325-13.991-3.516-6.63-1.245-8.048,2.191-18.379,3.894-3.439.567-19.136,3.155-23.234-3.219-.423-.658-.584-.947-.554-1.235.333-3.172,15.019-.768,18.492-6.642,3.393-5.739-6.19-15.535-3.186-18.65,2.347-2.433,8.7,3.01,13.586.21,3.062-1.756,3.454-5.557,4.732-13.731,2.245-14.354,4.278-27.355,6.474-27.45" transform="translate(-2076.187 -1149.602)" fill="none"/>
    </clipPath>
    <linearGradient id="linear-gradient-28" x1="-5.09" y1="3.418" x2="-5.088" y2="3.418" xlink:href="#linear-gradient"/>
    <clipPath id="clip-path-58">
      <path id="Path_194613" data-name="Path 194613" d="M2162.025,1079.033q-.174,1.419-.349,2.838a25.941,25.941,0,0,0-2.894.809,37.815,37.815,0,0,0-4.44,2.388,13.433,13.433,0,0,0,2.233,1.856,19.887,19.887,0,0,0,5.981,1.623c.76.113,6.088.821,8.622-2.655a6.667,6.667,0,0,0,1.2-3.4c-.646-.056-1.562-.152-2.656-.321a10.574,10.574,0,0,1-2.948-.645c-2.034-1.19-1.2-6.094-1.035-7.008l-3.718,4.514" transform="translate(-2154.342 -1074.519)" fill="#ffe5ce"/>
    </clipPath>
    <clipPath id="clip-path-59">
      <path id="Path_194614" data-name="Path 194614" d="M2178.678,1053.168a4.164,4.164,0,0,0-2.936,1.327c-1.528,1.994,1.052,9.429,4.142,8.765a4.863,4.863,0,0,0,3.7-4.323,2.522,2.522,0,0,0,.8-1.318c.044-.2.24-1.081-.188-1.368-.337-.226-1-.042-1.521.541a4.621,4.621,0,0,0-3.989-3.625h0" transform="translate(-2175.289 -1053.168)" fill="#ffe5ce"/>
    </clipPath>
    <clipPath id="clip-path-61">
      <path id="Path_194616" data-name="Path 194616" d="M2151.751,1336.526q-.969.031.063,1.938c.687,1.271-2.563.729-3.9-.521s-2.625-1.209-1.958-.584a5.136,5.136,0,0,1,1.354,1.9,6.641,6.641,0,0,0,7.1,4.622l1.4-1.662s-1.979-1.23-2.021-2.521-1.381-3.168-2.031-3.168h-.011" transform="translate(-2145.777 -1336.526)" fill="#ffe5ce"/>
    </clipPath>
    <clipPath id="clip-path-62">
      <path id="Path_194617" data-name="Path 194617" d="M2212.242,1133.219c-3.512,1.7-4.384,10.2-1.419,16.212,3.349,6.8,10.391,7.991,10.1,12.608-.153,2.478-2.309,4.184-3.71,5.292-6.606,5.227-15.974,2.317-17.4,1.852l-1.813,3.938c13.9,9.942,30.316,7.656,36.195-.515,7.046-9.8-2.713-25.726-9.455-32.675-1.122-1.156-6.835-7.046-10.961-7.046a3.49,3.49,0,0,0-1.541.334" transform="translate(-2198.004 -1132.885)" fill="none"/>
    </clipPath>
    <linearGradient id="linear-gradient-29" x1="-7.663" y1="5.075" x2="-7.659" y2="5.075" xlink:href="#linear-gradient"/>
    <clipPath id="clip-path-64">
      <path id="Path_194627" data-name="Path 194627" d="M629.348,1939.623v17.919a.815.815,0,0,0,.76.8l32.2,1.929a.814.814,0,0,0,.912-.774v-19.674a.878.878,0,0,0-.912-.833l-32.2-.121h0a.754.754,0,0,0-.758.752" transform="translate(-629.348 -1938.871)" fill="none"/>
    </clipPath>
    <linearGradient id="linear-gradient-30" x1="-2.911" y1="6.282" x2="-2.906" y2="6.282" gradientUnits="objectBoundingBox">
      <stop offset="0" stop-color="#ff9085"/>
      <stop offset="1" stop-color="#fb6fbb"/>
    </linearGradient>
    <clipPath id="clip-path-66">
      <rect id="Rectangle_39714" data-name="Rectangle 39714" width="36.496" height="24.462" fill="none"/>
    </clipPath>
    <clipPath id="clip-path-67">
      <path id="Path_194630" data-name="Path 194630" d="M520.579,2071.9l-17.5,2.053,38.43,2.77a2.5,2.5,0,0,0,.56-.022l16.161-2.478-37.066-2.338c-.069,0-.138-.006-.206-.006a3.245,3.245,0,0,0-.383.022" transform="translate(-503.084 -2071.88)" fill="none"/>
    </clipPath>
    <linearGradient id="linear-gradient-31" x1="-1.429" y1="23.422" x2="-1.426" y2="23.422" xlink:href="#linear-gradient-21"/>
    <clipPath id="clip-path-69">
      <rect id="Rectangle_39717" data-name="Rectangle 39717" width="40.409" height="3.224" fill="none"/>
    </clipPath>
    <clipPath id="clip-path-70">
      <path id="Path_194632" data-name="Path 194632" d="M556.771,2537.913c-.178.832,1.438,1.412,3.4,1.336s7.586-2.123,7.467-2.652-8.226-1.093-8.226-1.093l-1.778-.516s-.688,2.093-.865,2.925" transform="translate(-556.757 -2534.988)" fill="none"/>
    </clipPath>
    <linearGradient id="linear-gradient-32" x1="-17.318" y1="3.907" x2="-17.288" y2="3.907" xlink:href="#linear-gradient-4"/>
    <clipPath id="clip-path-71">
      <path id="Path_194633" data-name="Path 194633" d="M556.008,2515.377l1.089,4.035a2.974,2.974,0,0,0,2.212-.3l-.144-3.826Z" transform="translate(-556.008 -2515.29)" fill="#ffe5ce"/>
    </clipPath>
    <clipPath id="clip-path-72">
      <path id="Path_194634" data-name="Path 194634" d="M701.509,2528.065c-.178.832,1.438,1.412,3.4,1.336s7.586-2.123,7.467-2.652-8.226-1.093-8.226-1.093l-1.778-.516s-.687,2.093-.865,2.925" transform="translate(-701.495 -2525.14)" fill="none"/>
    </clipPath>
    <linearGradient id="linear-gradient-33" x1="-21.68" y1="4.041" x2="-21.65" y2="4.041" xlink:href="#linear-gradient-4"/>
    <clipPath id="clip-path-73">
      <path id="Path_194635" data-name="Path 194635" d="M700.747,2505.528l1.089,4.035a2.974,2.974,0,0,0,2.212-.3l-.144-3.826Z" transform="translate(-700.747 -2505.44)" fill="#ffe5ce"/>
    </clipPath>
    <clipPath id="clip-path-74">
      <path id="Path_194636" data-name="Path 194636" d="M245.245,2188.674c-21.844,4-32.811,6.1-35.022,10.921-2.141,4.67.057,9.652.505,10.6,2.965,6.3,10.68,9.2,16.59,9.364,6.718.188,12.255-3.119,16.671-6.426,5.054-3.784,8.64-7.568,10.85-6.116,2.925,1.923-1.632,9.647,1.515,20.367a30.536,30.536,0,0,0,6.733,11.782l4.545-.5c1.487-8.827,7.109-45.219-6.373-51.656a5.4,5.4,0,0,0-2.271-.368c-2.61,0-6.963.792-13.742,2.033" transform="translate(-209.301 -2186.641)" fill="none"/>
    </clipPath>
    <linearGradient id="linear-gradient-34" x1="-0.267" y1="1.361" x2="-0.265" y2="1.361" gradientUnits="objectBoundingBox">
      <stop offset="0" stop-color="#893976"/>
      <stop offset="1" stop-color="#311944"/>
    </linearGradient>
    <clipPath id="clip-path-75">
      <path id="Path_194637" data-name="Path 194637" d="M297.381,2215.23c-29.787,5.8-38.829,5.008-41.574,11.614a11.314,11.314,0,0,0,1.515,10.6c4.773,6.356,16.568,4.643,21.881,3.872,16.243-2.358,21.2-10.908,27.772-7.743,3.1,1.5,2.98,3.855,9.695,15.473,3.221,5.573,6.1,9.966,8,12.769l4.7-.818c.04-7.632-.266-41.848-15.981-47.436a7.909,7.909,0,0,0-2.865-.516c-2.164,0-5.458.683-13.149,2.181" transform="translate(-255.088 -2213.049)" fill="none"/>
    </clipPath>
    <linearGradient id="linear-gradient-35" x1="-0.521" y1="1.88" x2="-0.519" y2="1.88" xlink:href="#linear-gradient-34"/>
    <clipPath id="clip-path-76">
      <path id="Path_194638" data-name="Path 194638" d="M227.721,1869.944c-2.692.2-9.341.7-14.267,4.968-2.384,2.066-4.29,4.95-7.069,21.208-3.876,22.673-.73,20.349-3.787,29.54-1.618,4.863-4.138,10.443-1.472,14.006.861,1.151,2.091,1.481,4.6,2.61,9.367,4.215,17.765,3.488,22.868,2.983,5.615-.556,8.453-.875,9.942-2.859,2.378-3.169-.07-7.2-.5-14.168-.307-5,.831-8.971,3.107-16.9,5.291-18.439,12.159-23.453,9.2-30.7-1.546-3.782-4.866-5.956-6.587-7.084a14.326,14.326,0,0,0-2.466-1.318,33.728,33.728,0,0,0-12.258-2.325c-.627,0-1.078.021-1.309.039" transform="translate(-199.96 -1869.905)" fill="#ffb600"/>
    </clipPath>
    <clipPath id="clip-path-77">
      <path id="Path_194639" data-name="Path 194639" d="M696.034,2074.811l-5.985,1.151.25,1.841a11.568,11.568,0,0,1,5.987-1.186,14.183,14.183,0,0,0,6.228-.929l-5.177-.89a3.646,3.646,0,0,0-1.3.013" transform="translate(-690.049 -2074.746)" fill="#ffe5ce"/>
    </clipPath>
    <clipPath id="clip-path-78">
      <path id="Path_194640" data-name="Path 194640" d="M357.876,1788.772c-.859.183-1.774,3.685-1.513,8.634q-.053.284-.1.571-.2,1.172-.326,2.3c-.08.717-1.1.7-1.815.655-2.921-.186-4.35.062-4.474.5-.233.815,3.231,3.48,7.509,4.079,5.741.043,10.411-.568,9.909-1.472-.223-.4-4.671-1.564-5.922-2.716a3.827,3.827,0,0,1-1.146-2.923c.592.031,2.567.073,3.334-1.087,1.006-1.521-.5-4.447-1.1-5.6-.021-.04-.047-.092-.1-.2-.915-1.689-1.15-1.92-1.587-2.212l-.607-.375-.072-.027a6.483,6.483,0,0,0-1.525-.146,2.832,2.832,0,0,0-.461.025" transform="translate(-349.633 -1788.747)" fill="#ffe5ce"/>
    </clipPath>
    <clipPath id="clip-path-80">
      <path id="Path_194642" data-name="Path 194642" d="M411.281,1821.2c0,.668.644,1.363,1.272,1.231s.274-1.173-.232-1.868a.466.466,0,0,0-.38-.216.806.806,0,0,0-.66.854" transform="translate(-411.281 -1820.345)" fill="#ffe5ce"/>
    </clipPath>
    <clipPath id="clip-path-82">
      <rect id="Rectangle_39731" data-name="Rectangle 39731" width="43.861" height="58.725" fill="none"/>
    </clipPath>
    <clipPath id="clip-path-83">
      <path id="Path_194643" data-name="Path 194643" d="M239.717,2030.294c1.652-3.289-2.4-7.662.249-12.677,2.246-4.259,6.326-3.3,8.2-7.208,2.266-4.715-2.662-8.238-2.486-15.411.211-8.574,7.589-17.158,11.931-16.405,2.809.487,3.17,4.678,5.147,9.266a104.183,104.183,0,0,0-5.644,15.093c-2.276,7.932-3.414,11.9-3.107,16.9.427,6.971,2.875,11,.5,14.168-1.489,1.984-4.327,2.3-9.942,2.858-5.1.505-13.5,1.232-22.868-2.983-1.186-.533-2.073-.933-2.8-1.327,14.633,2.2,19.507.332,20.818-2.277" transform="translate(-218.899 -1978.547)" fill="none"/>
    </clipPath>
    <linearGradient id="linear-gradient-36" x1="-0.267" y1="1.84" x2="-0.264" y2="1.84" xlink:href="#linear-gradient-30"/>
    <clipPath id="clip-path-84">
      <path id="Path_194644" data-name="Path 194644" d="M442.86,1893.96c-4.143,1.012-5.512,11.808-4.35,19.885.655,4.55,1.939,13.474,9.259,17.71.134.078.347.2.629.352.922.493,4.584,2.254,11.8.953,8.506-1.535,16.805-6.41,18.906-7.678l-.509-2.291c-11.5,2.061-16.527-.253-18.956-2.956-2.229-2.482-1.279-3.764-4.847-13.236-3.4-9.022-7.254-11.341-9.2-12.179a5.592,5.592,0,0,0-2.144-.632,2.475,2.475,0,0,0-.59.072" transform="translate(-438.113 -1893.888)" fill="#feb62b"/>
    </clipPath>
    <clipPath id="clip-path-86">
      <path id="Path_194646" data-name="Path 194646" d="M225.581,2533.969c0,4.241,8.923,7.679,19.931,7.679s19.931-3.438,19.931-7.679-8.923-11.179-19.931-11.179-19.931,6.938-19.931,11.179" transform="translate(-225.581 -2522.79)" fill="none"/>
    </clipPath>
    <linearGradient id="linear-gradient-37" x1="-0.887" y1="2.289" x2="-0.883" y2="2.289" xlink:href="#linear-gradient"/>
    <clipPath id="clip-path-88">
      <rect id="Rectangle_39737" data-name="Rectangle 39737" width="33.494" height="14.947" fill="none"/>
    </clipPath>
    <clipPath id="clip-path-89">
      <path id="Path_194647" data-name="Path 194647" d="M225.581,2533.969c0-4.241,8.923-11.179,19.931-11.179a27.042,27.042,0,0,1,13.238,3.491,2.89,2.89,0,0,1,.315,1.517c-.229,2.386-4.12,3.853-6.354,4.336-5.625,1.219-8.372-2.146-13.01-2.017-2.867.079-6.841,1.52-11.554,7.62-1.631-1.114-2.567-2.4-2.567-3.768" transform="translate(-225.581 -2522.789)" fill="none"/>
    </clipPath>
    <linearGradient id="linear-gradient-38" x1="-1.054" y1="2.888" x2="-1.049" y2="2.888" xlink:href="#linear-gradient"/>
    <clipPath id="clip-path-90">
      <rect id="Rectangle_39739" data-name="Rectangle 39739" width="4.432" height="24.01" fill="none"/>
    </clipPath>
    <clipPath id="clip-path-91">
      <path id="Path_194649" data-name="Path 194649" d="M339.789,2418.91a4.515,4.515,0,0,0,2.238.013,1.44,1.44,0,0,0,1.069-1.4v-22.474h-4.432v22.447a1.467,1.467,0,0,0,1.124,1.416" transform="translate(-338.665 -2395.047)" fill="none"/>
    </clipPath>
    <linearGradient id="linear-gradient-39" x1="-11.97" y1="2.626" x2="-11.935" y2="2.626" xlink:href="#linear-gradient"/>
    <clipPath id="clip-path-92">
      <path id="Path_194650" data-name="Path 194650" d="M190.986,2145.236c-6.212.277-10.643.475-12.774,3.438-2.737,3.8,1.853,7.255.9,18.138-.387,4.438-1.373,6.409-.145,9.349,1.471,3.522,4.881,5.474,7.532,6.573a38.585,38.585,0,0,0,15.977,5.1,39.761,39.761,0,0,0,24.6-6.206,4.058,4.058,0,0,0,2.753-3.047,3.577,3.577,0,0,0-1.591-3.749l-6.77-4.28c-.282-1.6-3.473-18.324-16.429-23.577a29.008,29.008,0,0,0-10.825-1.832c-1.238,0-2.336.049-3.225.089" transform="translate(-177.33 -2145.147)" fill="none"/>
    </clipPath>
    <linearGradient id="linear-gradient-40" x1="-0.283" y1="1.649" x2="-0.281" y2="1.649" gradientUnits="objectBoundingBox">
      <stop offset="0" stop-color="#311944"/>
      <stop offset="1" stop-color="#893976"/>
    </linearGradient>
    <clipPath id="clip-path-94">
      <rect id="Rectangle_39742" data-name="Rectangle 39742" width="40.672" height="38.292" fill="none"/>
    </clipPath>
    <clipPath id="clip-path-95">
      <path id="Path_194652" data-name="Path 194652" d="M894.076,2735.319c-.659.552-1.113,1.67-.731,2.176.139.184-.429.507.115.513,1.8.021,4.923-1.395,4.773-2.22-.1-.53-1.226-1.028-2.376-1.029a2.762,2.762,0,0,0-1.781.56" transform="translate(-893.206 -2734.76)" fill="none"/>
    </clipPath>
    <linearGradient id="linear-gradient-41" x1="-21.873" y1="1.947" x2="-21.849" y2="1.947" xlink:href="#linear-gradient-21"/>
    <clipPath id="clip-path-97">
      <path id="Path_194654" data-name="Path 194654" d="M884.12,2738.971c-.359.658-.638,2.42,1.467,2.364s2.4-1.7,2.209-2.257a15.363,15.363,0,0,0-2.72-.374c-.473,0-.849.069-.956.267" transform="translate(-883.871 -2738.704)" fill="none"/>
    </clipPath>
    <linearGradient id="linear-gradient-42" x1="-26.297" y1="2.19" x2="-26.267" y2="2.19" xlink:href="#linear-gradient-21"/>
    <clipPath id="clip-path-98">
      <path id="Path_194655" data-name="Path 194655" d="M1119.787,2775.951c-.575.639-.868,1.809-.42,2.256.163.163-.354.562.186.492,1.79-.232,4.679-2.071,4.416-2.866-.141-.424-.98-.727-1.911-.727a3.061,3.061,0,0,0-2.271.844" transform="translate(-1119.15 -2775.108)" fill="none"/>
    </clipPath>
    <linearGradient id="linear-gradient-43" x1="-27.254" y1="0.787" x2="-27.23" y2="0.787" xlink:href="#linear-gradient-21"/>
    <clipPath id="clip-path-100">
      <path id="Path_194657" data-name="Path 194657" d="M1109.667,2781.885c-.263.7-.293,2.485,1.784,2.134s2.135-2.018,1.871-2.544c0,0-.7-.061-1.49-.061-.947,0-2.022.087-2.165.47" transform="translate(-1109.542 -2781.415)" fill="none"/>
    </clipPath>
    <linearGradient id="linear-gradient-44" x1="-33.888" y1="0.733" x2="-33.857" y2="0.733" xlink:href="#linear-gradient-21"/>
    <clipPath id="clip-path-101">
      <path id="Path_194658" data-name="Path 194658" d="M834.569,2184.076c1.234,7.3,3.3,9.246,2.813,15.733-.525,7.011-3.277,9.282-3.188,17.126.018,1.555.125,1.442,1.688,10.355,2.435,13.891,5.626,19.118,5.626,19.118a8.563,8.563,0,0,0,5.251,0c2.214-14.4,4.188-29.549,5.814-45.4q2.1-20.531,3.188-39.63l-19.505-1.792c-2.992,10.7-2.636,18.879-1.688,24.495" transform="translate(-833.891 -2159.582)" fill="none"/>
    </clipPath>
    <linearGradient id="linear-gradient-45" x1="-5.779" y1="1.14" x2="-5.772" y2="1.14" xlink:href="#linear-gradient-26"/>
    <clipPath id="clip-path-103">
      <rect id="Rectangle_39752" data-name="Rectangle 39752" width="20.089" height="87.243" fill="none"/>
    </clipPath>
    <clipPath id="clip-path-104">
      <path id="Path_194659" data-name="Path 194659" d="M865.351,2161.374q-1.116,19.077-3.188,39.63c-1.625,15.856-3.6,31.006-5.814,45.4a8.563,8.563,0,0,1-5.251,0c.035-1.333.128-3.341.406-5.767.738-6.435,1.915-8.266,2.036-12.214.154-5.05-1.674-5.205-2.036-10.178-.561-7.708,3.672-9.536,4.071-16.285.422-7.132-4.043-9.479-7.464-18.322-2.019-5.22-3.812-13.058-2.264-24.06l19.5,1.792" transform="translate(-845.262 -2159.582)" fill="none"/>
    </clipPath>
    <linearGradient id="linear-gradient-46" x1="-6.244" y1="1.14" x2="-6.236" y2="1.14" xlink:href="#linear-gradient-26"/>
    <clipPath id="clip-path-105">
      <path id="Path_194660" data-name="Path 194660" d="M917.923,2172.662a42.243,42.243,0,0,0,.563,16.33c1.109,4.611,2.452,6.476,9,19.317,6.863,13.454,7.455,15.459,7.877,17.325,1.832,8.115-.269,10.548,1.125,17.724.942,4.851,3.408,11.493,10.315,18.719l3.563-1a267.551,267.551,0,0,0-10.5-92.6l-21.943,4.182" transform="translate(-917.383 -2168.48)" fill="none"/>
    </clipPath>
    <linearGradient id="linear-gradient-47" x1="-2.684" y1="1.028" x2="-2.68" y2="1.028" xlink:href="#linear-gradient-23"/>
    <clipPath id="clip-path-107">
      <path id="Path_194663" data-name="Path 194663" d="M1277.763,1867.574a16.947,16.947,0,0,0-2.04-1.618c-.562-.281-.492.844-.07,1.266s-.211,3.868.211,4.22l-.141,2.11,1.688.7.352-3.235,1.864-3.553a3.372,3.372,0,0,0,.386-1.568v-3.529Z" transform="translate(-1275.319 -1862.37)" fill="#ffe5ce"/>
    </clipPath>
    <clipPath id="clip-path-108">
      <path id="Path_194664" data-name="Path 194664" d="M804.344,1710.074c-6.228,2.166-9.481,7.819-10.971,10.409-7.515,13.06,1.271,19.7-.985,45.714-.921,10.625-3.283,19.858,2.391,25.319,1.195,1.15,2.531,1.751,5.2,2.954,10.6,4.77,20.106,3.948,25.881,3.376,6.355-.629,9.568-.99,11.253-3.235,2.692-3.587-.079-8.146-.563-16.035-.347-5.665.941-10.153,3.516-19.13,5.988-20.87,13.762-26.543,10.409-34.743-1.75-4.28-5.507-6.741-7.455-8.018-4.609-3.02-7.56-2.469-18.145-4.079-10.5-1.6-14.122-3.134-17.242-3.134a9.655,9.655,0,0,0-3.294.6" transform="translate(-790.268 -1709.473)" fill="none"/>
    </clipPath>
    <linearGradient id="linear-gradient-48" x1="-1.756" y1="1.9" x2="-1.754" y2="1.9" xlink:href="#linear-gradient"/>
    <clipPath id="clip-path-110">
      <rect id="Rectangle_39759" data-name="Rectangle 39759" width="49.641" height="66.464" fill="none"/>
    </clipPath>
    <clipPath id="clip-path-111">
      <path id="Path_194669" data-name="Path 194669" d="M855.638,1910.726c1.87-3.723-2.712-8.671.281-14.347,2.542-4.82,7.16-3.74,9.283-8.158,2.565-5.336-3.013-9.324-2.813-17.442.239-9.7,8.589-19.419,13.5-18.567,3.179.551,3.588,5.294,5.825,10.487a117.942,117.942,0,0,0-6.388,17.082c-2.576,8.977-3.864,13.465-3.516,19.129.484,7.89,3.255,12.448.563,16.035-1.685,2.245-4.9,2.606-11.253,3.235-5.776.572-15.28,1.394-25.881-3.376-1.342-.6-2.346-1.056-3.166-1.5,16.562,2.487,22.078.376,23.561-2.577" transform="translate(-832.077 -1852.16)" fill="none"/>
    </clipPath>
    <linearGradient id="linear-gradient-49" x1="-1.369" y1="1.875" x2="-1.367" y2="1.875" xlink:href="#linear-gradient"/>
    <clipPath id="clip-path-112">
      <path id="Path_194670" data-name="Path 194670" d="M1085.554,1756.425c-4.688,1.146-6.239,13.364-4.923,22.505.741,5.151,2.194,15.25,10.479,20.044,1.177.681,7.655,4.429,14.066,1.477,5.477-2.522,8.861-8.994,8.3-16.246l-3.094-1.336c-1.743,1.783-3.967,3.517-5.837,2.954-2.788-.839-2.091-5.968-5.486-14.98-3.846-10.211-8.21-12.835-10.409-13.784a6.33,6.33,0,0,0-2.427-.715,2.786,2.786,0,0,0-.668.082" transform="translate(-1080.181 -1756.343)" fill="none"/>
    </clipPath>
    <linearGradient id="linear-gradient-50" x1="-4.848" y1="3.468" x2="-4.844" y2="3.468" xlink:href="#linear-gradient"/>
  </defs>
  <g id="Group_127915" data-name="Group 127915" clip-path="url(#clip-path)">
    <g id="Group_127676" data-name="Group 127676" transform="translate(0 -0.001)">
      <g id="Group_127675" data-name="Group 127675" clip-path="url(#clip-path-2)">
        <path id="Path_194567" data-name="Path 194567" d="M187.456,263.308c8.462,4.3,19.093.351,23.745-8.811s1.564-20.073-6.9-24.37c-.439-.223-.886-.41-1.335-.589a107.3,107.3,0,0,0,3.553-15.291c.485,0,.972-.009,1.466-.054,9.654-.86,17.317-9.732,17.114-19.815s-8.192-17.56-17.847-16.7c-.5.045-1,.125-1.493.213a98.415,98.415,0,0,0-4.134-14.6c.444-.26.886-.528,1.318-.831,8.26-5.787,10.9-17.208,5.9-25.51s-15.753-10.341-24.013-4.554c-.423.3-.821.617-1.215.942a87.209,87.209,0,0,0-10.712-10c.272-.446.539-.9.779-1.373,4.652-9.163,10.731-19.171,2.2-23.335C156.158,89,147.692,97.243,143.04,106.4c-.241.474-.448.957-.648,1.439A87.269,87.269,0,0,0,128,105.1c.03-.509.054-1.02.044-1.537-.2-10.083,2.79-15.54-6.9-15.728-21.133-.411-28.263,8.761-28.06,18.844.01.527.055,1.042.107,1.554a98.413,98.413,0,0,0-14.228,5.28c-.22-.45-.448-.9-.71-1.331-5-8.3-15.753-10.341-24.013-4.554s-10.9,17.208-5.9,25.51c.256.425.537.823.822,1.216a107.305,107.305,0,0,0-10.249,11.892c-.409-.257-.824-.508-1.263-.73-8.462-4.3-19.093-.351-23.745,8.811s-1.563,20.073,6.9,24.37c.438.223.886.41,1.334.589a107.278,107.278,0,0,0-3.552,15.291c-.485,0-.972.009-1.466.053C7.463,195.488-.2,204.359,0,214.443S8.2,232,17.85,231.142c.5-.045,1-.124,1.493-.212a98.393,98.393,0,0,0,4.133,14.6c-.444.26-.886.529-1.318.831-8.26,5.786-10.9,17.208-5.9,25.51s21.563,12.159,29.823,6.373c.423-.3-4.988-2.435-4.595-2.76a87.2,87.2,0,0,0,10.712,10c-.272.446-.539.9-.78,1.373-4.652,9.162-1.564,20.073,6.9,24.37s19.093.351,23.745-8.811c.241-.475.449-.957.648-1.44a87.2,87.2,0,0,0,14.393,2.747c-.03.51-.054,1.02-.044,1.537.2,10.083,8.193,17.559,17.847,16.7s17.317-9.732,17.114-19.815c-.01-.527-.055-1.042-.107-1.554a98.425,98.425,0,0,0,14.228-5.28c.22.45.448.9.71,1.331,5,8.3,15.753,10.341,24.013,4.554s10.9-17.208,5.9-25.511c-.256-.425-.537-.823-.822-1.215a107.283,107.283,0,0,0,10.249-11.892c.41.257.824.508,1.263.73M81.969,264.646c-30.724-15.6-41.938-55.213-25.047-88.48s55.489-47.59,86.213-31.991,41.938,55.213,25.047,88.481-55.489,47.59-86.213,31.991" transform="translate(0.001 -74.062)" fill="#fff"/>
        <path id="Path_194568" data-name="Path 194568" d="M692.893,316.406c9.654-.861,17.317-9.732,17.115-19.816s-8.193-17.56-17.847-16.7c-.5.045-1,.125-1.493.212a98.374,98.374,0,0,0-4.133-14.6c.444-.26.886-.529,1.318-.831,8.26-5.786,18.479-19.769,12.651-27.514-11.06-14.7-22.506-8.337-30.766-2.55-.423.3-.822.617-1.215.942a87.246,87.246,0,0,0-10.712-10c.272-.446.539-.9.78-1.373a19.225,19.225,0,0,0,1.083-15.159q-11.967,21.062-23.578,42.319c24.51,17.961,32.314,53.355,16.993,83.531C640.106,360.438,614.3,374.8,589.1,373c-1.124,2.915-2.228,5.846-3.432,8.733-3.266,7.835-6.977,15.508-10.693,23.172q3.505.661,7.037,1.034c-.03.51-.054,1.02-.044,1.537.2,10.083,6.324,18.65,23.821,17.722,9.679-.513,11.343-10.755,11.14-20.839-.011-.527-.055-1.042-.107-1.554a98.45,98.45,0,0,0,14.228-5.28c.22.45.449.9.71,1.33,5,8.3,22.356,11.83,30.615,6.042s4.3-18.7-.7-27c-.256-.425-.537-.823-.822-1.216A107.247,107.247,0,0,0,671.1,364.79c.41.257.824.508,1.263.73,8.462,4.3,19.093.351,23.745-8.811s1.563-20.073-6.9-24.37c-.439-.222-.886-.41-1.335-.589a107.334,107.334,0,0,0,3.553-15.291c.485,0,.972-.01,1.466-.054" transform="translate(-484.905 -176.274)" fill="#fff"/>
        <path id="Path_194569" data-name="Path 194569" d="M245.557,264.395c8.462,4.3,19.093.352,23.745-8.811s1.563-20.073-6.9-24.37c-.438-.223-.886-.41-1.335-.589a107.289,107.289,0,0,0,3.553-15.292c.485,0,.972-.009,1.466-.054,9.654-.861,17.317-9.732,17.115-19.815s-8.192-17.56-17.847-16.7c-.5.045-1,.125-1.493.213a98.425,98.425,0,0,0-4.134-14.6c.444-.26.886-.528,1.318-.831,8.26-5.787,10.9-17.208,5.9-25.51s-15.753-10.341-24.013-4.554c-.423.3-.821.617-1.215.942a87.224,87.224,0,0,0-10.712-10c.272-.446.539-.9.78-1.373,4.652-9.163,1.563-20.073-6.9-24.37s-19.093-.352-23.745,8.811c-.241.475-.448.957-.648,1.44a87.223,87.223,0,0,0-14.393-2.747c.03-.51.054-1.02.043-1.537-.2-10.083-8.192-17.56-17.847-16.7s-17.317,9.733-17.115,19.815c.01.527.054,1.042.107,1.554a98.423,98.423,0,0,0-14.228,5.28c-.22-.45-.448-.9-.71-1.331-5-8.3-15.753-10.341-24.013-4.554s-10.9,17.208-5.9,25.51c.256.425.537.823.822,1.216A107.313,107.313,0,0,0,97.012,147.33c-.409-.257-.824-.507-1.263-.73-8.462-4.3-19.093-.352-23.745,8.811s-1.563,20.073,6.9,24.37c.438.223.886.41,1.334.589a107.324,107.324,0,0,0-3.552,15.291c-.485,0-.972.01-1.466.053-9.655.861-17.317,9.732-17.115,19.816s8.193,17.56,17.847,16.7c.5-.045,1-.124,1.493-.212a98.4,98.4,0,0,0,4.133,14.6c-.444.26-.886.528-1.318.831-8.26,5.787-10.9,17.208-5.9,25.51s15.753,10.341,24.013,4.555c.423-.3.821-.617,1.215-.942a87.231,87.231,0,0,0,10.712,10c-.272.446-.539.9-.78,1.373-4.652,9.162-1.563,20.073,6.9,24.369s19.093.352,23.745-8.811c.241-.475.449-.957.649-1.44a87.212,87.212,0,0,0,14.393,2.747c-.03.51-.054,1.02-.044,1.537.2,10.083,8.193,17.559,17.847,16.7s17.317-9.732,17.114-19.815c-.01-.527-.055-1.042-.107-1.554a98.441,98.441,0,0,0,14.228-5.28c.22.449.448.9.71,1.33,5,8.3,15.753,10.341,24.013,4.554s10.9-17.208,5.9-25.511c-.257-.425-.537-.823-.822-1.215a107.308,107.308,0,0,0,10.249-11.891c.409.257.824.507,1.263.73M140.07,265.733c-30.724-15.6-41.938-55.213-25.047-88.48s55.49-47.59,86.213-31.991,41.938,55.213,25.047,88.48-55.489,47.59-86.213,31.991" transform="translate(-48.999 -74.114)" fill="#d8dee8"/>
        <path id="Path_194570" data-name="Path 194570" d="M1871.022,1538.419c-16.547-8.4-22.586-29.736-13.49-47.653s29.885-25.63,46.431-17.229,22.586,29.736,13.49,47.653-29.885,25.63-46.431,17.229" transform="translate(-1562.978 -1239.841)" fill="#fff"/>
        <path id="Path_194571" data-name="Path 194571" d="M1816.88,1393.176c4.557,2.314,10.283.189,12.789-4.745s.842-10.811-3.715-13.125c-.236-.12-.477-.22-.719-.317a57.82,57.82,0,0,0,1.913-8.235c.261,0,.523-.005.79-.029a10.485,10.485,0,0,0,9.217-10.672,8.88,8.88,0,0,0-9.612-8.994c-.272.024-.539.067-.8.115a53.027,53.027,0,0,0-2.226-7.865c.239-.14.477-.284.709-.447a10.485,10.485,0,0,0,3.177-13.739,8.88,8.88,0,0,0-12.933-2.453c-.228.16-.442.332-.654.507a46.977,46.977,0,0,0-5.769-5.385c.146-.24.29-.484.42-.739,2.506-4.935.842-10.811-3.715-13.125s-10.283-.189-12.788,4.746c-.13.255-.241.515-.349.775a46.931,46.931,0,0,0-7.752-1.48c.016-.274.029-.549.023-.827a8.88,8.88,0,0,0-9.612-8.994,10.486,10.486,0,0,0-9.218,10.672c.006.283.03.561.058.837a53.045,53.045,0,0,0-7.663,2.844c-.119-.242-.242-.483-.382-.717a8.88,8.88,0,0,0-12.933-2.452,10.485,10.485,0,0,0-3.176,13.739c.138.229.289.443.442.655a57.8,57.8,0,0,0-5.52,6.4c-.22-.138-.444-.273-.68-.393-4.557-2.314-10.283-.189-12.788,4.745s-.842,10.811,3.715,13.125c.236.12.477.22.719.317a57.741,57.741,0,0,0-1.913,8.235c-.261,0-.524.005-.79.029a10.486,10.486,0,0,0-9.218,10.672,8.88,8.88,0,0,0,9.612,8.994c.272-.024.539-.067.8-.115a52.958,52.958,0,0,0,2.226,7.865c-.239.14-.477.285-.71.448a10.485,10.485,0,0,0-3.177,13.739,8.88,8.88,0,0,0,12.933,2.453c.228-.16.442-.333.654-.507a46.952,46.952,0,0,0,5.769,5.385c-.146.24-.29.484-.42.74-2.505,4.935-.842,10.811,3.716,13.125s10.283.189,12.788-4.745c.13-.256.241-.515.349-.775a46.971,46.971,0,0,0,7.752,1.48c-.016.275-.029.549-.023.828a8.88,8.88,0,0,0,9.612,8.993,10.485,10.485,0,0,0,9.218-10.672c-.006-.284-.03-.561-.058-.837a52.949,52.949,0,0,0,7.663-2.844c.118.242.242.483.382.717a8.879,8.879,0,0,0,12.933,2.453,10.485,10.485,0,0,0,3.177-13.739c-.138-.229-.289-.443-.443-.654a57.845,57.845,0,0,0,5.52-6.4c.22.138.444.273.68.393m-56.812.721c-16.547-8.4-22.586-29.736-13.49-47.652s29.885-25.631,46.431-17.229,22.586,29.736,13.49,47.653-29.885,25.631-46.431,17.229" transform="translate(-1447.123 -1094.761)" fill="#d8dee8"/>
      </g>
    </g>
    <g id="Group_127678" data-name="Group 127678" transform="translate(211.48 322.321)">
      <g id="Group_127677" data-name="Group 127677" clip-path="url(#clip-path-3)">
        <rect id="Rectangle_39652" data-name="Rectangle 39652" width="209.569" height="28.124" fill="url(#linear-gradient)"/>
      </g>
    </g>
    <g id="Group_127680" data-name="Group 127680" transform="translate(196.946 369.852)">
      <g id="Group_127679" data-name="Group 127679" clip-path="url(#clip-path-4)">
        <rect id="Rectangle_39653" data-name="Rectangle 39653" width="85.993" height="110.705" transform="matrix(0.402, -0.915, 0.915, 0.402, -18.62, 42.351)" fill="#ff6b00"/>
      </g>
    </g>
    <g id="Group_127682" data-name="Group 127682" transform="translate(279.192 375.589)">
      <g id="Group_127681" data-name="Group 127681" clip-path="url(#clip-path-5)">
        <rect id="Rectangle_39654" data-name="Rectangle 39654" width="141.992" height="43.981" fill="#fff4eb"/>
      </g>
    </g>
    <g id="Group_127684" data-name="Group 127684" transform="translate(275.766 374.056)">
      <g id="Group_127683" data-name="Group 127683" clip-path="url(#clip-path-6)">
        <rect id="Rectangle_39655" data-name="Rectangle 39655" width="147.915" height="47.44" transform="translate(0 0)" fill="#ff6b00"/>
      </g>
    </g>
    <g id="Group_127686" data-name="Group 127686" transform="translate(196.946 326.416)">
      <g id="Group_127685" data-name="Group 127685" clip-path="url(#clip-path-7)">
        <rect id="Rectangle_39656" data-name="Rectangle 39656" width="84.045" height="113.505" transform="matrix(0.285, -0.959, 0.959, 0.285, -15.714, 52.931)" fill="url(#linear-gradient-2)"/>
      </g>
    </g>
    <g id="Group_127688" data-name="Group 127688" transform="translate(279.192 328.506)">
      <g id="Group_127687" data-name="Group 127687" clip-path="url(#clip-path-8)">
        <rect id="Rectangle_39657" data-name="Rectangle 39657" width="141.992" height="53.298" fill="#f0e2ff"/>
      </g>
    </g>
    <g id="Group_127690" data-name="Group 127690" transform="translate(275.766 326.312)">
      <g id="Group_127689" data-name="Group 127689" clip-path="url(#clip-path-9)">
        <rect id="Rectangle_39658" data-name="Rectangle 39658" width="147.915" height="58.504" fill="url(#linear-gradient-3)"/>
      </g>
    </g>
    <g id="Group_127698" data-name="Group 127698" transform="translate(0 -0.001)">
      <g id="Group_127697" data-name="Group 127697" clip-path="url(#clip-path-2)">
        <g id="Group_127693" data-name="Group 127693" transform="translate(247.233 335.68)" opacity="0.5" style="mix-blend-mode: soft-light;isolation: isolate">
          <g id="Group_127692" data-name="Group 127692">
            <g id="Group_127691" data-name="Group 127691" clip-path="url(#clip-path-11)">
              <path id="Path_194579" data-name="Path 194579" d="M1598.784,2179.712l-17.568-3.071c-4.1-11.2-3.794-21.483,0-33.777l17.568,1.249a64.6,64.6,0,0,0,0,35.6" transform="translate(-1578.253 -2142.865)" fill="#fff"/>
            </g>
          </g>
        </g>
        <g id="Group_127696" data-name="Group 127696" transform="translate(94.194 69.574)" opacity="0.75">
          <g id="Group_127695" data-name="Group 127695">
            <g id="Group_127694" data-name="Group 127694" clip-path="url(#clip-path-12)">
              <path id="Path_194580" data-name="Path 194580" d="M831.257,553.61c0-60.464-51.477-109.479-114.978-109.479S601.3,493.147,601.3,553.61c0,36.694,18.96,69.17,48.06,89.034A45.162,45.162,0,0,1,669.2,679.91v8.378a32.96,32.96,0,0,0,32.96,32.96H730.4a32.96,32.96,0,0,0,32.96-32.96V679.91A45.163,45.163,0,0,1,783.2,642.645c29.1-19.864,48.061-52.34,48.061-89.034" transform="translate(-601.302 -444.131)" fill="#f4f7fa"/>
            </g>
          </g>
        </g>
      </g>
    </g>
    <g id="Group_127700" data-name="Group 127700" transform="translate(183.666 382)">
      <g id="Group_127699" data-name="Group 127699" clip-path="url(#clip-path-13)">
        <rect id="Rectangle_39662" data-name="Rectangle 39662" width="33.125" height="53.966" transform="translate(-3.324 26.591) rotate(-82.875)" fill="url(#linear-gradient-4)"/>
      </g>
    </g>
    <g id="Group_127702" data-name="Group 127702" transform="translate(175.284 371.381)">
      <g id="Group_127701" data-name="Group 127701" clip-path="url(#clip-path-14)">
        <rect id="Rectangle_39663" data-name="Rectangle 39663" width="59.651" height="74.099" transform="translate(-12.985 23.372) rotate(-60.945)" fill="url(#linear-gradient-5)"/>
      </g>
    </g>
    <g id="Group_127709" data-name="Group 127709" transform="translate(0 -0.001)">
      <g id="Group_127708" data-name="Group 127708" clip-path="url(#clip-path-2)">
        <g id="Group_127707" data-name="Group 127707" transform="translate(175.285 371.381)" opacity="0.3" style="mix-blend-mode: multiply;isolation: isolate">
          <g id="Group_127706" data-name="Group 127706">
            <g id="Group_127705" data-name="Group 127705" clip-path="url(#clip-path-16)">
              <g id="Group_127704" data-name="Group 127704" transform="translate(0)">
                <g id="Group_127703" data-name="Group 127703" clip-path="url(#clip-path-17)">
                  <rect id="Rectangle_39664" data-name="Rectangle 39664" width="67.774" height="24.692" transform="translate(0)" fill="url(#linear-gradient-6)"/>
                </g>
              </g>
            </g>
          </g>
        </g>
      </g>
    </g>
    <g id="Group_127711" data-name="Group 127711" transform="translate(171.155 361.963)">
      <g id="Group_127710" data-name="Group 127710" clip-path="url(#clip-path-18)">
        <rect id="Rectangle_39667" data-name="Rectangle 39667" width="61.027" height="80.96" transform="matrix(0.461, -0.887, 0.887, 0.461, -11.973, 23.037)" fill="url(#linear-gradient-7)"/>
      </g>
    </g>
    <g id="Group_127718" data-name="Group 127718" transform="translate(0 -0.001)">
      <g id="Group_127717" data-name="Group 127717" clip-path="url(#clip-path-2)">
        <g id="Group_127716" data-name="Group 127716" transform="translate(172.248 361.964)" opacity="0.3" style="mix-blend-mode: multiply;isolation: isolate">
          <g id="Group_127715" data-name="Group 127715">
            <g id="Group_127714" data-name="Group 127714" clip-path="url(#clip-path-20)">
              <g id="Group_127713" data-name="Group 127713" transform="translate(0)">
                <g id="Group_127712" data-name="Group 127712" clip-path="url(#clip-path-21)">
                  <rect id="Rectangle_39668" data-name="Rectangle 39668" width="73.813" height="21.066" transform="translate(0 -0.224)" fill="url(#linear-gradient-8)"/>
                </g>
              </g>
            </g>
          </g>
        </g>
      </g>
    </g>
    <g id="Group_127720" data-name="Group 127720" transform="translate(171.155 339.657)">
      <g id="Group_127719" data-name="Group 127719" clip-path="url(#clip-path-22)">
        <rect id="Rectangle_39671" data-name="Rectangle 39671" width="76.034" height="38.781" fill="url(#linear-gradient-9)"/>
      </g>
    </g>
    <g id="Group_127722" data-name="Group 127722" transform="translate(172.095 334.254)">
      <g id="Group_127721" data-name="Group 127721" clip-path="url(#clip-path-23)">
        <rect id="Rectangle_39672" data-name="Rectangle 39672" width="32.634" height="76.18" transform="matrix(0.209, -0.978, 0.978, 0.209, -3.581, 16.767)" fill="url(#linear-gradient-10)"/>
      </g>
    </g>
    <g id="Group_127724" data-name="Group 127724" transform="translate(94.194 69.573)">
      <g id="Group_127723" data-name="Group 127723" clip-path="url(#clip-path-24)">
        <rect id="Rectangle_39673" data-name="Rectangle 39673" width="342.267" height="357.037" transform="matrix(0.846, -0.533, 0.533, 0.846, -124.968, 78.714)" fill="url(#linear-gradient-11)"/>
      </g>
    </g>
    <g id="Group_127729" data-name="Group 127729" transform="translate(0 -0.001)">
      <g id="Group_127728" data-name="Group 127728" clip-path="url(#clip-path-2)">
        <g id="Group_127727" data-name="Group 127727" transform="translate(182.041 329.694)" opacity="0.5" style="mix-blend-mode: soft-light;isolation: isolate">
          <g id="Group_127726" data-name="Group 127726">
            <g id="Group_127725" data-name="Group 127725" clip-path="url(#clip-path-26)">
              <path id="Path_194589" data-name="Path 194589" d="M1216.352,2111.063c0,3.542-12.146,6.414-27.13,6.414s-27.13-2.872-27.13-6.414,12.147-6.414,27.13-6.414,27.13,2.872,27.13,6.414" transform="translate(-1162.092 -2104.649)" fill="#f4f7fa"/>
            </g>
          </g>
        </g>
      </g>
    </g>
    <g id="Group_127731" data-name="Group 127731" transform="translate(180.577 181.678)">
      <g id="Group_127730" data-name="Group 127730" clip-path="url(#clip-path-27)">
        <rect id="Rectangle_39676" data-name="Rectangle 39676" width="157.357" height="73.317" transform="translate(-48.616 141.741) rotate(-71.104)" fill="url(#linear-gradient-12)"/>
      </g>
    </g>
    <g id="Group_127733" data-name="Group 127733" transform="translate(212.928 181.678)">
      <g id="Group_127732" data-name="Group 127732" clip-path="url(#clip-path-28)">
        <rect id="Rectangle_39677" data-name="Rectangle 39677" width="157.358" height="73.318" transform="translate(-48.616 141.741) rotate(-71.103)" fill="url(#linear-gradient-13)"/>
      </g>
    </g>
    <g id="Group_127735" data-name="Group 127735" transform="translate(183.292 167.033)">
      <g id="Group_127734" data-name="Group 127734" clip-path="url(#clip-path-29)">
        <rect id="Rectangle_39678" data-name="Rectangle 39678" width="31.431" height="52.076" transform="translate(-5.214 14.58) rotate(-71.103)" fill="url(#linear-gradient-14)"/>
      </g>
    </g>
    <g id="Group_127745" data-name="Group 127745" transform="translate(0 -0.001)">
      <g id="Group_127744" data-name="Group 127744" clip-path="url(#clip-path-2)">
        <g id="Group_127740" data-name="Group 127740" transform="translate(94.194 87.378)" opacity="0.3" style="mix-blend-mode: multiply;isolation: isolate">
          <g id="Group_127739" data-name="Group 127739">
            <g id="Group_127738" data-name="Group 127738" clip-path="url(#clip-path-31)">
              <g id="Group_127737" data-name="Group 127737" transform="translate(0 0)">
                <g id="Group_127736" data-name="Group 127736" clip-path="url(#clip-path-32)">
                  <rect id="Rectangle_39679" data-name="Rectangle 39679" width="280.391" height="220.511" transform="translate(-31.008 255.55) rotate(-83.082)" fill="url(#linear-gradient-15)"/>
                </g>
              </g>
            </g>
          </g>
        </g>
        <g id="Group_127743" data-name="Group 127743" transform="translate(112.07 90.609)" opacity="0.44" style="mix-blend-mode: soft-light;isolation: isolate">
          <g id="Group_127742" data-name="Group 127742">
            <g id="Group_127741" data-name="Group 127741" clip-path="url(#clip-path-33)">
              <path id="Path_194594" data-name="Path 194594" d="M913.3,671.128c4.958,41.4-41.547,95.417-98.94,95.417-52.933,0-98.767-43.75-98.94-95.417-.152-45.158,35.295-87.962,73.939-92.343,25.513-2.893,46.158,11.661,69.292,27.967,24.347,17.162,51.268,36.139,54.65,64.376" transform="translate(-715.414 -578.414)" fill="#f4f7fa"/>
            </g>
          </g>
        </g>
      </g>
    </g>
    <g id="Group_127747" data-name="Group 127747" transform="translate(262.974 81.162)">
      <g id="Group_127746" data-name="Group 127746" clip-path="url(#clip-path-34)">
        <rect id="Rectangle_39683" data-name="Rectangle 39683" width="128.238" height="139.236" transform="translate(-35.945 60.204) rotate(-59.17)" fill="url(#linear-gradient-16)"/>
      </g>
    </g>
    <g id="Group_127749" data-name="Group 127749" transform="translate(369.723 146.131)">
      <g id="Group_127748" data-name="Group 127748" clip-path="url(#clip-path-35)">
        <rect id="Rectangle_39684" data-name="Rectangle 39684" width="26.897" height="12.226" transform="translate(-3.167 25.585) rotate(-82.96)" fill="url(#linear-gradient-17)"/>
      </g>
    </g>
    <g id="Group_127751" data-name="Group 127751" transform="translate(159.311 -0.001)">
      <g id="Group_127750" data-name="Group 127750" clip-path="url(#clip-path-36)">
        <rect id="Rectangle_39685" data-name="Rectangle 39685" width="135.061" height="227.342" transform="matrix(0.163, -0.987, 0.987, 0.163, -16.329, 98.93)" fill="url(#linear-gradient-18)"/>
      </g>
    </g>
    <g id="Group_127753" data-name="Group 127753" transform="translate(159.3 1.508)">
      <g id="Group_127752" data-name="Group 127752" clip-path="url(#clip-path-37)">
        <rect id="Rectangle_39686" data-name="Rectangle 39686" width="172.716" height="235.321" transform="translate(-34.715 88.099) rotate(-68.493)" fill="#7926cb"/>
      </g>
    </g>
    <g id="Group_127755" data-name="Group 127755" transform="translate(184.358 32.303)">
      <g id="Group_127754" data-name="Group 127754" clip-path="url(#clip-path-38)">
        <rect id="Rectangle_39687" data-name="Rectangle 39687" width="144.824" height="172.293" transform="translate(-31.637 91.526) rotate(-70.932)" fill="#5a189a"/>
      </g>
    </g>
    <g id="Group_127762" data-name="Group 127762" transform="translate(0 -0.001)">
      <g id="Group_127761" data-name="Group 127761" clip-path="url(#clip-path-2)">
        <g id="Group_127760" data-name="Group 127760" transform="translate(184.358 37.243)" opacity="0.3" style="mix-blend-mode: multiply;isolation: isolate">
          <g id="Group_127759" data-name="Group 127759">
            <g id="Group_127758" data-name="Group 127758" clip-path="url(#clip-path-40)">
              <g id="Group_127757" data-name="Group 127757" transform="translate(0 0)">
                <g id="Group_127756" data-name="Group 127756" clip-path="url(#clip-path-41)">
                  <rect id="Rectangle_39688" data-name="Rectangle 39688" width="51.471" height="45.569" transform="translate(-13.253 38.34) rotate(-70.932)" fill="url(#linear-gradient-19)"/>
                </g>
              </g>
            </g>
          </g>
        </g>
      </g>
    </g>
    <g id="Group_127764" data-name="Group 127764" transform="translate(288.745 153.355)">
      <g id="Group_127763" data-name="Group 127763" clip-path="url(#clip-path-42)">
        <rect id="Rectangle_39691" data-name="Rectangle 39691" width="9.548" height="15.36" transform="translate(-3.997 1.082) rotate(-15.965)" fill="#ffe5ce"/>
      </g>
    </g>
    <g id="Group_127766" data-name="Group 127766" transform="translate(290.314 163.725)">
      <g id="Group_127765" data-name="Group 127765" clip-path="url(#clip-path-43)">
        <rect id="Rectangle_39692" data-name="Rectangle 39692" width="59.748" height="47.659" transform="translate(-1.47 0.047) rotate(-1.839)" fill="url(#linear-gradient-20)"/>
      </g>
    </g>
    <g id="Group_127768" data-name="Group 127768" transform="translate(347.674 323.656)">
      <g id="Group_127767" data-name="Group 127767" clip-path="url(#clip-path-44)">
        <rect id="Rectangle_39693" data-name="Rectangle 39693" width="9.394" height="4.799" transform="matrix(1, -0.003, 0.003, 1, -0.226, 0)" fill="url(#linear-gradient-21)"/>
      </g>
    </g>
    <g id="Group_127770" data-name="Group 127770" transform="translate(353.542 320.496)">
      <g id="Group_127769" data-name="Group 127769" clip-path="url(#clip-path-45)">
        <rect id="Rectangle_39694" data-name="Rectangle 39694" width="5.88" height="5.263" transform="translate(-2.19 3.647) rotate(-59.009)" fill="#ffe5ce"/>
      </g>
    </g>
    <g id="Group_127772" data-name="Group 127772" transform="translate(314.402 322.4)">
      <g id="Group_127771" data-name="Group 127771" clip-path="url(#clip-path-46)">
        <rect id="Rectangle_39695" data-name="Rectangle 39695" width="6.378" height="10.971" transform="translate(-0.935 3.857) rotate(-76.467)" fill="url(#linear-gradient-22)"/>
      </g>
    </g>
    <g id="Group_127774" data-name="Group 127774" transform="translate(321.229 319.19)">
      <g id="Group_127773" data-name="Group 127773" clip-path="url(#clip-path-47)">
        <rect id="Rectangle_39696" data-name="Rectangle 39696" width="6.208" height="6.003" transform="matrix(0.579, -0.815, 0.815, 0.579, -2.272, 3.2)" fill="#ffe5ce"/>
      </g>
    </g>
    <g id="Group_127776" data-name="Group 127776" transform="translate(321.185 233.276)">
      <g id="Group_127775" data-name="Group 127775" clip-path="url(#clip-path-48)">
        <rect id="Rectangle_39697" data-name="Rectangle 39697" width="92.869" height="60.706" transform="matrix(0.376, -0.927, 0.927, 0.376, -30.71, 75.693)" fill="url(#linear-gradient-23)"/>
      </g>
    </g>
    <g id="Group_127783" data-name="Group 127783" transform="translate(0 -0.001)">
      <g id="Group_127782" data-name="Group 127782" clip-path="url(#clip-path-2)">
        <g id="Group_127781" data-name="Group 127781" transform="translate(321.186 233.278)" opacity="0.3" style="mix-blend-mode: multiply;isolation: isolate">
          <g id="Group_127780" data-name="Group 127780">
            <g id="Group_127779" data-name="Group 127779" clip-path="url(#clip-path-50)">
              <g id="Group_127778" data-name="Group 127778" transform="translate(0 -0.001)">
                <g id="Group_127777" data-name="Group 127777" clip-path="url(#clip-path-51)">
                  <rect id="Rectangle_39698" data-name="Rectangle 39698" width="92.869" height="60.706" transform="matrix(0.376, -0.927, 0.927, 0.376, -30.71, 75.693)" fill="url(#linear-gradient-23)"/>
                </g>
              </g>
            </g>
          </g>
        </g>
      </g>
    </g>
    <g id="Group_127785" data-name="Group 127785" transform="translate(346.481 232.642)">
      <g id="Group_127784" data-name="Group 127784" clip-path="url(#clip-path-52)">
        <rect id="Rectangle_39701" data-name="Rectangle 39701" width="90.919" height="65.894" transform="translate(-38.262 68.668) rotate(-60.874)" fill="url(#linear-gradient-25)"/>
      </g>
    </g>
    <g id="Group_127787" data-name="Group 127787" transform="translate(336.809 156.097)">
      <g id="Group_127786" data-name="Group 127786" clip-path="url(#clip-path-53)">
        <rect id="Rectangle_39702" data-name="Rectangle 39702" width="86.017" height="95.16" transform="translate(-24.089 36.323) rotate(-57.653)" fill="url(#linear-gradient-26)"/>
      </g>
    </g>
    <g id="Group_127789" data-name="Group 127789" transform="translate(325.133 176.259)">
      <g id="Group_127788" data-name="Group 127788" clip-path="url(#clip-path-54)">
        <rect id="Rectangle_39703" data-name="Rectangle 39703" width="64.94" height="79.664" transform="translate(-3.577 0.08) rotate(-1.839)" fill="url(#linear-gradient-27)"/>
      </g>
    </g>
    <g id="Group_127796" data-name="Group 127796" transform="translate(0 -0.001)">
      <g id="Group_127795" data-name="Group 127795" clip-path="url(#clip-path-2)">
        <g id="Group_127794" data-name="Group 127794" transform="translate(325.235 180.085)" opacity="0.3" style="mix-blend-mode: multiply;isolation: isolate">
          <g id="Group_127793" data-name="Group 127793">
            <g id="Group_127792" data-name="Group 127792" clip-path="url(#clip-path-56)">
              <g id="Group_127791" data-name="Group 127791" transform="translate(0 0)">
                <g id="Group_127790" data-name="Group 127790" clip-path="url(#clip-path-57)">
                  <rect id="Rectangle_39704" data-name="Rectangle 39704" width="63.66" height="75.865" transform="translate(-2.399 0.014) rotate(-1.839)" fill="url(#linear-gradient-28)"/>
                </g>
              </g>
            </g>
          </g>
        </g>
      </g>
    </g>
    <g id="Group_127798" data-name="Group 127798" transform="translate(337.478 168.323)">
      <g id="Group_127797" data-name="Group 127797" clip-path="url(#clip-path-58)">
        <rect id="Rectangle_39707" data-name="Rectangle 39707" width="19.598" height="21.679" transform="translate(-4.27 13.497) rotate(-72.444)" fill="#ffe5ce"/>
      </g>
    </g>
    <g id="Group_127800" data-name="Group 127800" transform="translate(340.759 164.979)">
      <g id="Group_127799" data-name="Group 127799" clip-path="url(#clip-path-59)">
        <rect id="Rectangle_39708" data-name="Rectangle 39708" width="13.394" height="13.166" transform="matrix(0.302, -0.953, 0.953, 0.302, -4.169, 9.777)" fill="#ffe5ce"/>
      </g>
    </g>
    <g id="Group_127802" data-name="Group 127802" transform="translate(0 -0.001)">
      <g id="Group_127801" data-name="Group 127801" clip-path="url(#clip-path-2)">
        <path id="Path_194615" data-name="Path 194615" d="M2147.186,1275.316l-10.448-23.656a3.008,3.008,0,0,1,1.744-4.049l18.956-6.732a2.3,2.3,0,0,1,2.694,1.317l10.708,24.949a2.3,2.3,0,0,1-1.4,3.093L2150,1276.562a2.3,2.3,0,0,1-2.809-1.246" transform="translate(-1801.801 -1046.431)" fill="#26264f"/>
      </g>
    </g>
    <g id="Group_127804" data-name="Group 127804" transform="translate(336.136 209.367)">
      <g id="Group_127803" data-name="Group 127803" clip-path="url(#clip-path-61)">
        <rect id="Rectangle_39710" data-name="Rectangle 39710" width="11.857" height="9.765" transform="translate(-1.995 0.302) rotate(-11.302)" fill="#ffe5ce"/>
      </g>
    </g>
    <g id="Group_127806" data-name="Group 127806" transform="translate(344.317 177.466)">
      <g id="Group_127805" data-name="Group 127805" clip-path="url(#clip-path-62)">
        <rect id="Rectangle_39711" data-name="Rectangle 39711" width="44.83" height="51.54" transform="translate(-1.61 0.052) rotate(-1.839)" fill="url(#linear-gradient-29)"/>
      </g>
    </g>
    <g id="Group_127808" data-name="Group 127808" transform="translate(0 -0.001)">
      <g id="Group_127807" data-name="Group 127807" clip-path="url(#clip-path-2)">
        <path id="Path_194618" data-name="Path 194618" d="M468.877,2150.173a.272.272,0,0,0,.231-.282l4.217-69.856a.3.3,0,0,0-.21-.338c-.128-.014-.241.11-.253.281l-3.753,63.153v-64.472c0-.171-.1-.311-.233-.311s-.233.139-.233.311v71.2a.285.285,0,0,0,.222.31h.011" transform="translate(-395.231 -1752.774)" fill="#b7c0ce"/>
        <path id="Path_194619" data-name="Path 194619" d="M169.937,2086.391l46.265-6.771,88.882,5.4-46.551,7.446Z" transform="translate(-143.316 -1753.847)" fill="#f4f7fa"/>
        <path id="Path_194620" data-name="Path 194620" d="M258.533,2121.515l-88.6-6.072v2.933l88.6,6.072L305.083,2117v-2.933Z" transform="translate(-143.316 -1782.9)" fill="#b7c0ce"/>
        <path id="Path_194621" data-name="Path 194621" d="M710.652,2251.9h.009a.284.284,0,0,0,.224-.31V2174.1c0-.172-.1-.311-.233-.311s-.233.139-.233.311v69.525l-3.546-69.549c-.01-.171-.121-.3-.25-.286a.3.3,0,0,0-.214.334l4.01,77.486c.01.162.111.287.232.287" transform="translate(-595.75 -1833.263)" fill="#b7c0ce"/>
        <path id="Path_194622" data-name="Path 194622" d="M1008.159,2202.605h.009a.284.284,0,0,0,.223-.311v-72.21c0-.172-.1-.311-.233-.311s-.233.139-.233.311v64.282l-3.252-64.306c-.01-.171-.124-.3-.25-.286a.3.3,0,0,0-.214.334l3.717,72.21c.01.162.111.286.232.286" transform="translate(-846.9 -1796.144)" fill="#b7c0ce"/>
        <path id="Path_194623" data-name="Path 194623" d="M171.482,2202.606c.12,0,.222-.124.232-.285l3.947-72.21a.3.3,0,0,0-.213-.335c-.128-.014-.24.113-.251.284l-3.482,64.768v-63.206c0-.171-.1-.311-.233-.311s-.233.139-.233.311V2202.3a.284.284,0,0,0,.223.31h.01" transform="translate(-144.423 -1796.145)" fill="#b7c0ce"/>
        <path id="Path_194624" data-name="Path 194624" d="M503.084,2082.922l55.151-.411v1.214a.667.667,0,0,1-.566.66l-15.6,2.392a2.51,2.51,0,0,1-.56.022l-37.831-2.726a.646.646,0,0,1-.6-.644Z" transform="translate(-424.276 -1756.285)" fill="#26264f"/>
        <path id="Path_194625" data-name="Path 194625" d="M625.885,1952.752l34.567,2.221a1,1,0,0,0,1.122-.944v-22.471a1.073,1.073,0,0,0-1.122-1.016H625.885a.92.92,0,0,0-.922.918v20.313a.994.994,0,0,0,.922.977" transform="translate(-527.063 -1628.123)" fill="#26264f"/>
        <path id="Path_194626" data-name="Path 194626" d="M622.367,1952.752l34.566,2.221a1,1,0,0,0,1.121-.944v-22.471a1.073,1.073,0,0,0-1.121-1.016H622.367a.92.92,0,0,0-.922.918v20.313a.994.994,0,0,0,.922.977" transform="translate(-524.096 -1628.123)" fill="#26264f"/>
      </g>
    </g>
    <g id="Group_127810" data-name="Group 127810" transform="translate(98.587 303.724)">
      <g id="Group_127809" data-name="Group 127809" clip-path="url(#clip-path-64)">
        <rect id="Rectangle_39713" data-name="Rectangle 39713" width="33.868" height="21.432" transform="translate(0 0)" fill="url(#linear-gradient-30)"/>
      </g>
    </g>
    <g id="Group_127815" data-name="Group 127815" transform="translate(0 -0.001)">
      <g id="Group_127814" data-name="Group 127814" clip-path="url(#clip-path-2)">
        <path id="Path_194628" data-name="Path 194628" d="M729.865,1932.433a.4.4,0,1,0,.4-.378.389.389,0,0,0-.4.378" transform="translate(-615.532 -1629.398)" fill="#fff"/>
        <g id="Group_127813" data-name="Group 127813" transform="translate(97.463 302.42)" opacity="0.48" style="mix-blend-mode: soft-light;isolation: isolate">
          <g id="Group_127812" data-name="Group 127812">
            <g id="Group_127811" data-name="Group 127811" clip-path="url(#clip-path-66)">
              <path id="Path_194629" data-name="Path 194629" d="M631.168,1946.6c2.678-1.3,4.785.349,6.817-1.283,1.232-.989.627-1.726,2.143-3.2,1.679-1.637,2.773-1.086,4.46-2.56,2.134-1.863,1.067-3.312,2.9-4.649,2.23-1.623,4.635-.121,6.758-1.677a4.609,4.609,0,0,0,1.68-2.685h2.077a.631.631,0,0,1,.66.6v23.309a.584.584,0,0,1-.66.554l-35.409-2.275a.581.581,0,0,1-.427-.236,8.442,8.442,0,0,0,5.2-1.685c1.991-1.591,1.646-3.16,3.793-4.206" transform="translate(-622.172 -1930.543)" fill="#fff"/>
            </g>
          </g>
        </g>
      </g>
    </g>
    <g id="Group_127817" data-name="Group 127817" transform="translate(78.808 324.56)">
      <g id="Group_127816" data-name="Group 127816" clip-path="url(#clip-path-67)">
        <rect id="Rectangle_39716" data-name="Rectangle 39716" width="55.151" height="4.859" transform="translate(0 0)" fill="url(#linear-gradient-31)"/>
      </g>
    </g>
    <g id="Group_127822" data-name="Group 127822" transform="translate(0 -0.001)">
      <g id="Group_127821" data-name="Group 127821" clip-path="url(#clip-path-2)">
        <g id="Group_127820" data-name="Group 127820" transform="translate(88.142 324.95)" opacity="0.3" style="mix-blend-mode: multiply;isolation: isolate">
          <g id="Group_127819" data-name="Group 127819">
            <g id="Group_127818" data-name="Group 127818" clip-path="url(#clip-path-69)">
              <path id="Path_194631" data-name="Path 194631" d="M603.076,2076.34l-30.858-1.976-9.55,1.112,30.593,2.112Z" transform="translate(-562.667 -2074.365)" fill="#26264f"/>
            </g>
          </g>
        </g>
      </g>
    </g>
    <g id="Group_127824" data-name="Group 127824" transform="translate(87.216 397.106)">
      <g id="Group_127823" data-name="Group 127823" clip-path="url(#clip-path-70)">
        <rect id="Rectangle_39719" data-name="Rectangle 39719" width="5.199" height="11.472" transform="matrix(0.078, -0.997, 0.997, 0.078, -0.503, 4.311)" fill="url(#linear-gradient-32)"/>
      </g>
    </g>
    <g id="Group_127826" data-name="Group 127826" transform="translate(87.099 394.02)">
      <g id="Group_127825" data-name="Group 127825" clip-path="url(#clip-path-71)">
        <rect id="Rectangle_39720" data-name="Rectangle 39720" width="3.972" height="4.985" transform="translate(-0.703 0.112) rotate(-9.055)" fill="#ffe5ce"/>
      </g>
    </g>
    <g id="Group_127828" data-name="Group 127828" transform="translate(109.889 395.563)">
      <g id="Group_127827" data-name="Group 127827" clip-path="url(#clip-path-72)">
        <rect id="Rectangle_39721" data-name="Rectangle 39721" width="5.199" height="11.472" transform="matrix(0.078, -0.997, 0.997, 0.078, -0.503, 4.311)" fill="url(#linear-gradient-33)"/>
      </g>
    </g>
    <g id="Group_127830" data-name="Group 127830" transform="translate(109.772 392.477)">
      <g id="Group_127829" data-name="Group 127829" clip-path="url(#clip-path-73)">
        <rect id="Rectangle_39722" data-name="Rectangle 39722" width="3.971" height="4.985" transform="translate(-0.703 0.112) rotate(-9.055)" fill="#ffe5ce"/>
      </g>
    </g>
    <g id="Group_127832" data-name="Group 127832" transform="translate(32.787 342.537)">
      <g id="Group_127831" data-name="Group 127831" clip-path="url(#clip-path-74)">
        <rect id="Rectangle_39723" data-name="Rectangle 39723" width="84.626" height="80.781" transform="translate(-25.539 16.346) rotate(-33.906)" fill="url(#linear-gradient-34)"/>
      </g>
    </g>
    <g id="Group_127834" data-name="Group 127834" transform="translate(39.96 346.674)">
      <g id="Group_127833" data-name="Group 127833" clip-path="url(#clip-path-75)">
        <rect id="Rectangle_39724" data-name="Rectangle 39724" width="75.14" height="48.77" transform="translate(-0.813 0)" fill="url(#linear-gradient-35)"/>
      </g>
    </g>
    <g id="Group_127836" data-name="Group 127836" transform="translate(31.324 292.921)">
      <g id="Group_127835" data-name="Group 127835" clip-path="url(#clip-path-76)">
        <rect id="Rectangle_39725" data-name="Rectangle 39725" width="92.554" height="93.263" transform="matrix(0.723, -0.691, 0.691, 0.723, -39.751, 36.526)" fill="#ffb600"/>
      </g>
    </g>
    <g id="Group_127838" data-name="Group 127838" transform="translate(108.096 325.009)">
      <g id="Group_127837" data-name="Group 127837" clip-path="url(#clip-path-77)">
        <rect id="Rectangle_39726" data-name="Rectangle 39726" width="12.831" height="5.654" transform="matrix(0.977, -0.214, 0.214, 0.977, -0.639, 0.14)" fill="#ffe5ce"/>
      </g>
    </g>
    <g id="Group_127840" data-name="Group 127840" transform="translate(54.77 280.207)">
      <g id="Group_127839" data-name="Group 127839" clip-path="url(#clip-path-78)">
        <rect id="Rectangle_39727" data-name="Rectangle 39727" width="22.655" height="23.354" transform="matrix(0.4, -0.917, 0.917, 0.4, -6.376, 14.119)" fill="#ffe5ce"/>
      </g>
    </g>
    <g id="Group_127842" data-name="Group 127842" transform="translate(0 -0.001)">
      <g id="Group_127841" data-name="Group 127841" clip-path="url(#clip-path-2)">
        <path id="Path_194641" data-name="Path 194641" d="M113.654,1774.71c.472,1.041-.673,3.131-1.1,3.435a2.542,2.542,0,0,0-.555.606.782.782,0,0,0-.087.181c-.336.967,1.2,2.1.9,2.536-.215.314-1.259-.105-1.384.165-.117.255.751.783.618,1.089-.1.231-.634.02-.971.374a1.289,1.289,0,0,0-.3.854c-.042,1.374,3.074,6.336,3.723,8.574.688,2.374-.543,4.634-5.016,10.879-6.362,8.883-9.543,13.324-11.312,14.594-8.644,6.2-18.807,5.444-22.975,4.8-5.007-.778-15.352-2.385-18.683-10.352-3.829-9.158,3.71-21.689,11.446-23.817,3.537-.973,5.421.5,10.015-1.094,5.074-1.766,4.459-4.888,9.156-6.732,6.265-2.459,10.308,1.937,14.576-1.264,2.323-1.742,1.94-3.655,4.8-5.05,2.819-1.376,6.522-1.142,7.141.223" transform="translate(-46.801 -1495.734)" fill="#26264f"/>
      </g>
    </g>
    <g id="Group_127844" data-name="Group 127844" transform="translate(64.427 285.157)">
      <g id="Group_127843" data-name="Group 127843" clip-path="url(#clip-path-80)">
        <rect id="Rectangle_39729" data-name="Rectangle 39729" width="2.793" height="2.631" transform="translate(-0.816 1.863) rotate(-66.448)" fill="#ffe5ce"/>
      </g>
    </g>
    <g id="Group_127851" data-name="Group 127851" transform="translate(0 -0.001)">
      <g id="Group_127850" data-name="Group 127850" clip-path="url(#clip-path-2)">
        <g id="Group_127849" data-name="Group 127849" transform="translate(34.291 309.94)" opacity="0.3" style="mix-blend-mode: multiply;isolation: isolate">
          <g id="Group_127848" data-name="Group 127848">
            <g id="Group_127847" data-name="Group 127847" clip-path="url(#clip-path-82)">
              <g id="Group_127846" data-name="Group 127846">
                <g id="Group_127845" data-name="Group 127845" clip-path="url(#clip-path-83)">
                  <rect id="Rectangle_39730" data-name="Rectangle 39730" width="73.346" height="73.881" transform="matrix(0.723, -0.691, 0.691, 0.723, -30.104, 28.039)" fill="url(#linear-gradient-36)"/>
                </g>
              </g>
            </g>
          </g>
        </g>
      </g>
    </g>
    <g id="Group_127853" data-name="Group 127853" transform="translate(68.63 296.678)">
      <g id="Group_127852" data-name="Group 127852" clip-path="url(#clip-path-84)">
        <rect id="Rectangle_39733" data-name="Rectangle 39733" width="58.012" height="57.963" transform="matrix(0.723, -0.691, 0.691, 0.723, -20.88, 19.208)" fill="#feb62b"/>
      </g>
    </g>
    <g id="Group_127855" data-name="Group 127855" transform="translate(0 -0.001)">
      <g id="Group_127854" data-name="Group 127854" clip-path="url(#clip-path-2)">
        <path id="Path_194645" data-name="Path 194645" d="M225.581,2556.452c0,4.493,8.923,8.134,19.93,8.134s19.931-3.641,19.931-8.134-8.923-8.134-19.931-8.134-19.93,3.642-19.93,8.134" transform="translate(-190.244 -2149.123)" fill="#b7c0ce"/>
      </g>
    </g>
    <g id="Group_127857" data-name="Group 127857" transform="translate(35.337 395.195)">
      <g id="Group_127856" data-name="Group 127856" clip-path="url(#clip-path-86)">
        <rect id="Rectangle_39735" data-name="Rectangle 39735" width="39.861" height="18.858" fill="url(#linear-gradient-37)"/>
      </g>
    </g>
    <g id="Group_127869" data-name="Group 127869" transform="translate(0 -0.001)">
      <g id="Group_127868" data-name="Group 127868" clip-path="url(#clip-path-2)">
        <g id="Group_127862" data-name="Group 127862" transform="translate(35.337 395.195)" opacity="0.3" style="mix-blend-mode: multiply;isolation: isolate">
          <g id="Group_127861" data-name="Group 127861">
            <g id="Group_127860" data-name="Group 127860" clip-path="url(#clip-path-88)">
              <g id="Group_127859" data-name="Group 127859">
                <g id="Group_127858" data-name="Group 127858" clip-path="url(#clip-path-89)">
                  <rect id="Rectangle_39736" data-name="Rectangle 39736" width="33.53" height="14.947" transform="translate(0)" fill="url(#linear-gradient-38)"/>
                </g>
              </g>
            </g>
          </g>
        </g>
        <path id="Path_194648" data-name="Path 194648" d="M339.789,2418.911a4.515,4.515,0,0,0,2.238.013,1.44,1.44,0,0,0,1.069-1.4v-22.474h-4.432V2417.5a1.467,1.467,0,0,0,1.124,1.416" transform="translate(-285.613 -2019.863)" fill="#fff"/>
        <g id="Group_127867" data-name="Group 127867" transform="translate(53.052 375.185)" opacity="0.65" style="mix-blend-mode: multiply;isolation: isolate">
          <g id="Group_127866" data-name="Group 127866">
            <g id="Group_127865" data-name="Group 127865" clip-path="url(#clip-path-90)">
              <g id="Group_127864" data-name="Group 127864">
                <g id="Group_127863" data-name="Group 127863" clip-path="url(#clip-path-91)">
                  <rect id="Rectangle_39738" data-name="Rectangle 39738" width="4.432" height="24.061" fill="url(#linear-gradient-39)"/>
                </g>
              </g>
            </g>
          </g>
        </g>
      </g>
    </g>
    <g id="Group_127871" data-name="Group 127871" transform="translate(27.779 336.037)">
      <g id="Group_127870" data-name="Group 127870" clip-path="url(#clip-path-92)">
        <rect id="Rectangle_39741" data-name="Rectangle 39741" width="67.995" height="70.004" transform="translate(-22.993 27.544) rotate(-52.496)" fill="url(#linear-gradient-40)"/>
      </g>
    </g>
    <g id="Group_127876" data-name="Group 127876" transform="translate(0 -0.001)">
      <g id="Group_127875" data-name="Group 127875" clip-path="url(#clip-path-2)">
        <g id="Group_127874" data-name="Group 127874" transform="translate(34.912 338.299)" opacity="0.26" style="mix-blend-mode: soft-light;isolation: isolate">
          <g id="Group_127873" data-name="Group 127873">
            <g id="Group_127872" data-name="Group 127872" clip-path="url(#clip-path-94)">
              <path id="Path_194651" data-name="Path 194651" d="M263.526,2190.057c-.25-1.505-4.445-.258-8.412-3.205-5.931-4.406-2.853-11.868-8.012-19.028-4.735-6.57-14.266-9.914-17.225-7.411-3.939,3.332,5.7,15.794,0,23.835-2.769,3.906-6.988,3.718-7.01,6.009-.034,3.62,10.467,7.794,20.43,7.611,10.711-.2,20.627-5.423,20.23-7.812" transform="translate(-222.867 -2159.582)" fill="#fff"/>
            </g>
          </g>
        </g>
      </g>
    </g>
    <g id="Group_127878" data-name="Group 127878" transform="translate(139.921 428.4)">
      <g id="Group_127877" data-name="Group 127877" clip-path="url(#clip-path-95)">
        <rect id="Rectangle_39744" data-name="Rectangle 39744" width="6.363" height="5.749" transform="translate(-1.797 1.002) rotate(-33.606)" fill="url(#linear-gradient-41)"/>
      </g>
    </g>
    <g id="Group_127880" data-name="Group 127880" transform="translate(0 -0.001)">
      <g id="Group_127879" data-name="Group 127879" clip-path="url(#clip-path-2)">
        <path id="Path_194653" data-name="Path 194653" d="M890.58,2707.039l-2.78.139c.963-1.751-.195-6.513-.195-6.513l3,.088s-.074,1.383-.257,3.436a12.992,12.992,0,0,0,.23,2.85" transform="translate(-748.562 -2277.605)" fill="#ffe5ce"/>
      </g>
    </g>
    <g id="Group_127882" data-name="Group 127882" transform="translate(138.458 429.018)">
      <g id="Group_127881" data-name="Group 127881" clip-path="url(#clip-path-97)">
        <rect id="Rectangle_39746" data-name="Rectangle 39746" width="5.236" height="4.73" transform="translate(-1.627 0.823) rotate(-33.606)" fill="url(#linear-gradient-42)"/>
      </g>
    </g>
    <g id="Group_127884" data-name="Group 127884" transform="translate(175.315 434.721)">
      <g id="Group_127883" data-name="Group 127883" clip-path="url(#clip-path-98)">
        <rect id="Rectangle_39747" data-name="Rectangle 39747" width="6.404" height="6.268" transform="matrix(0.747, -0.665, 0.665, 0.747, -2.049, 1.618)" fill="url(#linear-gradient-43)"/>
      </g>
    </g>
    <g id="Group_127886" data-name="Group 127886" transform="translate(0 -0.001)">
      <g id="Group_127885" data-name="Group 127885" clip-path="url(#clip-path-2)">
        <path id="Path_194656" data-name="Path 194656" d="M1108.337,2751.155l-2.731.536c.7-1.871-1.127-6.417-1.127-6.417l2.983-.344s.126,1.379.239,3.438a13.01,13.01,0,0,0,.636,2.788" transform="translate(-931.462 -2314.936)" fill="#ffe5ce"/>
      </g>
    </g>
    <g id="Group_127888" data-name="Group 127888" transform="translate(173.81 435.709)">
      <g id="Group_127887" data-name="Group 127887" clip-path="url(#clip-path-100)">
        <rect id="Rectangle_39749" data-name="Rectangle 39749" width="5.111" height="5.007" transform="translate(-1.635 1.305) rotate(-41.653)" fill="url(#linear-gradient-44)"/>
      </g>
    </g>
    <g id="Group_127890" data-name="Group 127890" transform="translate(130.629 338.299)">
      <g id="Group_127889" data-name="Group 127889" clip-path="url(#clip-path-101)">
        <rect id="Rectangle_39750" data-name="Rectangle 39750" width="22.497" height="87.763" transform="translate(-0.626)" fill="url(#linear-gradient-45)"/>
      </g>
    </g>
    <g id="Group_127897" data-name="Group 127897" transform="translate(0 -0.001)">
      <g id="Group_127896" data-name="Group 127896" clip-path="url(#clip-path-2)">
        <g id="Group_127895" data-name="Group 127895" transform="translate(132.41 338.299)" opacity="0.3" style="mix-blend-mode: multiply;isolation: isolate">
          <g id="Group_127894" data-name="Group 127894">
            <g id="Group_127893" data-name="Group 127893" clip-path="url(#clip-path-103)">
              <g id="Group_127892" data-name="Group 127892" transform="translate(0)">
                <g id="Group_127891" data-name="Group 127891" clip-path="url(#clip-path-104)">
                  <rect id="Rectangle_39751" data-name="Rectangle 39751" width="21.052" height="87.763" transform="translate(-0.963)" fill="url(#linear-gradient-46)"/>
                </g>
              </g>
            </g>
          </g>
        </g>
      </g>
    </g>
    <g id="Group_127899" data-name="Group 127899" transform="translate(143.708 339.692)">
      <g id="Group_127898" data-name="Group 127898" clip-path="url(#clip-path-105)">
        <rect id="Rectangle_39754" data-name="Rectangle 39754" width="50.376" height="98.202" transform="translate(-16.839 2.952) rotate(-10.229)" fill="url(#linear-gradient-47)"/>
      </g>
    </g>
    <g id="Group_127901" data-name="Group 127901" transform="translate(0 -0.001)">
      <g id="Group_127900" data-name="Group 127900" clip-path="url(#clip-path-2)">
        <path id="Path_194661" data-name="Path 194661" d="M1113.447,1800.823l11.72-27.455a2.414,2.414,0,0,0-1.65-3.293l-21.469-5.214a2.414,2.414,0,0,0-2.8,1.433l-10.78,26.387a2.414,2.414,0,0,0,1.528,3.221l20.529,6.281a2.414,2.414,0,0,0,2.926-1.36" transform="translate(-917.804 -1488.338)" fill="#26264f"/>
        <path id="Path_194662" data-name="Path 194662" d="M1118.992,1805.183l10.948-25.645a2.254,2.254,0,0,0-1.541-3.076l-20.054-4.87a2.254,2.254,0,0,0-2.619,1.338l-10.07,24.648a2.254,2.254,0,0,0,1.427,3.008l19.176,5.867a2.254,2.254,0,0,0,2.733-1.271" transform="translate(-923.88 -1494.018)" fill="#fff"/>
      </g>
    </g>
    <g id="Group_127903" data-name="Group 127903" transform="translate(199.779 291.74)">
      <g id="Group_127902" data-name="Group 127902" clip-path="url(#clip-path-107)">
        <rect id="Rectangle_39756" data-name="Rectangle 39756" width="4.853" height="11.886" transform="translate(-0.158 0)" fill="#ffe5ce"/>
      </g>
    </g>
    <g id="Group_127905" data-name="Group 127905" transform="translate(123.796 267.789)">
      <g id="Group_127904" data-name="Group 127904" clip-path="url(#clip-path-108)">
        <rect id="Rectangle_39757" data-name="Rectangle 39757" width="67.976" height="89.768" transform="translate(-4.411 0)" fill="url(#linear-gradient-48)"/>
      </g>
    </g>
    <g id="Group_127912" data-name="Group 127912" transform="translate(0 -0.001)">
      <g id="Group_127911" data-name="Group 127911" clip-path="url(#clip-path-2)">
        <path id="Path_194665" data-name="Path 194665" d="M943.848,1637.327a6.789,6.789,0,0,0-.728-4.864c-1.036-1.911-1.3-2.173-1.8-2.5l-.687-.424-.082-.031a7.964,7.964,0,0,0-2.249-.137c-.973.208-2.008,4.17-1.713,9.773q-.061.32-.117.646-.23,1.327-.369,2.6c-.09.811-1.24.792-2.054.74-3.305-.211-4.923.071-5.064.563-.264.922,3.657,3.938,8.5,4.617,6.5.048,11.783-.644,11.215-1.667-.252-.454-5.286-1.77-6.7-3.073a4.332,4.332,0,0,1-1.3-3.309c.393-.2,2.672-1.245,3.145-2.93" transform="translate(-783.453 -1374.103)" fill="#ffe5ce"/>
        <path id="Path_194666" data-name="Path 194666" d="M955.473,1587.27a6.52,6.52,0,0,1-1.24,3.887,2.891,2.891,0,0,0-.628.687.878.878,0,0,0-.1.205c-.38,1.094,1.359,2.381,1.023,2.871-.243.355-1.426-.12-1.566.187-.132.289.85.886.7,1.232-.114.261-.718.022-1.1.422-.19.2-.134.357-.335.966a5.516,5.516,0,0,1-.4.931c-.6,1.019-2.3,1.391-2.626.983-.091-.114-.013-.209-.106-.591a3.047,3.047,0,0,0-.332-.762,7.908,7.908,0,0,0-2.056-1.618,5.622,5.622,0,0,1-2.145-2.443c-.046-.117-.075-.205-.1-.269a6.452,6.452,0,0,1,.161-4.314c.964-1.936,3.137-1.017,4.916-2.935,2.053-2.213.83-5.238,1.944-5.572,1.228-.368,3.992,2.923,3.981,6.133" transform="translate(-796.273 -1333.428)" fill="#26264f"/>
        <path id="Path_194667" data-name="Path 194667" d="M999.928,1665.348c-.425-.584-1.173-.035-1.177.721s.728,1.542,1.439,1.393.31-1.327-.262-2.114" transform="translate(-842.297 -1404.264)" fill="#ffe5ce"/>
        <path id="Path_194668" data-name="Path 194668" d="M1004.063,1658.59l.987,1.284s1.064,1.573,1.685.711c.507-.7.639-.688.67-.659.006.006.007.014.009.014s-.074-.35-.149-.656a5.766,5.766,0,0,1,.844,1.812,3.207,3.207,0,0,1-.01,2.478,2.462,2.462,0,0,1-1.451,1.135,6.512,6.512,0,0,1-1.907-.188s1.685-1.223,1.711-1.513c.07-.79-1.026-1.217-1.839-2.836a6.492,6.492,0,0,1-.55-1.581" transform="translate(-846.776 -1398.771)" fill="#26264f"/>
        <g id="Group_127910" data-name="Group 127910" transform="translate(130.345 290.141)" opacity="0.3" style="mix-blend-mode: multiply;isolation: isolate">
          <g id="Group_127909" data-name="Group 127909">
            <g id="Group_127908" data-name="Group 127908" clip-path="url(#clip-path-110)">
              <g id="Group_127907" data-name="Group 127907" transform="translate(0 0)">
                <g id="Group_127906" data-name="Group 127906" clip-path="url(#clip-path-111)">
                  <rect id="Rectangle_39758" data-name="Rectangle 39758" width="83.012" height="83.618" transform="translate(-34.071 31.734) rotate(-43.678)" fill="url(#linear-gradient-49)"/>
                </g>
              </g>
            </g>
          </g>
        </g>
      </g>
    </g>
    <g id="Group_127914" data-name="Group 127914" transform="translate(169.21 275.131)">
      <g id="Group_127913" data-name="Group 127913" clip-path="url(#clip-path-112)">
        <rect id="Rectangle_39761" data-name="Rectangle 39761" width="34.722" height="47.061" transform="translate(-0.866 0)" fill="url(#linear-gradient-50)"/>
      </g>
    </g>
  </g>
</svg>
