<svg id="Group_126199" data-name="Group 126199" xmlns="http://www.w3.org/2000/svg" xmlns:xlink="http://www.w3.org/1999/xlink" width="89.975" height="90" viewBox="0 0 89.975 90">
  <defs>
    <clipPath id="clip-path">
      <rect id="Rectangle_36814" data-name="Rectangle 36814" width="89.975" height="90" fill="#ff6b00"/>
    </clipPath>
  </defs>
  <g id="Group_120474" data-name="Group 120474" clip-path="url(#clip-path)">
    <path id="Path_181576" data-name="Path 181576" d="M9.662,90H7.905c-.223-.056-.446-.115-.671-.162a8.467,8.467,0,0,1-6.7-5.782,8.552,8.552,0,0,1,2.322-9.326q5.322-5.368,10.688-10.688c.349-.349.763-.634,1.156-.956a38.522,38.522,0,0,1-4.253-9.99,1.144,1.144,0,0,0-.736-.578c-1.975-.533-3.965-1.013-5.947-1.526a1.859,1.859,0,0,1-1.651-2.126q-.011-4.919,0-9.842A1.859,1.859,0,0,1,3.76,36.9c1.926-.5,3.854-.981,5.789-1.444a1.069,1.069,0,0,0,.916-.878,34.133,34.133,0,0,1,3.787-9.218,1.053,1.053,0,0,0-.047-1.262c-1-1.616-1.973-3.254-2.948-4.887-.776-1.3-.709-1.9.335-2.952q3.383-3.394,6.773-6.773c1.026-1.024,1.64-1.1,2.875-.367,1.636.974,3.271,1.946,4.889,2.945a1,1,0,0,0,1.2.047,34.629,34.629,0,0,1,9.432-3.947,1.013,1.013,0,0,0,.83-.86q.683-2.813,1.4-5.618a1.856,1.856,0,0,1,2.1-1.678q4.965-.016,9.929,0A1.836,1.836,0,0,1,53.08,1.629C53.562,3.5,54,5.381,54.513,7.24a1.291,1.291,0,0,0,.738.8,39.061,39.061,0,0,1,9.7,4,1.19,1.19,0,0,0,1-.018c1.652-.938,3.271-1.94,4.907-2.911a1.886,1.886,0,0,1,2.81.328q3.456,3.44,6.9,6.9a1.86,1.86,0,0,1,.335,2.74c-.954,1.613-1.906,3.226-2.9,4.813a1.045,1.045,0,0,0-.034,1.262A34.481,34.481,0,0,1,81.9,34.685a1,1,0,0,0,.862.826c1.737.4,3.46.871,5.2,1.269a2.8,2.8,0,0,1,2.02,1.366v11.6a2.791,2.791,0,0,1-2.02,1.366c-1.737.4-3.458.868-5.195,1.267a1.128,1.128,0,0,0-.97.934,33.993,33.993,0,0,1-3.877,9.266,1.113,1.113,0,0,0,.047,1.348c1.008,1.611,1.971,3.251,2.938,4.887a1.863,1.863,0,0,1-.331,2.74q-3.437,3.456-6.892,6.894a1.882,1.882,0,0,1-2.806.338c-1.685-1-3.371-2-5.036-3.029a.991.991,0,0,0-1.183-.025,34.042,34.042,0,0,1-9.212,3.778,1.126,1.126,0,0,0-.927.979c-.448,1.906-.931,3.805-1.417,5.7a1.881,1.881,0,0,1-2.176,1.7q-4.874.008-9.747,0A1.879,1.879,0,0,1,38.988,86.2c-.488-1.9-.97-3.794-1.422-5.7a1.21,1.21,0,0,0-1.033-1.089,14.055,14.055,0,0,1-2.59-.8c-2.336-.981-4.648-2.021-7.164-3.125a4.77,4.77,0,0,1-.473.614c-3.263,3.278-6.568,6.514-9.792,9.83C14.58,87.916,12.537,89.637,9.662,90M37.37,65.052c.261.1.364.151.472.189,7.9,2.835,15.273,1.84,22.016-3.161A22.829,22.829,0,0,0,54.644,22.8c-.108-.045-.216-.092-.322-.14-1.2-.549-1.649-1.438-1.229-2.432.41-.97,1.413-1.282,2.608-.8A25.652,25.652,0,0,1,68.454,30.136a25.568,25.568,0,0,1,1.755,24.233A25.476,25.476,0,0,1,56.464,68.138,24.112,24.112,0,0,1,42.3,69.959c-2.369-.427-4.657-1.3-6.986-1.946-.274-.076-.707-.158-.855-.018-1.618,1.561-3.193,3.163-4.833,4.808.252.146.419.247.59.34a30.723,30.723,0,0,0,8.255,3.134,2.5,2.5,0,0,1,2.192,2.153c.355,1.775.895,3.514,1.3,5.281.124.551.367.68.891.675q3.162-.04,6.325,0c.556.007.815-.121.947-.718.392-1.769.92-3.51,1.3-5.281a2.348,2.348,0,0,1,2.016-2A29.488,29.488,0,0,0,63.313,72.4a3.049,3.049,0,0,1,3.845.034c1.507,1.039,3.13,1.908,4.522,2.743l5.587-5.585c-1-1.661-2.038-3.424-3.105-5.171a2.064,2.064,0,0,1-.014-2.385A33.825,33.825,0,0,0,78.753,51a2.055,2.055,0,0,1,1.71-1.658c1.795-.416,3.569-.913,5.364-1.328a.7.7,0,0,0,.644-.828c-.025-2.138-.032-4.277,0-6.415.011-.589-.187-.792-.752-.918-1.685-.373-3.343-.859-5.027-1.229a2.312,2.312,0,0,1-1.946-1.973A31.578,31.578,0,0,0,74.365,26a2.417,2.417,0,0,1,.016-2.921c1.04-1.616,1.993-3.29,2.9-4.808-1.892-1.9-3.7-3.724-5.555-5.587-1.559.934-3.215,1.868-4.806,2.9a2.46,2.46,0,0,1-3,0A30.476,30.476,0,0,0,53.616,11.3a2.662,2.662,0,0,1-2.335-2.333c-.365-1.827-.889-3.622-1.346-5.429h-7.79c-.493,1.957-1.015,3.9-1.465,5.864a2.222,2.222,0,0,1-1.836,1.859,32.648,32.648,0,0,0-10.71,4.471,2.317,2.317,0,0,1-2.768-.032c-1.676-1.062-3.4-2.05-5.031-3.026l-5.553,5.562c1.017,1.7,2.061,3.488,3.155,5.247a2.167,2.167,0,0,1,.005,2.536,33.283,33.283,0,0,0-4.4,10.742,2.1,2.1,0,0,1-1.733,1.742c-1.85.432-3.685.936-5.535,1.366-.49.113-.67.3-.664.812q.04,3.251,0,6.5a.692.692,0,0,0,.646.824c1.879.434,3.744.936,5.62,1.386a2.123,2.123,0,0,1,1.714,1.661,44.682,44.682,0,0,0,1.337,4.448c.621,1.642,1.409,3.222,2.185,4.963,1.622-1.629,3.04-3.109,4.527-4.514a1.122,1.122,0,0,0,.281-1.514,24.382,24.382,0,0,1-2.209-11.009A25.833,25.833,0,0,1,31.505,22a35.734,35.734,0,0,1,5.045-2.628,1.729,1.729,0,0,1,2.437.855,1.76,1.76,0,0,1-1.073,2.356c-.211.1-.428.187-.644.279A22.888,22.888,0,0,0,24.154,50.453c.207.706.5,1.386.79,2.185,1.42-1.427,2.664-2.8,4.041-4.019,1.111-.985,1.814-2,1.285-3.524a.975.975,0,0,1-.018-.263A15.758,15.758,0,0,1,50.123,28.71,14.947,14.947,0,0,1,61.473,40.76c1.314,6.359-.783,11.689-5.864,15.721a15.192,15.192,0,0,1-11.894,3.112c-.32-.043-.781-.067-.968.115-1.787,1.724-3.53,3.5-5.377,5.344M31.826,50.9,8.971,73.761l7.2,7.2Q27.553,69.592,39.035,58.121A15.887,15.887,0,0,1,31.826,50.9M33.8,44.4c.428-.133.788-.241,1.147-.36,4.214-1.406,8.424-2.819,12.643-4.207a3.2,3.2,0,0,1,1.445-.205c1.154.187,1.631,1.294,1.188,2.623q-2.146,6.448-4.307,12.888c-.115.342-.2.695-.3,1.06,6.642.463,12.578-5.186,12.722-12A12.326,12.326,0,0,0,45.689,31.653c-6.763.189-12.4,6.176-11.889,12.742m.6,3.539a12.508,12.508,0,0,0,7.661,7.641c1.282-3.838,2.533-7.583,3.838-11.486-3.917,1.309-7.663,2.561-11.5,3.845M13.588,83.825c-2.507-2.507-4.961-4.961-7.42-7.418-3.091,2.75-3.55,6.084-1.1,8.525s5.783,1.984,8.523-1.107" transform="translate(0 0)" fill="#ff6b00"/>
    <path id="Path_181578" data-name="Path 181578" d="M28.1,11.546a1.744,1.744,0,1,1-1.715-1.769A1.8,1.8,0,0,1,28.1,11.546" transform="translate(19.688 7.821)" fill="#ff6b00"/>
  </g>
</svg>
