<svg xmlns="http://www.w3.org/2000/svg" width="86" height="86" viewBox="0 0 86 86">
  <g id="Group_127992" data-name="Group 127992" transform="translate(5529.41 9469)">
    <circle id="Ellipse_6343" data-name="Ellipse 6343" cx="43" cy="43" r="43" transform="translate(-5529.41 -9469)" fill="#ff6b00"/>
    <g id="Group_126190" data-name="Group 126190" transform="translate(-5506.41 -9446)">
      <path id="Path_181163" data-name="Path 181163" d="M-995.458,1584.287c.128-2.14.847-2.857,2.6-2.578,0-.256-.008-.507,0-.757a1.827,1.827,0,0,1,.993-1.638.489.489,0,0,0,.3-.522q-.01-5.222,0-10.443c0-.736.185-.918.933-.918h29.116c.739,0,.922.185.922.93q0,8.044-.009,16.089c0,.34.084.43.416.409.482-.031.967-.014,1.451-.006a.648.648,0,0,1,.72.725q.007,3.145,0,6.29a.649.649,0,0,1-.723.724c-.511.008-1.022.017-1.532,0-.263-.011-.332.065-.33.329.012,1.935.006,3.871.006,5.806q0,3.911,0,7.822c0,.687-.2.887-.885.887h-35.649c-.69,0-.889-.2-.89-.882q0-2.984,0-5.968c0-.693.2-.919.878-.881.4.022.423-.127.378-.453a6.361,6.361,0,0,0-.573-1.917,6.93,6.93,0,0,1-.685-3.075c.006-2.594.055-5.189-.02-7.781A2.039,2.039,0,0,1-995.458,1584.287Zm32.28.549c.3,0,.593-.014.885.019.337.039.415-.074.414-.41-.012-4.838-.006-9.676-.012-14.514,0-.4.179-.959-.077-1.148s-.8-.047-1.211-.049c-.067,0-.134-.013-.2-.013h-26.56a.467.467,0,0,1-.081,0c-.222-.04-.261.07-.261.27q.008,4.957,0,9.914a.339.339,0,0,0,.22.365,1.812,1.812,0,0,1,1.045,1.434,6.872,6.872,0,0,1,.009,1.005,1.572,1.572,0,0,0,.17-.01,1.922,1.922,0,0,1,2.43,1.984c0,.779,0,1.558,0,2.337v3.423a.885.885,0,0,0,.144,0,1.923,1.923,0,0,1,2.436,1.977c0,.752-.015,1.5,0,2.257a5.264,5.264,0,0,1-1.55,3.969,3.757,3.757,0,0,0-.92,1.673c-.078.282-.049.4.295.383.686-.025.88.192.882.88q.006,2.135.013,4.271c0,.3.014.593-.019.885-.039.337.074.415.41.415q11.209-.016,22.418,0c.334,0,.415-.076.414-.412-.013-3.978-.006-7.956-.012-11.933,0-.4.179-.959-.077-1.148s-.8-.047-1.211-.049a1.306,1.306,0,0,0-.884.175,9.34,9.34,0,0,1-2.486.9,5.646,5.646,0,0,1-4.635-.676,2.6,2.6,0,0,0-1.495-.408c-.712,0-1.425.014-2.136-.009a.6.6,0,0,0-.63.348c-.832,1.439-1.69,2.863-2.538,4.293a1.475,1.475,0,0,1-.375.465q-1.213.9-2.416,1.812a.657.657,0,0,1-.818.081.672.672,0,0,1-.268-.78c.107-.5.224-1,.3-1.5a6.656,6.656,0,0,1,1.182-3.119c.058-.078.144-.164.113-.286a1.676,1.676,0,0,1-1.423-2.459q2.265-3.985,4.556-7.956a2.39,2.39,0,0,1,1.668-1.156,8.1,8.1,0,0,1,1.727-.051.65.65,0,0,0,.659-.368c1.343-2.289,2.7-4.568,4.061-6.85.366-.616.648-.683,1.235-.3q.772.51,1.541,1.025c.56.375.617.624.276,1.2-1.047,1.764-2.089,3.53-3.147,5.287-.155.257-.15.357.151.474,1.635.635,3.263,1.289,4.888,1.948A1.661,1.661,0,0,0-963.178,1584.835Zm-27.1,1.859q0-1.955,0-3.91c0-.591.008-1.183,0-1.774a.637.637,0,0,0-.647-.676.647.647,0,0,0-.638.686c0,.107,0,.215,0,.322q0,5.16,0,10.32c0,.933,0,.917-.93.936-.31.006-.369-.083-.368-.377.012-2.795.007-5.59.007-8.385a1.947,1.947,0,0,0-.01-.362.61.61,0,0,0-.636-.555.609.609,0,0,0-.635.556,2,2,0,0,0-.009.362q0,3.971,0,7.941c0,.81,0,.785-.8.821-.406.018-.5-.092-.5-.5.024-1.948.009-3.9.013-5.845a.683.683,0,0,0-.411-.714.6.6,0,0,0-.672.124.759.759,0,0,0-.211.625q0,4.051,0,8.1a5.194,5.194,0,0,0,.525,2.295,7.138,7.138,0,0,1,.743,2.738c.012.213.08.266.282.261.537-.013,1.075,0,1.613,0H-988c.167,0,.344.052.38-.222a5.073,5.073,0,0,1,1.468-2.889,3.483,3.483,0,0,0,.976-1.989,28.835,28.835,0,0,0,.058-3.22.638.638,0,0,0-.653-.709.653.653,0,0,0-.631.733c-.006.537,0,1.075,0,1.613,0,.878,0,.862-.859.886-.338.01-.445-.056-.443-.426.018-3.2.01-6.4.01-9.594a3.19,3.19,0,0,0-.006-.363.641.641,0,0,0-.649-.591.641.641,0,0,0-.631.61c-.011.12,0,.242,0,.363q0,3.87,0,7.74c0,.977,0,.964-.976.971-.28,0-.321-.094-.32-.341C-990.272,1590.4-990.276,1588.549-990.276,1586.694ZM-972.5,1588a4.077,4.077,0,0,0,1.13-.176c.291-.058.584-.394.83-.223.222.154.278.535.436.8.129.216.048.3-.147.382a6.925,6.925,0,0,1-2.7.578c-1.1,0-2.2,0-3.305,0a.988.988,0,0,0-1.115.953c-.009.589.436.979,1.128.981,1.1,0,2.2.012,3.305,0a4.712,4.712,0,0,1,2.707.762,2.77,2.77,0,0,0,1.108.456,7.572,7.572,0,0,0,4.5-.891c.159-.078.151-.2.151-.333,0-1.706,0-3.412,0-5.119a.293.293,0,0,0-.206-.329q-2.54-1-5.075-2.024c-.138-.055-.24-.069-.332.089C-970.871,1585.257-971.672,1586.6-972.5,1588Zm-19.105,18.126c1.613,0,3.226-.007,4.839.006.279,0,.364-.067.361-.355-.015-1.478-.018-2.957,0-4.435,0-.323-.109-.366-.392-.366q-4.779.01-9.557-.009c-.3,0-.386.068-.382.375q.03,2.217.009,4.435c0,.287.082.357.361.355C-994.78,1606.123-993.193,1606.13-991.607,1606.13Zm32.293-17.379c0-.766-.006-1.532,0-2.3,0-.212-.035-.312-.281-.31q-1.653.014-3.306-.009c-.246,0-.284.1-.282.308q.015,2.278.008,4.556c0,.225.06.3.293.3,1.089-.011,2.178-.014,3.266,0,.267,0,.307-.1.3-.33C-959.321,1590.229-959.314,1589.49-959.314,1588.75Zm-15.849-.686a5.429,5.429,0,0,1,.673.005.6.6,0,0,0,.66-.372c1.007-1.724,2.034-3.438,3.054-5.155,1.108-1.867,2.212-3.737,3.328-5.6.126-.21.151-.345-.1-.457a.893.893,0,0,1-.234-.156c-.242-.224-.38-.193-.559.111q-3.329,5.647-6.683,11.278C-975.08,1587.818-975.182,1587.9-975.163,1588.065Zm1.088-4.5c-.2,0-.317.011-.434,0a1.653,1.653,0,0,0-1.783,1.007c-.834,1.546-1.732,3.056-2.6,4.582-.533.931-1.07,1.859-1.6,2.795-.211.375-.058.6.364.653a.848.848,0,0,0,1.033-.563,4.422,4.422,0,0,1,.427-.728.571.571,0,0,0,.078-.455,2.2,2.2,0,0,1,1.627-2.693.443.443,0,0,0,.281-.2C-975.828,1586.515-974.974,1585.075-974.075,1583.561Zm-6.12,13.769a2.8,2.8,0,0,0,1.166-.9q.986-1.657,1.971-3.315c.291-.489.291-.489-.214-.7a.7.7,0,0,1-.181-.086c-.2-.161-.29-.054-.392.121-.437.752-.874,1.506-1.331,2.246A5.022,5.022,0,0,0-980.195,1597.329Z" transform="translate(998.042 -1567.429)" fill="#fff"/>
      <path id="Path_181174" data-name="Path 181174" d="M-869.152,1609.268c2.89,0,5.779.005,8.669-.007.3,0,.38.065.374.37-.019.928,0,.928-.937.928q-8.367,0-16.733.008c-.332,0-.425-.072-.415-.411.026-.887.008-.888.9-.888Z" transform="translate(891.112 -1604.752)" fill="#fff"/>
      <path id="Path_181175" data-name="Path 181175" d="M-894.417,1634.5c-2.446,0-4.892-.006-7.338.007-.3,0-.382-.06-.375-.368.019-.929,0-.929.936-.929q7.076,0,14.152-.008c.33,0,.427.068.417.41-.027.888-.008.889-.9.889Z" transform="translate(912.468 -1626.109)" fill="#fff"/>
      <path id="Path_181176" data-name="Path 181176" d="M-894.417,1658.437c-2.446,0-4.892-.006-7.338.008-.3,0-.378-.07-.372-.372.018-.926,0-.926.938-.926q7.076,0,14.152-.009c.335,0,.423.077.413.413-.025.885-.008.886-.9.886Z" transform="translate(912.465 -1647.469)" fill="#fff"/>
      <path id="Path_181177" data-name="Path 181177" d="M-812.512,1854.684c1.814,0,3.629.007,5.443-.008.3,0,.38.065.374.37-.019.928,0,.928-.937.928-3.427,0-6.854-.005-10.281.008-.332,0-.425-.072-.415-.411.026-.887.008-.888.9-.888Z" transform="translate(837.698 -1823.716)" fill="#fff"/>
      <path id="Path_181178" data-name="Path 181178" d="M-696.079,1609.341v1.273c-.779,0-1.557,0-2.336.013-.194,0-.241-.055-.248-.246-.041-1.049-.047-1.049,1.014-1.048C-697.126,1609.334-696.6,1609.339-696.079,1609.341Z" transform="translate(730.942 -1604.817)" fill="#fff"/>
      <path id="Path_181179" data-name="Path 181179" d="M-696.079,1854.759v1.274c-.779,0-1.557,0-2.336.013-.193,0-.241-.055-.248-.247-.041-1.048-.047-1.049,1.014-1.048C-697.126,1854.752-696.6,1854.757-696.079,1854.759Z" transform="translate(730.941 -1823.783)" fill="#fff"/>
    </g>
  </g>
</svg>
