<svg xmlns="http://www.w3.org/2000/svg" width="90.065" height="90" viewBox="0 0 90.065 90">
  <g id="Group_128004" data-name="Group 128004" transform="translate(-229.108 -12111.5)">
    <g id="Group_127358" data-name="Group 127358" transform="translate(229.108 12111.5)">
      <path id="Path_181163" data-name="Path 181163" d="M-992.227,1605.359c.287-4.815,1.9-6.429,5.854-5.8,0-.576-.019-1.141,0-1.7a4.111,4.111,0,0,1,2.234-3.685,1.1,1.1,0,0,0,.672-1.175q-.022-11.749-.01-23.5c0-1.656.417-2.066,2.1-2.066h65.511c1.663,0,2.075.416,2.075,2.092q0,18.1-.019,36.2c0,.765.188.969.936.92,1.084-.07,2.177-.031,3.266-.014a1.459,1.459,0,0,1,1.621,1.632q.016,7.076,0,14.153a1.461,1.461,0,0,1-1.626,1.628c-1.149.017-2.3.038-3.447-.01-.592-.025-.747.146-.743.74.027,4.354.014,8.709.014,13.064q0,8.8,0,17.6c0,1.546-.449,2-1.991,2h-80.21c-1.552,0-2-.445-2-1.984q0-6.714,0-13.427c0-1.559.442-2.067,1.975-1.983.9.049.951-.285.85-1.021a14.312,14.312,0,0,0-1.289-4.314,15.587,15.587,0,0,1-1.541-6.918c.013-5.836.123-11.677-.044-17.508C-998.128,1607.2-995.8,1604.453-992.227,1605.359Zm72.63,1.234c.664.01,1.335-.032,1.992.043.758.087.935-.167.933-.923-.028-10.885-.015-21.771-.027-32.656,0-.893.4-2.158-.173-2.583-.605-.447-1.792-.107-2.725-.11-.151-.01-.3-.029-.451-.029H-979.81a1.042,1.042,0,0,1-.181,0c-.5-.089-.588.157-.587.607q.018,11.152,0,22.305a.763.763,0,0,0,.5.821,4.077,4.077,0,0,1,2.351,3.226,15.449,15.449,0,0,1,.019,2.261,3.455,3.455,0,0,0,.383-.024,4.325,4.325,0,0,1,5.467,4.463c.007,1.753,0,3.506,0,5.259v7.7a2.01,2.01,0,0,0,.324,0,4.327,4.327,0,0,1,5.482,4.448c.008,1.692-.033,3.386.008,5.078a11.843,11.843,0,0,1-3.487,8.929,8.455,8.455,0,0,0-2.07,3.764c-.175.635-.109.891.663.863,1.544-.057,1.979.431,1.984,1.98q.014,4.8.03,9.609c-.01.665.032,1.335-.043,1.992-.087.758.167.934.923.933q25.22-.037,50.441,0c.751,0,.935-.17.932-.927-.03-8.95-.014-17.9-.027-26.85,0-.893.4-2.158-.173-2.583-.605-.447-1.792-.106-2.725-.11a2.936,2.936,0,0,0-1.989.393,21.037,21.037,0,0,1-5.592,2.019c-3.665.771-7.188.729-10.428-1.521a5.852,5.852,0,0,0-3.363-.918c-1.6-.008-3.206.032-4.807-.021a1.358,1.358,0,0,0-1.417.783c-1.872,3.238-3.8,6.442-5.711,9.658a3.322,3.322,0,0,1-.845,1.046q-2.729,2.024-5.437,4.077a1.48,1.48,0,0,1-1.84.183,1.513,1.513,0,0,1-.6-1.754c.24-1.121.5-2.24.666-3.373a14.975,14.975,0,0,1,2.659-7.017c.131-.177.324-.369.255-.644a3.771,3.771,0,0,1-3.2-5.533q5.1-8.967,10.25-17.9a5.377,5.377,0,0,1,3.754-2.6,18.253,18.253,0,0,1,3.886-.115,1.463,1.463,0,0,0,1.482-.827c3.022-5.151,6.085-10.279,9.138-15.411.824-1.386,1.458-1.536,2.778-.664q1.737,1.148,3.467,2.307c1.26.845,1.388,1.4.62,2.7-2.355,3.969-4.7,7.943-7.081,11.9-.348.578-.337.8.341,1.066,3.678,1.429,7.341,2.9,11,4.383A3.739,3.739,0,0,0-919.6,1606.593Zm-60.972,4.183q0-4.4,0-8.8c0-1.33.018-2.661-.008-3.99a1.434,1.434,0,0,0-1.456-1.52,1.455,1.455,0,0,0-1.436,1.543c-.011.241,0,.484,0,.726q0,11.61,0,23.219c0,2.1,0,2.063-2.092,2.106-.7.014-.83-.188-.828-.848.027-6.288.016-12.577.015-18.866a4.369,4.369,0,0,0-.022-.814,1.373,1.373,0,0,0-1.432-1.249,1.371,1.371,0,0,0-1.428,1.251,4.493,4.493,0,0,0-.02.815q0,8.934,0,17.868c0,1.824,0,1.766-1.811,1.848-.914.041-1.129-.206-1.118-1.116.055-4.383.02-8.768.029-13.152a1.537,1.537,0,0,0-.925-1.607,1.354,1.354,0,0,0-1.512.279,1.71,1.71,0,0,0-.475,1.408q.01,9.115.007,18.231a11.688,11.688,0,0,0,1.181,5.163,16.057,16.057,0,0,1,1.673,6.159c.027.48.18.6.635.587,1.209-.029,2.419-.009,3.628-.009q6.259,0,12.518,0c.375,0,.774.118.855-.5a11.415,11.415,0,0,1,3.3-6.5,7.837,7.837,0,0,0,2.2-4.476,64.926,64.926,0,0,0,.13-7.245,1.435,1.435,0,0,0-1.47-1.6,1.468,1.468,0,0,0-1.42,1.65c-.014,1.209,0,2.419,0,3.628,0,1.976,0,1.939-1.932,1.994-.761.021-1-.127-1-.959.041-7.2.023-14.391.023-21.587a7.175,7.175,0,0,0-.013-.815,1.443,1.443,0,0,0-1.461-1.329,1.443,1.443,0,0,0-1.419,1.373c-.025.27-.01.544-.01.816q0,8.707,0,17.415c0,2.2,0,2.17-2.195,2.184-.631,0-.723-.213-.72-.768C-980.56,1619.121-980.57,1614.948-980.57,1610.776Zm39.992,2.946a9.191,9.191,0,0,0,2.543-.4c.655-.131,1.314-.887,1.867-.5.5.347.626,1.2.982,1.8.291.485.107.674-.33.859a15.581,15.581,0,0,1-6.067,1.3c-2.479.011-4.958,0-7.437.007a2.222,2.222,0,0,0-2.508,2.144c-.02,1.326.981,2.2,2.537,2.207,2.479.006,4.958.028,7.437-.006a10.6,10.6,0,0,1,6.09,1.715,6.239,6.239,0,0,0,2.493,1.025,17.038,17.038,0,0,0,10.135-2.006c.358-.175.339-.445.339-.749,0-3.839-.007-7.678.007-11.517a.659.659,0,0,0-.464-.74q-5.716-2.26-11.418-4.555c-.311-.125-.539-.154-.747.2C-936.906,1607.542-938.709,1610.57-940.577,1613.722Zm-42.987,40.784c3.629,0,7.259-.014,10.888.014.627.005.819-.151.813-.8-.033-3.326-.04-6.653,0-9.979.009-.726-.246-.824-.882-.823q-10.751.022-21.5-.021c-.669,0-.868.153-.859.844q.066,4.989.021,9.979c-.005.646.185.8.812.8C-990.7,1654.491-987.133,1654.506-983.564,1654.506Zm72.66-39.1c0-1.724-.013-3.448.009-5.171.006-.476-.079-.7-.633-.7q-3.719.031-7.439-.02c-.554-.008-.638.215-.635.693q.034,5.125.018,10.251c0,.507.136.676.659.671,2.449-.025,4.9-.031,7.349,0,.6.008.691-.226.682-.742C-910.921,1618.729-910.9,1617.065-910.9,1615.4Zm-35.661-1.543a12.143,12.143,0,0,1,1.515.012,1.358,1.358,0,0,0,1.484-.837c2.267-3.88,4.577-7.735,6.87-11.6,2.493-4.2,4.977-8.409,7.487-12.6.283-.472.34-.776-.217-1.027a2.013,2.013,0,0,1-.527-.35c-.545-.5-.854-.435-1.258.25q-7.49,12.705-15.037,25.376C-946.378,1613.3-946.606,1613.5-946.565,1613.859Zm2.449-10.134c-.446,0-.714.026-.976,0a3.719,3.719,0,0,0-4.011,2.265c-1.876,3.478-3.9,6.877-5.859,10.308-1.2,2.1-2.408,4.184-3.591,6.288-.475.844-.13,1.346.819,1.47a1.908,1.908,0,0,0,2.324-1.267,9.951,9.951,0,0,1,.961-1.638,1.286,1.286,0,0,0,.176-1.024,4.96,4.96,0,0,1,3.662-6.06.994.994,0,0,0,.632-.45C-948.061,1610.371-946.138,1607.133-944.116,1603.725Zm-13.769,30.98a6.307,6.307,0,0,0,2.624-2.015q2.22-3.728,4.434-7.458c.654-1.1.655-1.1-.481-1.566a1.57,1.57,0,0,1-.406-.193c-.443-.362-.652-.121-.881.272-.984,1.693-1.966,3.389-2.994,5.054C-956.714,1630.617-957.873,1632.411-957.885,1634.7Z" transform="translate(998.042 -1567.429)" fill="#ff6b00"/>
      <path id="Path_181174" data-name="Path 181174" d="M-857.849,1609.278c6.5,0,13,.011,19.5-.017.671,0,.855.145.842.832-.042,2.087-.009,2.088-2.108,2.088q-18.825,0-37.649.019c-.748,0-.956-.161-.934-.925.059-2,.018-2,2.019-2Z" transform="translate(907.258 -1599.117)" fill="#ff6b00"/>
      <path id="Path_181175" data-name="Path 181175" d="M-884.775,1636.12c-5.5,0-11.007-.013-16.51.017-.665,0-.859-.136-.845-.829.043-2.09.009-2.091,2.1-2.091q15.921,0,31.842-.019c.742,0,.96.153.937.922-.06,2-.018,2-2.016,2Z" transform="translate(925.39 -1617.248)" fill="#ff6b00"/>
      <path id="Path_181176" data-name="Path 181176" d="M-884.779,1660.061c-5.5,0-11.007-.014-16.51.017-.679,0-.85-.158-.837-.837.041-2.084.008-2.084,2.111-2.084q15.921,0,31.842-.019c.755,0,.951.174.929.929-.057,1.992-.017,1.994-2.022,1.994Z" transform="translate(925.387 -1635.383)" fill="#ff6b00"/>
      <path id="Path_181177" data-name="Path 181177" d="M-805.242,1854.694c4.082,0,8.164.017,12.246-.017.672-.006.855.146.841.833-.042,2.088-.009,2.089-2.107,2.089-7.711,0-15.421-.012-23.132.019-.748,0-.956-.162-.933-.925.058-2,.017-2,2.018-2Z" transform="translate(861.911 -1785.017)" fill="#ff6b00"/>
      <path id="Path_181178" data-name="Path 181178" d="M-692.833,1609.352v2.865c-1.752.006-3.5,0-5.255.029-.435.007-.542-.123-.559-.555-.091-2.359-.105-2.36,2.281-2.358C-695.189,1609.335-694.011,1609.345-692.833,1609.352Z" transform="translate(771.274 -1599.171)" fill="#ff6b00"/>
      <path id="Path_181179" data-name="Path 181179" d="M-692.833,1854.77v2.866c-1.752.006-3.5,0-5.255.028-.436.007-.542-.123-.559-.555-.091-2.359-.1-2.36,2.281-2.357C-695.189,1854.753-694.011,1854.763-692.833,1854.77Z" transform="translate(771.274 -1785.073)" fill="#ff6b00"/>
    </g>
  </g>
</svg>
