<svg xmlns="http://www.w3.org/2000/svg" xmlns:xlink="http://www.w3.org/1999/xlink" width="90.95" height="90" viewBox="0 0 90.95 90">
  <defs>
    <clipPath id="clip-path">
      <rect id="Rectangle_36805" data-name="Rectangle 36805" width="90.95" height="90" fill="#ff6b00"/>
    </clipPath>
  </defs>
  <g id="Group_127998" data-name="Group 127998" transform="translate(-227 -9456)">
    <g id="Group_126840" data-name="Group 126840" transform="translate(227 9456)">
      <g id="Group_120468" data-name="Group 120468" clip-path="url(#clip-path)">
        <path id="Path_181518" data-name="Path 181518" d="M2.96,53.672H.057c0-2.908-.044-5.773.021-8.635a16.013,16.013,0,0,1,.456-3.671c1.184-4.517,4.361-7.1,8.628-8.5,1.252-.411,2.566-.637,3.882-.954A.355.355,0,0,0,13.1,31.8,2.153,2.153,0,0,0,11.5,28.973a6.626,6.626,0,0,1-3.824-3.912,1.364,1.364,0,0,0-.728-.663,5.471,5.471,0,0,1-3.989-5.614c-.012-2.509.033-5.019-.011-7.527A9.565,9.565,0,0,1,7.6,2.757,16.124,16.124,0,0,1,14.729.3a26.963,26.963,0,0,1,12.534.993C30.8,2.545,33.477,4.752,34.571,8.5a7.747,7.747,0,0,1,.3,2.049c.034,2.72.022,5.441.012,8.162A5.467,5.467,0,0,1,30.875,24.4a1.248,1.248,0,0,0-.689.591,7.406,7.406,0,0,1-4.512,4.315,1.23,1.23,0,0,0-.953,1.515,10.9,10.9,0,0,1,.007,1.13c.946.187,1.869.318,2.763.555,4.3,1.138,7.788,3.322,9.432,7.679a12.142,12.142,0,0,1,.8,3.786c.112,3.2.037,6.4.037,9.676H34.886c0-.309,0-.629,0-.95,0-2.721.055-5.443-.023-8.162a8.825,8.825,0,0,0-5.3-8.206,15.073,15.073,0,0,0-5.84-1.45,16.825,16.825,0,0,1-.274,2.364,4.754,4.754,0,0,1-.883,1.946,2.111,2.111,0,0,0-.45,1.976c.415,2.625.756,5.261,1.15,7.89a1.4,1.4,0,0,1-.49,1.435c-.577.485-1.095,1.039-1.671,1.6.138.089.2.165.271.169,1.593.092,1.595.09,1.987,1.636.275,1.082.571,2.16.808,3.251.143.656.426.7.946.383,1.413-.862,2.84-1.7,4.188-2.51l5.748,5.729c-.777,1.3-1.574,2.68-2.424,4.028-.409.65-.426.978.449,1.155,1.359.275,2.688.691,4.042.992.508.113.689.311.682.841-.028,2.237-.035,4.474,0,6.711.01.592-.217.768-.744.886-1.354.3-2.686.7-4.041.995-.725.156-.838.415-.452,1.035.86,1.381,1.681,2.786,2.477,4.113l-5.758,5.74C28,86.471,26.6,85.655,25.223,84.8c-.653-.408-.925-.3-1.089.474-.293,1.387-.661,2.759-1.049,4.123-.068.239-.386.577-.592.58-2.506.04-5.013.026-7.591.026-.408-1.6-.848-3.168-1.193-4.754-.179-.824-.492-.811-1.105-.428-1.354.847-2.735,1.652-4.029,2.428l-5.755-5.76c.742-1.24,1.561-2.6,2.375-3.97.522-.877.506-.917-.486-1.172-1.517-.39-3.034-.775-4.651-1.188,0-1.819-.011-3.622,0-5.425.008-.866-.235-1.956.192-2.531.4-.533,1.532-.524,2.345-.738.788-.207,1.577-.412,2.374-.584.594-.128.665-.4.364-.891-.865-1.417-1.709-2.846-2.516-4.194l5.765-5.755c1.215.726,2.579,1.541,3.943,2.355.9.536.928.526,1.181-.457.4-1.544.789-3.09,1.2-4.691h2.032c-.731-.694-1.244-1.235-1.815-1.707a1.457,1.457,0,0,1-.542-1.5c.418-2.716.791-5.439,1.2-8.157a1.642,1.642,0,0,0-.417-1.55,4.842,4.842,0,0,1-1.151-3.171c-.022-.388,0-.778,0-1.27a14.968,14.968,0,0,0-5.37,1.194A9,9,0,0,0,2.965,44.92c-.025,2.9,0,5.793,0,8.753M6.489,81l2.451,2.639a23.14,23.14,0,0,0,2.336-1.426c1.138-.885,2.245-1.167,3.488-.257.164.12.432.1.582.232.29.246.669.509.767.838.394,1.324.7,2.676,1.03,4.018H20.7a12.227,12.227,0,0,0,.489-1.977,3.515,3.515,0,0,1,3.037-3.6,1.868,1.868,0,0,1,1.138.064c1.218.659,2.39,1.4,3.563,2.1l2.506-2.509A15.475,15.475,0,0,0,30.322,79.3c-1.132-1.414-1.5-2.809-.443-4.474a1.726,1.726,0,0,1,1.131-.962c1.286-.292,2.561-.631,3.843-.952V69.366a16.991,16.991,0,0,0-2.2-.556c-1.682-.2-2.963-.817-3.27-2.671-.014-.085-.112-.163-.112-.244a2.876,2.876,0,0,1,.068-1.221c.65-1.217,1.4-2.383,2.064-3.5L28.92,58.635a16.042,16.042,0,0,0-1.853,1.117c-1.387,1.1-2.8,1.523-4.372.415a.2.2,0,0,0-.082-.038c-.59-.087-.831-.456-.955-1.02-.291-1.314-.642-2.614-.964-3.9H17.147a23.172,23.172,0,0,0-.582,2.4c-.212,1.543-.782,2.727-2.491,3.006a.836.836,0,0,0-.326.153,1.118,1.118,0,0,1-1.4-.082c-1.131-.729-2.3-1.4-3.3-1.995l-2.631,2.44a22.426,22.426,0,0,0,1.322,2.185c.912,1.193,1.346,2.372.343,3.721a1.141,1.141,0,0,0-.186.507c-.077.541-.443.722-.917.835-1.336.32-2.667.662-3.972.989v3.54a25.611,25.611,0,0,0,2.585.621c1.429.2,2.492.737,2.747,2.3a1.357,1.357,0,0,0,.227.491,1.089,1.089,0,0,1-.044,1.325C7.783,78.784,7.11,79.962,6.489,81M27.63,13.9c-2.407.214-4.743.482-7.087.612a9.384,9.384,0,0,1-5.427-1.48c-1.685-1.018-1.73-1.021-3.306.226-.283.224-.538.485-.809.727a2.28,2.28,0,0,0-.808,1.905c.06,2.265.047,4.534.01,6.8a3.125,3.125,0,0,0,1.2,2.713,7.936,7.936,0,0,0,2.993,1.577,27.445,27.445,0,0,0,6.19.492,13.908,13.908,0,0,0,4.6-1.173,3.778,3.778,0,0,0,2.456-4.04c-.048-.6-.007-1.208-.007-1.813Zm4.354-.175c0-1.01-.029-1.945.006-2.879A5.919,5.919,0,0,0,30.4,6.64a9.543,9.543,0,0,0-4.663-2.816,25.4,25.4,0,0,0-10.855-.608,15.1,15.1,0,0,0-3.076.721C6.254,5.966,5.431,8.92,5.956,13.742a7.271,7.271,0,0,0,2.077-.8c1.205-.972,2.272-2.116,3.435-3.227l-1.1-1.791,2.542-1.263c.385.532.716,1.031,1.089,1.5a8.252,8.252,0,0,0,7.187,3.473c3-.164,5.958-.483,8.652-1.978a5.907,5.907,0,0,1,.686-.262c0,.9-.012,1.7,0,2.507.03,1.732-.257,1.249,1.452,1.829m-12.9,26.933-.318.007c-.061.319-.136.636-.182.958-.27,1.911-.427,3.846-.836,5.727a2.32,2.32,0,0,0,1.22,2.774c.662-.642,1.483-1.1,1.209-2.3-.289-1.259-.386-2.563-.577-3.845-.165-1.109-.344-2.216-.516-3.324M17.2,34.879c-.153,1.048-.263,2.151.646,2.686a2.493,2.493,0,0,0,2.191-.04c.867-.563.758-1.654.6-2.646Zm4.576-4.463h-5.7V31.91h5.7ZM7.271,16.352a2.717,2.717,0,0,0-1.4,2.756,2.5,2.5,0,0,0,1.4,2.3Zm23.311.022v5.019a2.542,2.542,0,0,0,1.391-2.514,2.559,2.559,0,0,0-1.391-2.5" transform="translate(0 0)" fill="#ff6b00"/>
        <path id="Path_181519" data-name="Path 181519" d="M189.9,28.413V42.907H178.385v7.238h11.53v5.8h8.661V25.592l-3.408,2.534-1.741-2.308,6.677-5.009,6.665,5-1.731,2.316L201.6,25.56V58.851H189.968V64.67H178.4V76.255h12.965v-7.28l16.9,13.143-16.84,13.1V87.954h-31.9V85.081H194.3v4.229l9.242-7.186-9.182-7.15V79.15H159.522V76.339h15.84V64.717h-11.5V50.223h11.513V42.985H163.882V28.46h11.475V22.68H159.519l2.549,3.42-2.3,1.743-5.013-6.67,5.006-6.679,2.312,1.734-2.574,3.46h18.8v8.725ZM187,31.39h-20.2v8.6H187ZM166.785,61.733h20.2v-8.6h-20.2Z" transform="translate(-117.322 -10.988)" fill="#ff6b00"/>
        <rect id="Rectangle_36803" data-name="Rectangle 36803" width="2.791" height="11.51" transform="translate(7.361 42.15)" fill="#ff6b00"/>
        <rect id="Rectangle_36804" data-name="Rectangle 36804" width="2.795" height="11.495" transform="translate(27.692 42.15)" fill="#ff6b00"/>
        <path id="Path_181520" data-name="Path 181520" d="M50.936,275.511a8.7,8.7,0,1,1,8.72-8.69,8.733,8.733,0,0,1-8.72,8.69m5.817-8.662a5.8,5.8,0,1,0-5.869,5.759,5.816,5.816,0,0,0,5.869-5.759" transform="translate(-32.029 -195.674)" fill="#ff6b00"/>
        <path id="Path_181521" data-name="Path 181521" d="M57.116,93.5l1.533-2.316a6.778,6.778,0,0,0,7.127-.014l1.532,2.284c-2.146,2.138-7.442,2.165-10.192.045" transform="translate(-43.301 -69.115)" fill="#ff6b00"/>
        <path id="Path_181522" data-name="Path 181522" d="M55.662,69a1.445,1.445,0,1,1,1.488-1.4A1.459,1.459,0,0,1,55.662,69" transform="translate(-41.138 -50.124)" fill="#ff6b00"/>
        <path id="Path_181523" data-name="Path 181523" d="M91.75,69a1.445,1.445,0,1,1,1.4-1.488A1.459,1.459,0,0,1,91.75,69" transform="translate(-68.43 -50.124)" fill="#ff6b00"/>
        <path id="Path_181524" data-name="Path 181524" d="M217.675,96.117a1.445,1.445,0,1,1-1.411,1.475,1.459,1.459,0,0,1,1.411-1.475" transform="translate(-163.955 -72.868)" fill="#ff6b00"/>
        <path id="Path_181525" data-name="Path 181525" d="M243.152,97.583a1.444,1.444,0,1,1-1.423-1.465,1.462,1.462,0,0,1,1.423,1.465" transform="translate(-182.152 -72.87)" fill="#ff6b00"/>
        <path id="Path_181526" data-name="Path 181526" d="M265.7,99.006a1.444,1.444,0,1,1,1.449-1.44,1.457,1.457,0,0,1-1.449,1.44" transform="translate(-200.346 -72.87)" fill="#ff6b00"/>
        <path id="Path_181527" data-name="Path 181527" d="M219.151,187.592a1.444,1.444,0,1,1-1.414-1.474,1.463,1.463,0,0,1,1.414,1.474" transform="translate(-163.955 -141.101)" fill="#ff6b00"/>
        <path id="Path_181528" data-name="Path 181528" d="M241.75,189a1.445,1.445,0,1,1,1.4-1.488,1.459,1.459,0,0,1-1.4,1.488" transform="translate(-182.149 -141.099)" fill="#ff6b00"/>
        <path id="Path_181529" data-name="Path 181529" d="M267.152,187.554a1.444,1.444,0,1,1-1.452-1.435,1.461,1.461,0,0,1,1.452,1.435" transform="translate(-200.346 -141.102)" fill="#ff6b00"/>
      </g>
    </g>
  </g>
</svg>
