<svg xmlns="http://www.w3.org/2000/svg" xmlns:xlink="http://www.w3.org/1999/xlink" width="86" height="86" viewBox="0 0 86 86">
  <defs>
    <clipPath id="clip-path">
      <rect id="Rectangle_36957" data-name="Rectangle 36957" width="50" height="50" fill="#fff"/>
    </clipPath>
  </defs>
  <g id="Group_127993" data-name="Group 127993" transform="translate(5358.41 9469)">
    <circle id="Ellipse_6344" data-name="Ellipse 6344" cx="43" cy="43" r="43" transform="translate(-5358.41 -9469)" fill="#ff6b00"/>
    <g id="Group_126189" data-name="Group 126189" transform="translate(-5340.41 -9451)">
      <g id="Group_120488" data-name="Group 120488" clip-path="url(#clip-path)">
        <path id="Path_181633" data-name="Path 181633" d="M10.449,0a.968.968,0,0,1,.513.964c-.017,2-.007,4-.007,6v.6c.193.01.363.027.533.027,1.106,0,2.212,0,3.318,0,.66,0,.907.254.909.92q.008,2.22,0,4.44c0,.688-.248.934-.945.935q-6.9,0-13.809.008A.959.959,0,0,1,0,13.379v-8.2a1.082,1.082,0,0,1,1.038-.484c.878.024,1.756.007,2.634.007H4.757c0-1.246.015-2.414-.008-3.582A1.294,1.294,0,0,1,5.176,0ZM6.257,12.4H9.464V1.49H6.257Zm-1.531-6.2H1.5V12.4H4.726Zm6.229,6.194h3.269v-3.3H10.986c-.012.137-.029.246-.03.356,0,.971,0,1.942,0,2.945" fill="#fff"/>
        <path id="Path_181634" data-name="Path 181634" d="M0,41.6a1.091,1.091,0,0,1,1.062-.434c.243.027.365-.045.417-.329a6.677,6.677,0,0,1,5.717-5.6,1.094,1.094,0,0,0,.162-.07c0-.189-.016-.411,0-.631a.734.734,0,0,1,.744-.745.687.687,0,0,1,.7.771c-.043.514.146.658.633.771a6.564,6.564,0,0,1,5.244,5.328c.035.156.069.312.1.47.578.126,1.477-.219,1.48.758s-.884.662-1.475.775c-.093.391-.154.793-.284,1.172a6.673,6.673,0,0,1-5.223,4.656c-.366.077-.513.183-.465.549A.872.872,0,0,1,8.3,50H7.813c-.539-.335-.441-.912-.485-1.382-3.207-.678-5.22-2.489-5.877-5.707a.5.5,0,0,0-.394-.263A1.213,1.213,0,0,1,0,42.187Zm12.578,2.954c1.329-1.723.921-4.76-.95-6.528a5.233,5.233,0,0,0-8.047,6.512l1.663-1.8A3.069,3.069,0,0,1,9.793,39.02a3.075,3.075,0,0,1,1.143,3.741l1.642,1.794m-1.113,1.368A3.674,3.674,0,0,0,9.6,44.1c-.775-.354-.875-.795-.334-1.428a1.628,1.628,0,0,0-.082-2.281,1.578,1.578,0,0,0-2.167-.009A1.6,1.6,0,0,0,6.9,42.656c.555.662.459,1.089-.34,1.456a3.968,3.968,0,0,0-1.609,1.375c-.208.3-.235.514.121.7a10.438,10.438,0,0,0,1.207.622,5.192,5.192,0,0,0,5.185-.882" fill="#fff"/>
        <path id="Path_181635" data-name="Path 181635" d="M50,9.277c-.418.261-.821.548-1.256.775a1.069,1.069,0,0,0-.53,1.361,1.606,1.606,0,0,1-.442,2.281c-1.229,1.108-.955,1.193-2.489.565a1.151,1.151,0,0,0-1.219.518c-.635,1.618-.548,1.307-2.1,1.354h-.048c-1.493,0-1.323.131-1.924-1.251a.9.9,0,0,0-1.344-.559c-1.335.535-1.179.642-2.254-.439-1.239-1.247-1.2-.937-.567-2.563a.911.911,0,0,0-.465-1.123c-1.577-.679-1.442-.37-1.461-2.284,0-.049,0-.1,0-.147-.009-1.133-.009-1.133,1.033-1.585a1.136,1.136,0,0,0,.679-1.687,1.563,1.563,0,0,1-.209-.54,1.594,1.594,0,0,1,.182-.884,15.965,15.965,0,0,1,1.284-1.333.738.738,0,0,1,.887-.192c.223.1.453.179.679.268a1.118,1.118,0,0,0,1.49-.624c.2-.413.462-.793.7-1.188h2.539c.269.469.553.93.8,1.409a.922.922,0,0,0,1.167.46c1.59-.653,1.277-.591,2.54.519a1.614,1.614,0,0,1,.485,2.268c-.338.629-.093,1.088.564,1.37.468.2,1,.3,1.278.81Zm-3.04,2.986c-.095-.234-.2-.471-.285-.717-.064-.2-.185-.448-.117-.6.385-.863.4-2.011,1.645-2.248.343-.065.355-.318.327-.593s.116-.6-.312-.706a1.918,1.918,0,0,1-1.527-1.514c-.026-.107-.128-.2-.142-.307a2.367,2.367,0,0,1-.037-.748,7.458,7.458,0,0,1,.3-.821.5.5,0,0,0,0-.358.839.839,0,0,0-1.185-.411,2.159,2.159,0,0,1-1.149.208c-.882-.264-1.771-.611-1.963-1.708a.286.286,0,0,0-.02-.044c-.136-.393-.47-.211-.711-.21-.168,0-.451.12-.483.239A1.893,1.893,0,0,1,39.747,3.2a.805.805,0,0,0-.265.121,1.025,1.025,0,0,1-1.108.042c-.158-.082-.335-.124-.495-.2-.367-.182-.48.159-.67.324-.165.143-.377.283-.2.564a2.109,2.109,0,0,1,.027,2.063,1.838,1.838,0,0,1-1.282,1.308c-.376.1-.4.347-.392.664s.019.578.409.713c.373.128.864.288,1.025.585.434.8,1.019,1.642.34,2.612-.262.373.024.569.243.816a.563.563,0,0,0,.759.152c.363-.159.822-.412,1.137-.309.867.283,1.86.509,2.067,1.658.072.4.379.362.68.361s.55,0,.672-.384c.111-.345.266-.828.533-.942.867-.368,1.722-1.083,2.766-.389.255.17.978-.374.966-.692" fill="#fff"/>
        <path id="Path_181636" data-name="Path 181636" d="M40.234,50a2.1,2.1,0,0,1-1.4-1.654c-.009-.065-.042-.139-.021-.192.252-.647-.11-.987-.568-1.375a3.066,3.066,0,0,1-.946-2.079,2.29,2.29,0,0,0-.453-1.129,6.43,6.43,0,0,1,.253-8.435A6.326,6.326,0,0,1,45.6,34.5c.519.412.634.814.34,1.191s-.721.359-1.24-.037a4.843,4.843,0,0,0-7.732,2.76,4.648,4.648,0,0,0,1.02,4.2,3.1,3.1,0,0,1,.794,1.989c.033,1.128.9,1.774,2.162,1.623V41.911c-.323,0-.628.01-.931,0a.723.723,0,0,1-.755-.673.71.71,0,0,1,.709-.774q1.731-.038,3.464,0a.7.7,0,0,1,.717.76.707.707,0,0,1-.782.689c-.288.009-.576,0-.891,0v4.283a1.661,1.661,0,0,0,2.149-1.553,3.113,3.113,0,0,1,.78-2,4.817,4.817,0,0,0,1.131-3.812.751.751,0,0,1,.617-.938.726.726,0,0,1,.817.711,6.161,6.161,0,0,1-1.331,4.84,2.348,2.348,0,0,0-.563,1.406,3.039,3.039,0,0,1-1.335,2.332.527.527,0,0,0-.2.406,1.906,1.906,0,0,1-1.313,2.344c-.027.011-.045.043-.068.065Zm1.491-1.466a4.876,4.876,0,0,0,.968-.018c.167-.035.3-.258.442-.4-.139-.127-.271-.355-.417-.364a15.92,15.92,0,0,0-1.99,0c-.152.01-.288.253-.431.389.152.13.289.338.459.371a5.046,5.046,0,0,0,.969.017" fill="#fff"/>
        <path id="Path_181639" data-name="Path 181639" d="M18.853,34.127a2.817,2.817,0,0,0,5.4-.963c.014-.195.01-.39.01-.586q0-7.714,0-15.429a2.791,2.791,0,0,0-2.95-2.98,2.66,2.66,0,0,0-2.449,1.655,2.742,2.742,0,0,1,.487.559c.239.516-.136.961-.806,1A3.6,3.6,0,0,0,15.2,20.057a5.569,5.569,0,0,0-.139.865c-.059.539-.335.828-.784.8a.751.751,0,0,1-.676-.9,5.1,5.1,0,0,1,3.269-4.582.9.9,0,0,0,.441-.481,4.127,4.127,0,0,1,3.219-2.945,4.1,4.1,0,0,1,4.207,1.429c.075.085.145.174.255.307.121-.141.229-.273.343-.4a4.106,4.106,0,0,1,4.151-1.335,4.011,4.011,0,0,1,3.15,2.878.845.845,0,0,0,.544.6,4.9,4.9,0,0,1,3.207,4.65q.1,4.05,0,8.1a5,5,0,0,1-3.269,4.723.772.772,0,0,0-.409.393,4.328,4.328,0,0,1-7.581,1.45c-.03-.037-.065-.071-.124-.136-.1.109-.195.209-.286.314a4.114,4.114,0,0,1-4.218,1.4,4.028,4.028,0,0,1-3.164-2.928.735.735,0,0,0-.487-.525A4.967,4.967,0,0,1,13.607,29.1c-.063-1.347-.02-2.7-.012-4.052,0-.573.288-.882.76-.869.456.013.7.3.7.869.006,1.253,0,2.507,0,3.76a3.627,3.627,0,0,0,3.564,3.8.754.754,0,0,1,.767.555c.1.356-.041.617-.535.956m12.3-18.237a2.7,2.7,0,0,0-1.818-1.628,2.811,2.811,0,0,0-3.6,2.812q-.022,7.932,0,15.863a3.461,3.461,0,0,0,.152,1.007,2.79,2.79,0,0,0,2.733,1.892,2.6,2.6,0,0,0,2.489-1.74c-.466-.306-.612-.576-.5-.939.133-.435.469-.525.876-.546a3.587,3.587,0,0,0,3.439-3.568q.063-4.05,0-8.1a3.583,3.583,0,0,0-3.4-3.551c-.422-.022-.787-.1-.912-.561s.142-.732.542-.939" fill="#fff"/>
        <path id="Path_181640" data-name="Path 181640" d="M18.581,22.07c-.534.01-.87-.242-.9-.674-.032-.449.289-.748.848-.788a2.781,2.781,0,0,0,2.653-2.624c.048-.581.321-.9.761-.876.464.02.732.4.7.981a4.26,4.26,0,0,1-4.06,3.981" fill="#fff"/>
        <path id="Path_181641" data-name="Path 181641" d="M18.6,28.423a4.271,4.271,0,0,1,4.05,4.1.765.765,0,0,1-.718.869c-.414.009-.7-.3-.743-.793a2.78,2.78,0,0,0-2.671-2.711c-.543-.04-.842-.311-.832-.752.01-.458.351-.723.914-.71" fill="#fff"/>
        <path id="Path_181642" data-name="Path 181642" d="M20.515,25a3.009,3.009,0,0,1,.81-2.03.731.731,0,1,1,1.111.946,1.53,1.53,0,0,0,.018,2.191.686.686,0,0,1-.1,1.03.667.667,0,0,1-1-.07A3,3,0,0,1,20.515,25" fill="#fff"/>
        <path id="Path_181643" data-name="Path 181643" d="M4,24.73a.748.748,0,0,1-.744.742.752.752,0,0,1-.714-.725A.729.729,0,0,1,4,24.73" fill="#fff"/>
        <path id="Path_181644" data-name="Path 181644" d="M4.39,20.927a.733.733,0,0,1-.767.653.794.794,0,0,1-.684-.805.729.729,0,0,1,1.451.152" fill="#fff"/>
        <path id="Path_181645" data-name="Path 181645" d="M46.633,23.9a.763.763,0,0,1-.714-.722.732.732,0,0,1,.741-.731.7.7,0,0,1,.711.7.786.786,0,0,1-.738.753" fill="#fff"/>
        <path id="Path_181646" data-name="Path 181646" d="M33.4,4.619a.755.755,0,0,1-.768.715.729.729,0,0,1-.689-.734.729.729,0,0,1,1.457.019" fill="#fff"/>
        <path id="Path_181647" data-name="Path 181647" d="M18.352,45.486a.734.734,0,0,1-.754.72.7.7,0,0,1-.7-.711.734.734,0,0,1,.7-.729.742.742,0,0,1,.759.72" fill="#fff"/>
        <path id="Path_181648" data-name="Path 181648" d="M45.933,30.177a.738.738,0,0,1,.718.758.784.784,0,0,1-.747.694.726.726,0,0,1,.029-1.452" fill="#fff"/>
        <path id="Path_181649" data-name="Path 181649" d="M4.551,33.12a.729.729,0,0,1-.727-.694.759.759,0,0,1,.725-.757.725.725,0,0,1,.724.694.759.759,0,0,1-.722.757" fill="#fff"/>
        <path id="Path_181650" data-name="Path 181650" d="M4.753,16.389a.715.715,0,0,1,.714.713.733.733,0,0,1-.7.736.8.8,0,0,1-.749-.759.716.716,0,0,1,.735-.69" fill="#fff"/>
        <path id="Path_181651" data-name="Path 181651" d="M21.145,2.833a.734.734,0,0,1,.719.707.8.8,0,0,1-.747.75.729.729,0,0,1,.028-1.457" fill="#fff"/>
        <path id="Path_181652" data-name="Path 181652" d="M25.019,3.934a.69.69,0,0,1-.712-.745.69.69,0,0,1,.718-.692.718.718,0,0,1,.723.748.71.71,0,0,1-.729.689" fill="#fff"/>
        <path id="Path_181653" data-name="Path 181653" d="M24.56,46.741a.71.71,0,0,1,.787-.674.679.679,0,0,1,.649.752.688.688,0,0,1-.775.678.718.718,0,0,1-.661-.756" fill="#fff"/>
        <path id="Path_181654" data-name="Path 181654" d="M47.36,27.058a.782.782,0,0,1-.755.735.722.722,0,0,1-.7-.721.709.709,0,0,1,.744-.719.716.716,0,0,1,.711.7" fill="#fff"/>
        <path id="Path_181655" data-name="Path 181655" d="M4.3,28.622a.8.8,0,0,1-.759.734.744.744,0,0,1-.7-.732.722.722,0,0,1,.754-.713.71.71,0,0,1,.7.711" fill="#fff"/>
        <path id="Path_181656" data-name="Path 181656" d="M46.7,19.347a.686.686,0,0,1-.715.688.734.734,0,0,1-.73-.743.744.744,0,0,1,.731-.7.718.718,0,0,1,.714.753" fill="#fff"/>
        <path id="Path_181657" data-name="Path 181657" d="M29.887,46.364a.7.7,0,0,1-.677.731.758.758,0,0,1-.777-.7.741.741,0,0,1,.695-.732.712.712,0,0,1,.759.7" fill="#fff"/>
        <path id="Path_181658" data-name="Path 181658" d="M22.119,46.5a.745.745,0,0,1-.784.7.69.69,0,0,1-.658-.71.7.7,0,0,1,.746-.723.718.718,0,0,1,.7.732" fill="#fff"/>
        <path id="Path_181659" data-name="Path 181659" d="M29.628,3.569a.768.768,0,0,1-.758.725.728.728,0,1,1,.758-.725" fill="#fff"/>
        <path id="Path_181660" data-name="Path 181660" d="M32.936,44.562a.734.734,0,0,1,.694.777.692.692,0,0,1-.739.666.708.708,0,0,1-.7-.763.732.732,0,0,1,.742-.68" fill="#fff"/>
        <path id="Path_181661" data-name="Path 181661" d="M18.084,4.557a.754.754,0,0,1-.725.763.722.722,0,0,1-.708-.72.709.709,0,0,1,.7-.721.683.683,0,0,1,.731.678" fill="#fff"/>
        <path id="Path_181662" data-name="Path 181662" d="M38.471,7.975a3.44,3.44,0,1,1,3.484,3.454,3.442,3.442,0,0,1-3.484-3.454m3.457,1.989a1.952,1.952,0,0,0,1.957-1.951,2,2,0,0,0-1.992-2.037,1.994,1.994,0,0,0,.035,3.988" fill="#fff"/>
        <path id="Path_181663" data-name="Path 181663" d="M31.413,22.07a4.268,4.268,0,0,1-4.059-4.085.768.768,0,0,1,.708-.878c.415-.015.71.293.753.784a2.765,2.765,0,0,0,2.71,2.718c.521.044.826.35.792.792s-.359.678-.9.669" fill="#fff"/>
        <path id="Path_181664" data-name="Path 181664" d="M27.355,32.48a4.27,4.27,0,0,1,3.99-4.056c.6-.025.956.229.973.7.016.454-.289.721-.872.763a2.785,2.785,0,0,0-2.628,2.651c-.045.564-.342.886-.786.849s-.69-.381-.677-.906" fill="#fff"/>
        <path id="Path_181665" data-name="Path 181665" d="M29.444,24.986A2.943,2.943,0,0,1,28.671,27a.733.733,0,1,1-1.124-.933,1.548,1.548,0,0,0-.014-2.158.733.733,0,0,1,.041-1.045.719.719,0,0,1,1.076.108,2.919,2.919,0,0,1,.794,2.012" fill="#fff"/>
      </g>
    </g>
  </g>
</svg>
