<svg xmlns="http://www.w3.org/2000/svg" width="107.434" height="90" viewBox="0 0 107.434 90">
  <g id="Group_126195" data-name="Group 126195" transform="translate(541.382 -1679.294)">
    <path id="Path_180249" data-name="Path 180249" d="M-446.191,1716.727a1.6,1.6,0,0,1,1.8-1.492c1.853.021,3.705-.014,5.558.011a4.84,4.84,0,0,1,4.848,4.772c.048,2.831.044,5.663,0,8.495a4.833,4.833,0,0,1-4.907,4.82q-9.28.032-18.561,0a4.832,4.832,0,0,1-4.91-4.6c-.027-.348-.027-.7-.028-1.048-.006-1.836,0-1.836-1.893-1.836-2.052,0-2.052,0-2.052,2.073q0,9.754,0,19.507c0,1.955-.45,2.4-2.418,2.4-1.258,0-2.518.042-3.774-.016-.708-.032-.99.128-.939.9a9.646,9.646,0,0,1-.086,2.507,4.779,4.779,0,0,1-4.666,4.039q-9.437.062-18.875,0a4.841,4.841,0,0,1-4.8-4.62c-.009-.1,0-.21-.014-.314-.087-.822.359-2.16-.179-2.365a9.389,9.389,0,0,0-3.411-.129c-.553.014-.363.507-.364.813-.012,2.971,0,5.943-.008,8.914,0,1.78-.453,2.227-2.232,2.231-1.294,0-2.591.062-3.879-.021-.876-.056-1.069.281-1,1.06a11.552,11.552,0,0,1-.025,1.885,4.725,4.725,0,0,1-4.544,4.5c-3.212.112-6.43.053-9.646.059-2.866.006-5.733-.03-8.6.01-2.59.037-4.441-.992-5.38-3.476-.03-.08-.139-.131-.211-.2v-10.91c.223-.021.249-.219.313-.368a4.956,4.956,0,0,1,5.012-3.211c1.639.018,3.278,0,4.918.005,1.3.006,1.709.344,2,1.63a1.75,1.75,0,0,1-2.021,1.527c-1.676-.034-3.353-.021-5.029,0a1.823,1.823,0,0,0-2.045,2.08q-.018,3.825,0,7.65c.006,1.417.631,2.078,2.027,2.079q9.064.012,18.127-.016a1.709,1.709,0,0,0,1.929-1.944q.038-3.929,0-7.86a1.769,1.769,0,0,0-2.021-1.98c-1.641-.018-3.285-.052-4.924,0a1.876,1.876,0,0,1-2.156-1.526c.413-1.389.725-1.633,2.137-1.637,1.713,0,3.426-.018,5.139,0a4.908,4.908,0,0,1,5,4.754c.063.9-.4,2.153.212,2.6s1.813.087,2.744.179c.858.086,1.028-.245,1.024-1.045-.033-5.629-.009-11.258-.026-16.887,0-.932.405-2.158-.174-2.717s-1.8-.073-2.725-.178c-.912-.1-1.149.27-1.06,1.115a9.9,9.9,0,0,1-.03,1.885,4.772,4.772,0,0,1-4.717,4.446q-9.439.056-18.879,0a4.714,4.714,0,0,1-4.324-2.819c-.138-.263-.109-.627-.452-.771v-10.91c.35-.136.322-.5.46-.765a4.728,4.728,0,0,1,4.334-2.807q9.439-.048,18.879,0a4.781,4.781,0,0,1,4.687,4.365,12.687,12.687,0,0,1,.041,2.2c-.062.77.245.941.954.915,1.362-.051,2.726-.023,4.09-.012,1.589.013,2.067.487,2.072,2.063.008,2.727,0,5.455,0,8.182,0,1.751,0,1.751,1.76,1.751,2.189,0,2.189,0,2.2-2.138,0-.209,0-.42.011-.629a4.884,4.884,0,0,1,4.81-4.729q9.439-.053,18.878,0a4.833,4.833,0,0,1,4.617,3.86,12.725,12.725,0,0,1,.131,2.925c-.005.533.133.758.7.721a11.267,11.267,0,0,1,2.1.006c.991.122,1.193-.269,1.191-1.206-.03-13.566-.017-27.132-.029-40.7,0-.932.406-2.145-.181-2.723s-1.8-.094-2.725-.19c-.783-.081-1.174.12-1.055,1a9.211,9.211,0,0,1,.005,1.676,4.911,4.911,0,0,1-4.93,4.834q-9.282.045-18.564,0a4.808,4.808,0,0,1-4.857-4.194,15.074,15.074,0,0,1-.088-2.613c.013-.553-.17-.736-.719-.707a15.1,15.1,0,0,1-2.305-.006c-.828-.083-.977.253-.967,1.007.042,3.041.027,6.084.012,9.125-.007,1.321-.529,1.836-1.839,1.857-1.084.018-2.167,0-3.251,0-2,0-2,0-2.006,2.033-.019,3.5-1.967,5.469-5.439,5.474q-8.758.012-17.516,0a7.175,7.175,0,0,1-1.767-.153c-1.964-.489-2.955-1.935-3.695-3.648v-10.7c.223-.03.229-.233.292-.382a4.923,4.923,0,0,1,4.964-3.242q2.555.023,5.109,0a1.644,1.644,0,0,1,1.87,1.532c-.27,1.213-.714,1.617-1.914,1.633-1.71.022-3.421,0-5.132.01-1.4.011-2.031.651-2.037,2.064q-.018,3.823,0,7.646c.006,1.406.652,2.086,2.028,2.088q9.059.014,18.119-.01a1.728,1.728,0,0,0,1.938-1.949q.04-3.927,0-7.855c-.013-1.37-.637-1.96-2.006-1.973-1.641-.016-3.282,0-4.922-.016-1.373-.009-1.771-.315-2.164-1.629a1.769,1.769,0,0,1,2.011-1.547c1.781.043,3.565-.016,5.346.024a4.868,4.868,0,0,1,4.9,4.723c.066.889-.407,2.132.23,2.573s1.819.075,2.749.173c.882.093,1-.284,1-1.052-.03-5.556-.006-11.113-.025-16.67,0-1,.452-2.341-.187-2.915-.675-.606-2-.107-3.039-.186-.545-.041-.751.149-.726.706a18.924,18.924,0,0,1-.024,2.2,4.843,4.843,0,0,1-4.9,4.607q-9.278.033-18.556,0a4.8,4.8,0,0,1-4.493-2.9c-.118-.235-.1-.562-.43-.659v-10.91c.223-.036.221-.241.284-.391a4.916,4.916,0,0,1,4.883-3.266c2.342-.01,4.683,0,7.025,0q5.3,0,10.59,0c3.71.007,5.625,1.914,5.636,5.6.006,1.89.006,1.89,1.918,1.89,1.049,0,2.1-.006,3.145,0,1.511.011,2.029.51,2.035,2,.01,3.006.035,6.013-.018,9.017-.014.813.234,1.035,1,.97a15.486,15.486,0,0,1,2.3,0c.58.038.691-.2.686-.72a13.067,13.067,0,0,1,.115-2.821,4.719,4.719,0,0,1,4.448-3.9c6.43-.062,12.861-.073,19.291,0a4.809,4.809,0,0,1,4.587,4.822c.038.83-.264,1.988.165,2.41.565.555,1.714.142,2.611.176.768.03,1.538,0,2.306.009,1.484.026,2.028.56,2.032,2.046.01,4.089,0,8.179,0,12.269,0,2.936.021,5.872-.016,8.808-.008.685.18.921.872.87.97-.072,2.187.289,2.854-.175s.17-1.754.246-2.679a4.882,4.882,0,0,1,4.984-4.642c1.747-.016,3.5.036,5.242-.017a1.757,1.757,0,0,1,2.027,1.517c-.37,1.333-.753,1.631-2.139,1.636-1.641.006-3.283-.012-4.924.007-1.374.016-2.014.619-2.027,1.967q-.038,3.928,0,7.858a1.748,1.748,0,0,0,2.013,1.981q9.01.013,18.02-.013c1.394,0,2.039-.664,2.046-2.066q.02-3.825,0-7.649a1.8,1.8,0,0,0-2.046-2.065c-1.676-.021-3.352-.007-5.029-.021C-445.5,1718.368-445.948,1717.985-446.191,1716.727Zm-41.482-10.467v-.014q4.4,0,8.8,0c1.6,0,2.252-.622,2.261-2.193q.022-3.72,0-7.439c-.009-1.523-.646-2.151-2.182-2.155q-8.853-.021-17.705-.02c-1.606,0-2.242.623-2.251,2.2q-.021,3.72,0,7.439c.01,1.529.658,2.176,2.17,2.181C-493.611,1706.267-490.642,1706.26-487.674,1706.26Zm0,47.87v-.015c2.968,0,5.937.006,8.905,0,1.52,0,2.145-.631,2.154-2.176q.021-3.72,0-7.439c-.01-1.522-.661-2.16-2.184-2.163q-8.853-.015-17.705-.012c-1.6,0-2.24.624-2.249,2.207q-.021,3.72,0,7.439c.01,1.53.644,2.155,2.174,2.16C-493.606,1754.137-490.638,1754.13-487.67,1754.13Zm-39.446-71.651v-.021c-3,0-6.005-.013-9.008.006-1.469.009-2.1.657-2.107,2.116q-.016,3.771,0,7.542c.005,1.516.651,2.16,2.175,2.161q8.9,0,17.806-.013c1.469,0,2.088-.622,2.1-2.111q.024-3.771,0-7.542c-.009-1.558-.587-2.127-2.167-2.135C-521.251,1682.471-524.183,1682.48-527.116,1682.48Zm-.1,59.679v-.015c3.037,0,6.075.01,9.113,0a1.707,1.707,0,0,0,1.95-1.921q.04-3.928,0-7.856a1.745,1.745,0,0,0-2-1.992q-9.008-.023-18.017-.013a1.809,1.809,0,0,0-2.065,2.051q-.021,3.823,0,7.647c.006,1.465.64,2.1,2.111,2.1C-533.152,1742.166-530.184,1742.159-527.216,1742.159Z" transform="translate(0 0)" fill="#ff6b00"/>
    <path id="Path_180257" data-name="Path 180257" d="M-388.393,1814.517c.593-1.387-.3-2.615-1.461-3.838a1.686,1.686,0,0,1,.931-2.937,4.6,4.6,0,0,0,3.774-2.741,1.658,1.658,0,0,1,3.03-.022,4.615,4.615,0,0,0,3.828,2.772,1.709,1.709,0,0,1,.96,2.874,16.608,16.608,0,0,1-1.2,1.4,1.446,1.446,0,0,0-.4,1.357,16.533,16.533,0,0,1,.14,1.775,1.68,1.68,0,0,1-2.422,1.729,4.592,4.592,0,0,0-4.78,0C-387.173,1817.552-388.69,1816.487-388.393,1814.517Zm4.771-8.113c-.392.627-.777,1.187-1.1,1.779a1.7,1.7,0,0,1-1.261.934c-.68.125-1.346.326-2.245.55a4.308,4.308,0,0,1,1.825,5.223,4.329,4.329,0,0,1,5.459.049,10.019,10.019,0,0,0-.1-2.194,1.847,1.847,0,0,1,.526-1.551c.458-.47.857-1,1.336-1.566a16.533,16.533,0,0,0-1.713-.418,2.159,2.159,0,0,1-1.79-1.287C-382.938,1807.418-383.279,1806.958-383.622,1806.4Z" transform="translate(-105.158 -86.29)" fill="#ff6b00"/>
  </g>
</svg>
