<svg xmlns="http://www.w3.org/2000/svg" xmlns:xlink="http://www.w3.org/1999/xlink" width="86" height="86" viewBox="0 0 86 86">
  <defs>
    <clipPath id="clip-path">
      <rect id="Rectangle_37157" data-name="Rectangle 37157" width="40" height="40" fill="#fff"/>
    </clipPath>
  </defs>
  <g id="Group_127997" data-name="Group 127997" transform="translate(4674.41 9469)">
    <circle id="Ellipse_6348" data-name="Ellipse 6348" cx="43" cy="43" r="43" transform="translate(-4674.41 -9469)" fill="#ff6b00"/>
    <g id="Group_126193" data-name="Group 126193" transform="translate(-4651.41 -9446)">
      <g id="Group_120713" data-name="Group 120713" clip-path="url(#clip-path)">
        <path id="Path_181884" data-name="Path 181884" d="M13.881,40a7.119,7.119,0,0,1,2.472-6.017c.367-.322.786-.586,1.187-.882a8.557,8.557,0,0,1-5.63-8.582,3.473,3.473,0,0,1-3.086-1.162,3.109,3.109,0,0,1-.749-2.084,3.143,3.143,0,0,1,1.189-2.484,3.657,3.657,0,0,1,2.67-.728c0-.586,0-1.13,0-1.673a1.95,1.95,0,0,1,2.078-2.19c.048,0,.1-.01.191-.021-.076-.106-.124-.177-.175-.244a1.959,1.959,0,0,1-.283-2.022.951.951,0,0,0-.545-1.36,1.973,1.973,0,0,1-1.265-1.889q-.008-.274,0-.547a1.963,1.963,0,0,1,1.259-1.89.949.949,0,0,0,.554-1.358,1.953,1.953,0,0,1,.434-2.2c.134-.142.272-.28.414-.414a1.96,1.96,0,0,1,2.229-.441.934.934,0,0,0,1.328-.545A2.261,2.261,0,0,1,19.584,0H20.99L22.2.617,23.725,0h.938c.085.027.17.059.256.082A3.135,3.135,0,0,1,27,1.662a.689.689,0,0,0,.5.366A3.106,3.106,0,0,1,29.9,4.421a3.127,3.127,0,0,1-.538,2.653,3.271,3.271,0,0,1-1.826,5.121c-.222.7-.43,1.339-.642,2,.733,0,1.509,0,2.285,0A1.947,1.947,0,0,1,31.3,16.311c0,.569,0,1.138,0,1.747a3.68,3.68,0,0,1,2.67.73,3.151,3.151,0,0,1,1.188,2.485,3.112,3.112,0,0,1-.748,2.083,3.471,3.471,0,0,1-3.086,1.162,8.571,8.571,0,0,1-5.63,8.584c.392.287.8.544,1.158.856A7.132,7.132,0,0,1,29.349,40Zm7.691-15.478q3.786,0,7.572,0c.634,0,.85-.211.851-.837q0-2.381,0-4.762c0-.654-.21-.865-.863-.865q-7.513,0-15.027,0c-.66,0-.869.206-.87.858q0,2.341,0,4.683c0,.735.188.922.922.923h7.416m-8.3,1.244a1.439,1.439,0,0,0,0,.166,6.985,6.985,0,0,0,5.671,6.158,24.447,24.447,0,0,0,4.047.161,7.045,7.045,0,0,0,6.7-5.081c.138-.464.2-.949.3-1.4ZM26.789,7.122c.1-.017.172-.029.249-.044A1.954,1.954,0,0,0,28.7,4.971,1.928,1.928,0,0,0,26.542,3.25c-.29.022-.39-.074-.442-.334a1.934,1.934,0,0,0-3.842.369c-.017,1.8,0,3.592,0,5.388,0,1.2-.016,2.4.007,3.592A1.938,1.938,0,0,0,24.129,14.2a1.935,1.935,0,0,0,.39-3.842l-.294-.056V9.038a3.26,3.26,0,0,1,2.91,1.872,1.863,1.863,0,0,0,1.251-2.884l-1.6.419Zm-5.8,5.762a4.563,4.563,0,0,1-5.142-3.96,4.346,4.346,0,0,1,.824-3.17A4.482,4.482,0,0,1,20.888,3.9c.1-.626.155-1.209.3-1.768.133-.515-.008-.792-.548-.828-.182-.013-.365,0-.546,0a.757.757,0,0,0-.774.529,2.2,2.2,0,0,1-2.94,1.208.759.759,0,0,0-.921.186c-.106.114-.218.224-.33.332a.672.672,0,0,0-.169.851,2.284,2.284,0,0,1-1.266,3.02.629.629,0,0,0-.458.655q0,.312,0,.625a.626.626,0,0,0,.456.657,2.279,2.279,0,0,1,1.267,3.018.678.678,0,0,0,.168.852,9.876,9.876,0,0,0,.755.733,1.023,1.023,0,0,0,.574.23c1.587.018,3.175.011,4.762.01.11,0,.22-.012.334-.018-.194-.442-.374-.854-.569-1.3m8.98,3.934c.124-1.1-.044-1.354-1.171-1.349-4.853.022-9.706.01-14.559.01a2.629,2.629,0,0,0-.428.011.587.587,0,0,0-.552.52,7.606,7.606,0,0,0-.006.807ZM24.173,38.685V34a2.648,2.648,0,0,1-2.489,2.125c-1.225.034-2.059-.622-2.622-2.058v4.622ZM20.958,10.23A1.924,1.924,0,0,1,18.7,9.423a1.8,1.8,0,0,1-.009-2.061,1.927,1.927,0,0,1,2.26-.821V5.262a3.106,3.106,0,0,0-3.262,1.269,3.209,3.209,0,0,0,.008,3.725A3.087,3.087,0,0,0,20.958,11.5ZM11.921,19.39a2.1,2.1,0,0,0-2.29.917,1.9,1.9,0,0,0,.124,2.156,2.037,2.037,0,0,0,2.166.692Zm19.388,3.8a2.077,2.077,0,0,0,2.319-.978,1.82,1.82,0,0,0-.152-2.086,2.116,2.116,0,0,0-2.18-.734c0,1.186,0,2.351,0,3.517,0,.088.007.176.012.282M28,38.682a5.427,5.427,0,0,0-2.488-4.055v4.055ZM17.717,34.626a5.313,5.313,0,0,0-2.456,4.055h2.456Zm2.646-1.041a1.255,1.255,0,0,0,1.3,1.253,1.206,1.206,0,0,0,1.174-1.253ZM20.97,8.379a.646.646,0,1,0-.638.651.663.663,0,0,0,.638-.651" transform="translate(-1.615)" fill="#fff"/>
        <path id="Path_181885" data-name="Path 181885" d="M42.188,0c.2.052.4.106.594.157A4.51,4.51,0,1,1,40.845.071.931.931,0,0,0,41.017,0Zm2.546,3.87a2.976,2.976,0,0,0-2.47-2.448c0,.361-.014.725.01,1.086.006.1.114.2.194.282.286.291.579.576.871.862.077.075.154.2.237.209.384.022.77.01,1.158.01m.012,1.29c-.382,0-.733-.017-1.08.009a.631.631,0,0,0-.318.2c-.3.289-.6.586-.9.886-.073.074-.174.165-.178.253-.02.374-.009.75-.009,1.126a3.057,3.057,0,0,0,2.482-2.473M38.489,3.872c.366,0,.7.022,1.034-.011a.777.777,0,0,0,.382-.231c.29-.269.566-.552.845-.832.075-.075.2-.156.2-.241.022-.382.01-.765.01-1.151a3.061,3.061,0,0,0-2.474,2.466m.01,1.287a2.99,2.99,0,0,0,2.465,2.459c0-.375.012-.75-.009-1.123,0-.087-.116-.175-.19-.251q-.439-.452-.888-.9c-.074-.073-.164-.175-.251-.18-.374-.02-.749-.009-1.126-.009m2.475-.66a.642.642,0,1,0,1.285.015A.643.643,0,0,0,40.975,4.5" transform="translate(-7.422)" fill="#fff"/>
        <path id="Path_181886" data-name="Path 181886" d="M47.428,47.383a2.682,2.682,0,0,1-.306.035q-4.84,0-9.678,0c-.09,0-.181-.01-.3-.017V43.555H47.428Zm-1.315-2.514h-7.7v1.237h7.7Z" transform="translate(-7.428 -8.711)" fill="#fff"/>
        <path id="Path_181887" data-name="Path 181887" d="M47.428,40.937c-.1.01-.206.027-.309.027q-4.838,0-9.676,0c-.09,0-.181-.009-.3-.015V37.109H47.428Zm-9.014-1.275h7.722c0-.3-.02-.587,0-.868.029-.323-.086-.419-.413-.417-2.317.013-4.634.006-6.951.008-.114,0-.227.015-.362.026Z" transform="translate(-7.428 -7.422)" fill="#fff"/>
        <path id="Path_181888" data-name="Path 181888" d="M47.913,19.185c-2.174,0-4.347-.018-6.521,0-.355,0-.485-.09-.554-.447-.408-2.132-.845-4.258-1.271-6.387a.893.893,0,0,1,0-.153l1.234-.252c.4,1.966.788,3.922,1.186,5.9h.761v-3.8h1.282v3.813h1.3V15.305h1.288v2.552h1.3Z" transform="translate(-7.913 -2.388)" fill="#fff"/>
        <rect id="Rectangle_37150" data-name="Rectangle 37150" width="1.264" height="1.328" transform="translate(0 7.734)" fill="#fff"/>
        <path id="Path_181889" data-name="Path 181889" d="M26.953,0,25.431.617,24.219,0Z" transform="translate(-4.844)" fill="#fff"/>
        <rect id="Rectangle_37151" data-name="Rectangle 37151" width="8.99" height="1.231" transform="translate(1.307 34.866)" fill="#fff"/>
        <rect id="Rectangle_37152" data-name="Rectangle 37152" width="8.976" height="1.235" transform="translate(1.319 32.278)" fill="#fff"/>
        <path id="Path_181890" data-name="Path 181890" d="M3.247,4.864H4.5v1.25H9.685c0,.4.019.767-.016,1.123-.007.074-.215.182-.333.184-.923.016-1.847.009-2.771.009H3.247Z" transform="translate(-0.649 -0.973)" fill="#fff"/>
        <path id="Path_181891" data-name="Path 181891" d="M9.664,12.936V14.2H4.539v1.258H3.252v-2.52Z" transform="translate(-0.65 -2.587)" fill="#fff"/>
        <path id="Path_181892" data-name="Path 181892" d="M3.248,10.978V9.7H9.686v1.065c0,.279-.213.211-.366.211q-2.381.006-4.761,0H3.248" transform="translate(-0.65 -1.94)" fill="#fff"/>
        <rect id="Rectangle_37153" data-name="Rectangle 37153" width="6.411" height="1.23" transform="translate(1.306 37.446)" fill="#fff"/>
        <rect id="Rectangle_37154" data-name="Rectangle 37154" width="1.256" height="1.226" transform="translate(2.602 1.326)" fill="#fff"/>
        <rect id="Rectangle_37155" data-name="Rectangle 37155" width="1.241" height="1.234" transform="translate(2.598 14.223)" fill="#fff"/>
        <rect id="Rectangle_37156" data-name="Rectangle 37156" width="1.231" height="1.242" transform="translate(9.068 37.442)" fill="#fff"/>
        <path id="Path_181893" data-name="Path 181893" d="M18.858,28.058a1.926,1.926,0,1,1,1.948-1.914,1.928,1.928,0,0,1-1.948,1.914m.646-1.914a.64.64,0,0,0-.622-.658.646.646,0,0,0-.026,1.291.641.641,0,0,0,.648-.633" transform="translate(-3.387 -4.841)" fill="#fff"/>
        <path id="Path_181894" data-name="Path 181894" d="M30.163,28.057A1.926,1.926,0,1,1,32.1,26.128a1.929,1.929,0,0,1-1.934,1.929m.638-1.91a.654.654,0,0,0-.623-.662.646.646,0,0,0-.033,1.291.656.656,0,0,0,.656-.63" transform="translate(-5.645 -4.841)" fill="#fff"/>
        <path id="Path_181895" data-name="Path 181895" d="M20.975,34.7h1.234c.378,1.349,1.014,1.95,2.032,1.922,1-.027,1.647-.669,1.923-1.923h1.246a3.215,3.215,0,0,1-4.853,2.75A3.1,3.1,0,0,1,20.975,34.7" transform="translate(-4.195 -6.939)" fill="#fff"/>
      </g>
    </g>
  </g>
</svg>
