<svg xmlns="http://www.w3.org/2000/svg" xmlns:xlink="http://www.w3.org/1999/xlink" width="86" height="86" viewBox="0 0 86 86">
  <defs>
    <clipPath id="clip-path">
      <rect id="Rectangle_38217" data-name="Rectangle 38217" width="40" height="40" fill="#fff"/>
    </clipPath>
  </defs>
  <g id="Group_127988" data-name="Group 127988" transform="translate(6213.41 9469)">
    <circle id="Ellipse_6339" data-name="Ellipse 6339" cx="43" cy="43" r="43" transform="translate(-6213.41 -9469)" fill="#ff6b00"/>
    <g id="Group_126183" data-name="Group 126183" transform="translate(-6190.41 -9446)">
      <g id="Group_123911" data-name="Group 123911" clip-path="url(#clip-path)">
        <path id="Path_186416" data-name="Path 186416" d="M6.646,27.333H6.193q-2.686,0-5.371,0c-.572,0-.811-.239-.811-.811q0-6.517,0-13.033c0-.573.238-.81.811-.811,1.928,0,3.856,0,5.817,0V11.342c-.223,0-.454.007-.684,0A1.983,1.983,0,0,1,4.014,9.392q-.028-2.706,0-5.413A1.984,1.984,0,0,1,5.985,2.018c.207-.006.415,0,.652,0,.017-.086.032-.161.046-.237A2,2,0,0,1,8.766.019q5.287-.005,10.575,0c3.873,0,7.744.037,11.616-.018A2.13,2.13,0,0,1,33.32,2.348c-.01.094,0,.189,0,.335h.47c1.36,0,2.72,0,4.081,0A2,2,0,0,1,39.979,4.8q0,5.205,0,10.41a2.006,2.006,0,0,1-2.149,2.124c-1.485,0-2.968,0-4.51,0,0,.68-.006,1.34.01,2,0,.074.121.169.207.215a2.017,2.017,0,0,1,1.114,1.9c0,1.707.021,3.415-.014,5.121a7.381,7.381,0,0,1-.32,1.415c.113.053.321.151.53.244.874.386,1.754.762,2.623,1.159a4.017,4.017,0,0,1,2.486,3.693c.083,2.05.026,4.107.021,6.162a.667.667,0,0,1-.755.74c-2.012,0-4.025.025-6.036-.008A3.286,3.286,0,0,1,30,36.765a1.156,1.156,0,0,0-.3-.78c-.673-.793-1.322-1.608-2-2.4a.769.769,0,0,0-.509-.249q-7.2-.02-14.405,0a.707.707,0,0,0-.474.231q-1.082,1.265-2.122,2.566a.864.864,0,0,0-.176.482,3.341,3.341,0,0,1-3.475,3.373q-2.81.006-5.62,0c-.687,0-.9-.212-.9-.886,0-1.915-.028-3.831.007-5.746a4.151,4.151,0,0,1,2.633-4.023q1.847-.809,3.69-1.625a2.353,2.353,0,0,0,.369-.256l-.064-.122M19.628,27.3c-.207.013-.414.036-.622.036q-5.245,0-10.49,0h-.51c0,1.368,0,2.684,0,4a.7.7,0,0,0,.11.35c.148.23.313.336.554.07a10.771,10.771,0,0,1,.972-.97,1.879,1.879,0,0,1,3.033.868c.037.113.075.227.109.33H27.214c.02-.068.035-.121.051-.174a1.9,1.9,0,0,1,3.278-.848c.239.232.461.481.708.7.111.1.341.246.383.211a.834.834,0,0,0,.332-.484c.032-.9.015-1.793.015-2.725h-.365c-2.3,0-4.606.006-6.909,0a1.981,1.981,0,0,1-2.041-1.976q-.023-2.685,0-5.371a1.984,1.984,0,0,1,2-1.976c.472-.008.945.02,1.415-.011a1.591,1.591,0,0,0,.689-.2c.51-.305.989-.665,1.494-.981a.658.658,0,0,1,1.058.562c.01.2,0,.4,0,.6h2.643V17.34h-.471q-3.974,0-7.951,0a2.025,2.025,0,0,1-2.214-2.227q0-5.1,0-10.2a2.024,2.024,0,0,1,2.251-2.23h8.386C32.042,1.5,31.9,1.35,30.8,1.35H9.075c-.139,0-.279-.009-.417,0a.646.646,0,0,0-.642.662h.47c1.832,0,3.663-.008,5.5,0a1.977,1.977,0,0,1,2.013,2q.019,2.665,0,5.329a1.98,1.98,0,0,1-1.987,1.987c-.972.015-1.943,0-2.914,0-.134,0-.268.011-.412.018-.043.478.13.988-.519,1.314H19.1c.678,0,.892.215.893.9q0,6.432,0,12.865a.971.971,0,0,1-.382.865ZM1.372,25.968H18.641V14.027H1.372Zm29.294-9.961H37.7c.742,0,.946-.2.946-.93V4.96c0-.742-.2-.944-.93-.944H23.6c-.743,0-.944.2-.944.929q0,5.059,0,10.118c0,.743.2.944.929.945h7.077m2.962,19.869-3.389-3.33a6.833,6.833,0,0,0-.745-.722.7.7,0,0,0-.6-.1.789.789,0,0,0-.326.556.893.893,0,0,0,.242.543c.685.854,1.374,1.707,2.09,2.536a1.623,1.623,0,0,1,.424,1.165,1.99,1.99,0,0,0,2.127,2.135c1.609,0,3.217,0,4.826,0,.118,0,.235-.015.361-.025,0-1.858.045-3.676-.015-5.49A2.744,2.744,0,0,0,36.907,30.6c-1.049-.469-2.1-.93-3.154-1.392-.13-.057-.264-.1-.435-.172,0,.607-.019,1.148,0,1.687a2.4,2.4,0,0,1-.929,2.288l2.1,1.957-.865.907M1.349,38.659H6.338a2.069,2.069,0,0,0,2.345-2.318,1.485,1.485,0,0,1,.3-.822c.725-.93,1.491-1.827,2.237-2.741a.688.688,0,0,0,.008-1c-.258-.217-.553-.155-.9.2q-1.7,1.713-3.4,3.431c-.172.175-.315.377-.407.488l-1.09-1.047L7.46,32.909a2.2,2.2,0,0,1-.794-1.976c.025-.616,0-1.235,0-1.91-1.226.54-2.389,1.056-3.555,1.562A2.715,2.715,0,0,0,1.37,33.067c-.076,1.841-.021,3.688-.021,5.593M9.3,10.7c.186-.589.326-.691.955-.692,1.179,0,2.358,0,3.537,0,.652,0,.873-.223.874-.875q0-2.455,0-4.911c0-.654-.221-.875-.872-.876q-3.786,0-7.574,0c-.657,0-.879.218-.879.867q0,2.352,0,4.7c0,.944.146,1.114,1.073,1.086a3.742,3.742,0,0,1,2.887.7m18.627,9.189c-.807.984-1.9.769-2.943.778h-.166c-.593.008-.823.237-.825.84q0,2.5,0,4.994c0,.594.237.827.836.827q3.828,0,7.657,0c.6,0,.83-.236.832-.832q0-2.5,0-4.995c0-.6-.234-.832-.829-.834-1.194,0-2.386,0-3.579,0-.63,0-.771-.1-.983-.778m-19.9-7.252H9.747c-.338-.228-.611-.414-.887-.6s-.539-.351-.839-.546Z" transform="translate(0 0)" fill="#fff"/>
        <path id="Path_186417" data-name="Path 186417" d="M11.458,17.568V16.424c.3.2.571.369.839.546s.549.37.887.6Z" transform="translate(-3.437 -4.927)" fill="#fff"/>
        <path id="Path_186418" data-name="Path 186418" d="M27.331,39a6.98,6.98,0,0,1,.893.11A1.972,1.972,0,0,1,29.7,41.2a1.994,1.994,0,0,1-3.933.263,1.985,1.985,0,0,1,1.174-2.276c.137-.057.267-.13.4-.2L27.331,39m1.04,2.061a.664.664,0,1,0-.686.631.672.672,0,0,0,.686-.631" transform="translate(-7.713 -11.697)" fill="#fff"/>
        <path id="Path_186419" data-name="Path 186419" d="M5.127,28.5l-.989-.928c.676-.683,1.324-1.369,2.013-2.008a.953.953,0,0,1,.694-.171.984.984,0,0,0,1.12-.611c.168-.331.417-.621.611-.941a.887.887,0,0,1,.859-.466c.61.02,1.222.026,1.831-.006a1.051,1.051,0,0,0,.607-.246c.5-.457.952-.973,1.46-1.423a1.1,1.1,0,0,1,.725-.3,5.118,5.118,0,0,0,3.311-.823c.279-.174.59-.295.906-.449l.589,1.181c-.5.252-.995.462-1.448.741a4.314,4.314,0,0,1-2.848.664.72.72,0,0,0-.653.264c-.467.494-.94.985-1.446,1.437a1.232,1.232,0,0,1-.7.286c-.622.039-1.249,0-1.872.024a.686.686,0,0,0-.456.246c-.309.408-.588.841-.86,1.276a.815.815,0,0,1-.857.461,1.493,1.493,0,0,0-1.505.628c-.337.419-.736.788-1.1,1.166" transform="translate(-1.241 -6.036)" fill="#fff"/>
        <rect id="Rectangle_38198" data-name="Rectangle 38198" width="1.282" height="7.942" transform="translate(16.027 16.694)" fill="#fff"/>
        <rect id="Rectangle_38199" data-name="Rectangle 38199" width="1.28" height="6.615" transform="translate(13.356 18.027)" fill="#fff"/>
        <rect id="Rectangle_38200" data-name="Rectangle 38200" width="1.275" height="5.292" transform="translate(10.701 19.355)" fill="#fff"/>
        <rect id="Rectangle_38201" data-name="Rectangle 38201" width="4.625" height="1.28" transform="translate(2.694 14.705)" fill="#fff"/>
        <rect id="Rectangle_38202" data-name="Rectangle 38202" width="1.282" height="3.945" transform="translate(8.033 20.691)" fill="#fff"/>
        <rect id="Rectangle_38203" data-name="Rectangle 38203" width="2.605" height="1.296" transform="translate(2.708 16.689)" fill="#fff"/>
        <rect id="Rectangle_38204" data-name="Rectangle 38204" width="1.28" height="2.613" transform="translate(5.362 22.039)" fill="#fff"/>
        <rect id="Rectangle_38205" data-name="Rectangle 38205" width="1.276" height="1.284" transform="translate(2.706 23.364)" fill="#fff"/>
        <rect id="Rectangle_38206" data-name="Rectangle 38206" width="13.255" height="1.297" transform="translate(24.027 8.021)" fill="#fff"/>
        <rect id="Rectangle_38207" data-name="Rectangle 38207" width="13.27" height="1.285" transform="translate(24.013 10.698)" fill="#fff"/>
        <rect id="Rectangle_38208" data-name="Rectangle 38208" width="13.285" height="1.281" transform="translate(24.012 13.372)" fill="#fff"/>
        <rect id="Rectangle_38209" data-name="Rectangle 38209" width="10.606" height="1.284" transform="translate(26.676 5.369)" fill="#fff"/>
        <rect id="Rectangle_38210" data-name="Rectangle 38210" width="1.285" height="1.293" transform="translate(24.019 5.371)" fill="#fff"/>
        <path id="Path_186420" data-name="Path 186420" d="M51.761,44.216A3.61,3.61,0,0,1,53.194,47.9H51.959a6.379,6.379,0,0,0-.2-1.575,6.105,6.105,0,0,0-.91-1.277l.911-.837" transform="translate(-15.253 -13.263)" fill="#fff"/>
        <path id="Path_186421" data-name="Path 186421" d="M4.412,44.135l.931.932a2.578,2.578,0,0,0-1.112,2.806H2.907a3.633,3.633,0,0,1,1.506-3.738" transform="translate(-0.854 -13.239)" fill="#fff"/>
        <rect id="Rectangle_38211" data-name="Rectangle 38211" width="6.61" height="1.282" transform="translate(6.694 7.379)" fill="#fff"/>
        <rect id="Rectangle_38212" data-name="Rectangle 38212" width="3.959" height="1.267" transform="translate(9.346 4.713)" fill="#fff"/>
        <rect id="Rectangle_38213" data-name="Rectangle 38213" width="1.282" height="1.281" transform="translate(6.701 4.701)" fill="#fff"/>
        <rect id="Rectangle_38214" data-name="Rectangle 38214" width="6.605" height="1.285" transform="translate(25.349 24.689)" fill="#fff"/>
        <rect id="Rectangle_38215" data-name="Rectangle 38215" width="3.945" height="1.282" transform="translate(28.022 22.033)" fill="#fff"/>
        <rect id="Rectangle_38216" data-name="Rectangle 38216" width="1.296" height="1.266" transform="translate(25.352 22.039)" fill="#fff"/>
      </g>
    </g>
  </g>
</svg>
